G04 #@! TF.GenerationSoftware,KiCad,Pcbnew,8.0.5*
G04 #@! TF.CreationDate,2024-09-22T09:32:30+02:00*
G04 #@! TF.ProjectId,nPM1300-breakout,6e504d31-3330-4302-9d62-7265616b6f75,rev?*
G04 #@! TF.SameCoordinates,Original*
G04 #@! TF.FileFunction,Legend,Bot*
G04 #@! TF.FilePolarity,Positive*
%FSLAX46Y46*%
G04 Gerber Fmt 4.6, Leading zero omitted, Abs format (unit mm)*
G04 Created by KiCad (PCBNEW 8.0.5) date 2024-09-22 09:32:30*
%MOMM*%
%LPD*%
G01*
G04 APERTURE LIST*
%ADD10C,0.187500*%
%ADD11C,0.170000*%
%ADD12C,1.700000*%
%ADD13O,1.700000X1.700000*%
%ADD14C,0.650000*%
%ADD15O,2.304000X1.204000*%
%ADD16O,2.004000X1.204000*%
G04 APERTURE END LIST*
D10*
G36*
X110099445Y-75256379D02*
G01*
X110147001Y-75351491D01*
X110147001Y-75500717D01*
X109620216Y-75395360D01*
X109620216Y-75351491D01*
X109667771Y-75256379D01*
X109762883Y-75208824D01*
X110004335Y-75208824D01*
X110099445Y-75256379D01*
G37*
G36*
X111399502Y-75263551D02*
G01*
X111449417Y-75313465D01*
X111504144Y-75422919D01*
X111504144Y-75807228D01*
X111449415Y-75916685D01*
X111399505Y-75966595D01*
X111290048Y-76021324D01*
X111120026Y-76021324D01*
X111010571Y-75966597D01*
X110960657Y-75916682D01*
X110905930Y-75807228D01*
X110905930Y-75422919D01*
X110960657Y-75313464D01*
X111010571Y-75263551D01*
X111120026Y-75208824D01*
X111290049Y-75208824D01*
X111399502Y-75263551D01*
G37*
G36*
X117613788Y-75263551D02*
G01*
X117663703Y-75313465D01*
X117718430Y-75422919D01*
X117718430Y-75807228D01*
X117663701Y-75916685D01*
X117613791Y-75966595D01*
X117504334Y-76021324D01*
X117334312Y-76021324D01*
X117224857Y-75966597D01*
X117174943Y-75916682D01*
X117120216Y-75807228D01*
X117120216Y-75422919D01*
X117174943Y-75313464D01*
X117224857Y-75263551D01*
X117334312Y-75208824D01*
X117504335Y-75208824D01*
X117613788Y-75263551D01*
G37*
G36*
X121028017Y-75256379D02*
G01*
X121075573Y-75351491D01*
X121075573Y-75500717D01*
X120548788Y-75395360D01*
X120548788Y-75351491D01*
X120596343Y-75256379D01*
X120691455Y-75208824D01*
X120932907Y-75208824D01*
X121028017Y-75256379D01*
G37*
G36*
X126289859Y-76021324D02*
G01*
X125834312Y-76021324D01*
X125724854Y-75966595D01*
X125674944Y-75916685D01*
X125620216Y-75807228D01*
X125620216Y-75637205D01*
X125674944Y-75527748D01*
X125719964Y-75482728D01*
X125898822Y-75423110D01*
X126289859Y-75423110D01*
X126289859Y-76021324D01*
G37*
G36*
X126289859Y-75235610D02*
G01*
X125905741Y-75235610D01*
X125796286Y-75180882D01*
X125746370Y-75130967D01*
X125691644Y-75021514D01*
X125691644Y-74922919D01*
X125746370Y-74813466D01*
X125796286Y-74763551D01*
X125905741Y-74708824D01*
X126289859Y-74708824D01*
X126289859Y-75235610D01*
G37*
G36*
X112932716Y-75307038D02*
G01*
X112477169Y-75307038D01*
X112367711Y-75252309D01*
X112317801Y-75202399D01*
X112263073Y-75092942D01*
X112263073Y-74922919D01*
X112317799Y-74813465D01*
X112367714Y-74763551D01*
X112477169Y-74708824D01*
X112932716Y-74708824D01*
X112932716Y-75307038D01*
G37*
G36*
X122504145Y-75307038D02*
G01*
X122048598Y-75307038D01*
X121939140Y-75252309D01*
X121889230Y-75202399D01*
X121834502Y-75092942D01*
X121834502Y-74922919D01*
X121889228Y-74813465D01*
X121939143Y-74763551D01*
X122048598Y-74708824D01*
X122504145Y-74708824D01*
X122504145Y-75307038D01*
G37*
G36*
X108542361Y-72848635D02*
G01*
X108592276Y-72898549D01*
X108647003Y-73008003D01*
X108647003Y-73392312D01*
X108592274Y-73501769D01*
X108542364Y-73551679D01*
X108432907Y-73606408D01*
X108262885Y-73606408D01*
X108153430Y-73551681D01*
X108103516Y-73501766D01*
X108048789Y-73392312D01*
X108048789Y-73008003D01*
X108103516Y-72898548D01*
X108153430Y-72848635D01*
X108262885Y-72793908D01*
X108432908Y-72793908D01*
X108542361Y-72848635D01*
G37*
G36*
X110698827Y-73212582D02*
G01*
X110715992Y-73219151D01*
X110719351Y-73219389D01*
X110722464Y-73220679D01*
X110740754Y-73222480D01*
X111075765Y-73222480D01*
X111170876Y-73270035D01*
X111218432Y-73365146D01*
X111218432Y-73463740D01*
X111170876Y-73558852D01*
X111075765Y-73606408D01*
X110762886Y-73606408D01*
X110691647Y-73570788D01*
X110691647Y-73208991D01*
X110698827Y-73212582D01*
G37*
G36*
X112456590Y-72841463D02*
G01*
X112504146Y-72936575D01*
X112504146Y-73085801D01*
X111977361Y-72980444D01*
X111977361Y-72936575D01*
X112024916Y-72841463D01*
X112120028Y-72793908D01*
X112361480Y-72793908D01*
X112456590Y-72841463D01*
G37*
G36*
X114861289Y-73606408D02*
G01*
X114405742Y-73606408D01*
X114296284Y-73551679D01*
X114246374Y-73501769D01*
X114191646Y-73392312D01*
X114191646Y-73222289D01*
X114246374Y-73112832D01*
X114291394Y-73067812D01*
X114470252Y-73008194D01*
X114861289Y-73008194D01*
X114861289Y-73606408D01*
G37*
G36*
X114861289Y-72820694D02*
G01*
X114477171Y-72820694D01*
X114367716Y-72765966D01*
X114317800Y-72716051D01*
X114263074Y-72606598D01*
X114263074Y-72508003D01*
X114317800Y-72398550D01*
X114367716Y-72348635D01*
X114477171Y-72293908D01*
X114861289Y-72293908D01*
X114861289Y-72820694D01*
G37*
G36*
X117328077Y-72348636D02*
G01*
X117377989Y-72398549D01*
X117438012Y-72518594D01*
X117504145Y-72783127D01*
X117504145Y-73117189D01*
X117438011Y-73381722D01*
X117377989Y-73501766D01*
X117328074Y-73551681D01*
X117218620Y-73606408D01*
X117120027Y-73606408D01*
X117010572Y-73551681D01*
X116960658Y-73501766D01*
X116900636Y-73381723D01*
X116834502Y-73117187D01*
X116834502Y-72783129D01*
X116900636Y-72518592D01*
X116960658Y-72398548D01*
X117010572Y-72348635D01*
X117120027Y-72293908D01*
X117218620Y-72293908D01*
X117328077Y-72348636D01*
G37*
G36*
X118756648Y-72348636D02*
G01*
X118806560Y-72398549D01*
X118866583Y-72518594D01*
X118932716Y-72783127D01*
X118932716Y-73117189D01*
X118866582Y-73381722D01*
X118806560Y-73501766D01*
X118756645Y-73551681D01*
X118647191Y-73606408D01*
X118548598Y-73606408D01*
X118439143Y-73551681D01*
X118389229Y-73501766D01*
X118329207Y-73381723D01*
X118263073Y-73117187D01*
X118263073Y-72783129D01*
X118329207Y-72518592D01*
X118389229Y-72398548D01*
X118439143Y-72348635D01*
X118548598Y-72293908D01*
X118647191Y-72293908D01*
X118756648Y-72348636D01*
G37*
G36*
X124932716Y-72892122D02*
G01*
X124477169Y-72892122D01*
X124367711Y-72837393D01*
X124317801Y-72787483D01*
X124263073Y-72678026D01*
X124263073Y-72508003D01*
X124317799Y-72398549D01*
X124367714Y-72348635D01*
X124477169Y-72293908D01*
X124932716Y-72293908D01*
X124932716Y-72892122D01*
G37*
G36*
X126644026Y-76874755D02*
G01*
X105339280Y-76874755D01*
X105339280Y-75829360D01*
X107432716Y-75829360D01*
X107432716Y-75900788D01*
X107434517Y-75919078D01*
X107435806Y-75922190D01*
X107436045Y-75925550D01*
X107442613Y-75942714D01*
X107514042Y-76085572D01*
X107515968Y-76088632D01*
X107516449Y-76090074D01*
X107518006Y-76091869D01*
X107523833Y-76101126D01*
X107532713Y-76108827D01*
X107540415Y-76117708D01*
X107549671Y-76123534D01*
X107551467Y-76125092D01*
X107552908Y-76125572D01*
X107555969Y-76127499D01*
X107698826Y-76198927D01*
X107715991Y-76205495D01*
X107719349Y-76205733D01*
X107722462Y-76207023D01*
X107740752Y-76208824D01*
X108026466Y-76208824D01*
X108044756Y-76207023D01*
X108047868Y-76205733D01*
X108051228Y-76205495D01*
X108068392Y-76198927D01*
X108211249Y-76127499D01*
X108226803Y-76117708D01*
X108239257Y-76103348D01*
X108576309Y-76103348D01*
X108578902Y-76139836D01*
X108595261Y-76172554D01*
X108622895Y-76196520D01*
X108657597Y-76208088D01*
X108694085Y-76205495D01*
X108711249Y-76198927D01*
X108854106Y-76127499D01*
X108857164Y-76125573D01*
X108858607Y-76125093D01*
X108860404Y-76123534D01*
X108869660Y-76117708D01*
X108877362Y-76108826D01*
X108886242Y-76101126D01*
X108892066Y-76091873D01*
X108893627Y-76090074D01*
X108894108Y-76088629D01*
X108896033Y-76085572D01*
X108967462Y-75942714D01*
X108974030Y-75925550D01*
X108974268Y-75922190D01*
X108975558Y-75919078D01*
X108977359Y-75900788D01*
X108977359Y-75329360D01*
X109432716Y-75329360D01*
X109432716Y-75472217D01*
X109434517Y-75490507D01*
X109438032Y-75498994D01*
X109439815Y-75508003D01*
X109444963Y-75515726D01*
X109448516Y-75524302D01*
X109455009Y-75530795D01*
X109460105Y-75538439D01*
X109467819Y-75543605D01*
X109474381Y-75550167D01*
X109482865Y-75553681D01*
X109490498Y-75558793D01*
X109508080Y-75564146D01*
X109508172Y-75564164D01*
X109508176Y-75564166D01*
X109508180Y-75564166D01*
X110147001Y-75691931D01*
X110147001Y-75878656D01*
X110099445Y-75973768D01*
X110004334Y-76021324D01*
X109762883Y-76021324D01*
X109639820Y-75959793D01*
X109622656Y-75953225D01*
X109586168Y-75950632D01*
X109551466Y-75962200D01*
X109523832Y-75986166D01*
X109507473Y-76018884D01*
X109504880Y-76055372D01*
X109516448Y-76090074D01*
X109540414Y-76117708D01*
X109555968Y-76127499D01*
X109698825Y-76198927D01*
X109715990Y-76205495D01*
X109719348Y-76205733D01*
X109722461Y-76207023D01*
X109740751Y-76208824D01*
X110026466Y-76208824D01*
X110044756Y-76207023D01*
X110047868Y-76205733D01*
X110051228Y-76205495D01*
X110068392Y-76198927D01*
X110211249Y-76127499D01*
X110214309Y-76125572D01*
X110215751Y-76125092D01*
X110217546Y-76123534D01*
X110226803Y-76117708D01*
X110234505Y-76108826D01*
X110243385Y-76101126D01*
X110249209Y-76091873D01*
X110250770Y-76090074D01*
X110251251Y-76088629D01*
X110253176Y-76085572D01*
X110324604Y-75942713D01*
X110331173Y-75925549D01*
X110331411Y-75922187D01*
X110332700Y-75919078D01*
X110334501Y-75900788D01*
X110334501Y-75615177D01*
X110334502Y-75615172D01*
X110334501Y-75615166D01*
X110334501Y-75400788D01*
X110718430Y-75400788D01*
X110718430Y-75829360D01*
X110720231Y-75847650D01*
X110721520Y-75850762D01*
X110721759Y-75854122D01*
X110728328Y-75871287D01*
X110799756Y-76014143D01*
X110804710Y-76022014D01*
X110805658Y-76024301D01*
X110807771Y-76026876D01*
X110809547Y-76029697D01*
X110811417Y-76031319D01*
X110817317Y-76038508D01*
X110888745Y-76109937D01*
X110895934Y-76115836D01*
X110897557Y-76117708D01*
X110900378Y-76119484D01*
X110902952Y-76121596D01*
X110905237Y-76122542D01*
X110913111Y-76127499D01*
X111055968Y-76198927D01*
X111073133Y-76205495D01*
X111076491Y-76205733D01*
X111079604Y-76207023D01*
X111097894Y-76208824D01*
X111312180Y-76208824D01*
X111330470Y-76207023D01*
X111333582Y-76205733D01*
X111336942Y-76205495D01*
X111354106Y-76198927D01*
X111496963Y-76127499D01*
X111504832Y-76122545D01*
X111507122Y-76121597D01*
X111509698Y-76119482D01*
X111512517Y-76117708D01*
X111514139Y-76115836D01*
X111521328Y-76109937D01*
X111592757Y-76038508D01*
X111598657Y-76031319D01*
X111600528Y-76029697D01*
X111602302Y-76026878D01*
X111604417Y-76024302D01*
X111605365Y-76022012D01*
X111610319Y-76014143D01*
X111681747Y-75871286D01*
X111688315Y-75854121D01*
X111688553Y-75850762D01*
X111689843Y-75847650D01*
X111691644Y-75829360D01*
X111691644Y-75400788D01*
X111689843Y-75382498D01*
X111688553Y-75379385D01*
X111688315Y-75376027D01*
X111681747Y-75358862D01*
X111610319Y-75216005D01*
X111605362Y-75208131D01*
X111604416Y-75205846D01*
X111602304Y-75203272D01*
X111600528Y-75200451D01*
X111598656Y-75198828D01*
X111592757Y-75191639D01*
X111521328Y-75120211D01*
X111514139Y-75114311D01*
X111512517Y-75112441D01*
X111509696Y-75110665D01*
X111507121Y-75108552D01*
X111504834Y-75107604D01*
X111496963Y-75102650D01*
X111354107Y-75031222D01*
X111336942Y-75024653D01*
X111333582Y-75024414D01*
X111330470Y-75023125D01*
X111312180Y-75021324D01*
X111097894Y-75021324D01*
X111079604Y-75023125D01*
X111076491Y-75024414D01*
X111073132Y-75024653D01*
X111055967Y-75031222D01*
X110913110Y-75102651D01*
X110905237Y-75107606D01*
X110902952Y-75108553D01*
X110900378Y-75110665D01*
X110897557Y-75112441D01*
X110895934Y-75114312D01*
X110888745Y-75120212D01*
X110817318Y-75191640D01*
X110811417Y-75198828D01*
X110809547Y-75200451D01*
X110807772Y-75203269D01*
X110805658Y-75205846D01*
X110804709Y-75208135D01*
X110799756Y-75216005D01*
X110728328Y-75358861D01*
X110721759Y-75376026D01*
X110721520Y-75379385D01*
X110720231Y-75382498D01*
X110718430Y-75400788D01*
X110334501Y-75400788D01*
X110334501Y-75329360D01*
X110332700Y-75311070D01*
X110331410Y-75307957D01*
X110331172Y-75304599D01*
X110324604Y-75287434D01*
X110253176Y-75144577D01*
X110251248Y-75141515D01*
X110250769Y-75140076D01*
X110249213Y-75138282D01*
X110243385Y-75129023D01*
X110234503Y-75121320D01*
X110226803Y-75112441D01*
X110217546Y-75106614D01*
X110215751Y-75105057D01*
X110214309Y-75104576D01*
X110211249Y-75102650D01*
X110068393Y-75031222D01*
X110051228Y-75024653D01*
X110047868Y-75024414D01*
X110044756Y-75023125D01*
X110026466Y-75021324D01*
X109740751Y-75021324D01*
X109722461Y-75023125D01*
X109719348Y-75024414D01*
X109715989Y-75024653D01*
X109698824Y-75031222D01*
X109555967Y-75102651D01*
X109552911Y-75104574D01*
X109551466Y-75105056D01*
X109549665Y-75106617D01*
X109540414Y-75112441D01*
X109532713Y-75121320D01*
X109523832Y-75129023D01*
X109518005Y-75138278D01*
X109516447Y-75140076D01*
X109515966Y-75141518D01*
X109514041Y-75144577D01*
X109442613Y-75287434D01*
X109436045Y-75304598D01*
X109435806Y-75307957D01*
X109434517Y-75311070D01*
X109432716Y-75329360D01*
X108977359Y-75329360D01*
X108977359Y-74900788D01*
X112075573Y-74900788D01*
X112075573Y-75115074D01*
X112077374Y-75133364D01*
X112078663Y-75136476D01*
X112078902Y-75139836D01*
X112085470Y-75157000D01*
X112156898Y-75299857D01*
X112161851Y-75307726D01*
X112162800Y-75310016D01*
X112164914Y-75312592D01*
X112166689Y-75315411D01*
X112168560Y-75317033D01*
X112174460Y-75324222D01*
X112245889Y-75395651D01*
X112253077Y-75401551D01*
X112254700Y-75403422D01*
X112257518Y-75405196D01*
X112260095Y-75407311D01*
X112262384Y-75408259D01*
X112270254Y-75413213D01*
X112413111Y-75484641D01*
X112430276Y-75491209D01*
X112433634Y-75491447D01*
X112436747Y-75492737D01*
X112455037Y-75494538D01*
X112489262Y-75494538D01*
X112092520Y-76061312D01*
X112083507Y-76077328D01*
X112075595Y-76113042D01*
X112081952Y-76149064D01*
X112101610Y-76179913D01*
X112131577Y-76200890D01*
X112167291Y-76208802D01*
X112203313Y-76202445D01*
X112234162Y-76182787D01*
X112246126Y-76168836D01*
X112718134Y-75494538D01*
X112932716Y-75494538D01*
X112932716Y-76115074D01*
X112934517Y-76133364D01*
X112948516Y-76167159D01*
X112974381Y-76193024D01*
X113008176Y-76207023D01*
X113044756Y-76207023D01*
X113078551Y-76193024D01*
X113104416Y-76167159D01*
X113118415Y-76133364D01*
X113120216Y-76115074D01*
X113120216Y-75096784D01*
X114577374Y-75096784D01*
X114577374Y-75133364D01*
X114591373Y-75167159D01*
X114617238Y-75193024D01*
X114651033Y-75207023D01*
X114669323Y-75208824D01*
X114932716Y-75208824D01*
X114932716Y-75878656D01*
X114885159Y-75973768D01*
X114790048Y-76021324D01*
X114669323Y-76021324D01*
X114651033Y-76023125D01*
X114617238Y-76037124D01*
X114591373Y-76062989D01*
X114577374Y-76096784D01*
X114577374Y-76133364D01*
X114591373Y-76167159D01*
X114617238Y-76193024D01*
X114651033Y-76207023D01*
X114669323Y-76208824D01*
X114812180Y-76208824D01*
X114830470Y-76207023D01*
X114833582Y-76205733D01*
X114836942Y-76205495D01*
X114854106Y-76198927D01*
X114996963Y-76127499D01*
X115000021Y-76125573D01*
X115001464Y-76125093D01*
X115003261Y-76123534D01*
X115012517Y-76117708D01*
X115020219Y-76108826D01*
X115029099Y-76101126D01*
X115034923Y-76091873D01*
X115036484Y-76090074D01*
X115036965Y-76088629D01*
X115038890Y-76085572D01*
X115110319Y-75942714D01*
X115116887Y-75925550D01*
X115117125Y-75922190D01*
X115118415Y-75919078D01*
X115120216Y-75900788D01*
X115120216Y-75208824D01*
X115240751Y-75208824D01*
X115259041Y-75207023D01*
X115292836Y-75193024D01*
X115318701Y-75167159D01*
X115332700Y-75133364D01*
X115332700Y-75115074D01*
X115647002Y-75115074D01*
X115647002Y-76115074D01*
X115648803Y-76133364D01*
X115662802Y-76167159D01*
X115688667Y-76193024D01*
X115722462Y-76207023D01*
X115759042Y-76207023D01*
X115792837Y-76193024D01*
X115818702Y-76167159D01*
X115823999Y-76154371D01*
X115913111Y-76198927D01*
X115930276Y-76205495D01*
X115933634Y-76205733D01*
X115936747Y-76207023D01*
X115955037Y-76208824D01*
X116169323Y-76208824D01*
X116187613Y-76207023D01*
X116190725Y-76205733D01*
X116194085Y-76205495D01*
X116211249Y-76198927D01*
X116354106Y-76127499D01*
X116357164Y-76125573D01*
X116358607Y-76125093D01*
X116360404Y-76123534D01*
X116369660Y-76117708D01*
X116377362Y-76108826D01*
X116386242Y-76101126D01*
X116392066Y-76091873D01*
X116393627Y-76090074D01*
X116394108Y-76088629D01*
X116396033Y-76085572D01*
X116467462Y-75942714D01*
X116474030Y-75925550D01*
X116474268Y-75922190D01*
X116475558Y-75919078D01*
X116477359Y-75900788D01*
X116477359Y-75400788D01*
X116932716Y-75400788D01*
X116932716Y-75829360D01*
X116934517Y-75847650D01*
X116935806Y-75850762D01*
X116936045Y-75854122D01*
X116942614Y-75871287D01*
X117014042Y-76014143D01*
X117018996Y-76022014D01*
X117019944Y-76024301D01*
X117022057Y-76026876D01*
X117023833Y-76029697D01*
X117025703Y-76031319D01*
X117031603Y-76038508D01*
X117103031Y-76109937D01*
X117110220Y-76115836D01*
X117111843Y-76117708D01*
X117114664Y-76119484D01*
X117117238Y-76121596D01*
X117119523Y-76122542D01*
X117127397Y-76127499D01*
X117270254Y-76198927D01*
X117287419Y-76205495D01*
X117290777Y-76205733D01*
X117293890Y-76207023D01*
X117312180Y-76208824D01*
X117526466Y-76208824D01*
X117544756Y-76207023D01*
X117547868Y-76205733D01*
X117551228Y-76205495D01*
X117568392Y-76198927D01*
X117711249Y-76127499D01*
X117719118Y-76122545D01*
X117721408Y-76121597D01*
X117723984Y-76119482D01*
X117726803Y-76117708D01*
X117728425Y-76115836D01*
X117735614Y-76109937D01*
X117807043Y-76038508D01*
X117812943Y-76031319D01*
X117814814Y-76029697D01*
X117816588Y-76026878D01*
X117818703Y-76024302D01*
X117819651Y-76022012D01*
X117824605Y-76014143D01*
X117896033Y-75871286D01*
X117902601Y-75854121D01*
X117902839Y-75850762D01*
X117904129Y-75847650D01*
X117905930Y-75829360D01*
X117905930Y-75400788D01*
X117904129Y-75382498D01*
X117902839Y-75379385D01*
X117902601Y-75376027D01*
X117896033Y-75358862D01*
X117881282Y-75329360D01*
X118361288Y-75329360D01*
X118361288Y-76115074D01*
X118363089Y-76133364D01*
X118377088Y-76167159D01*
X118402953Y-76193024D01*
X118436748Y-76207023D01*
X118473328Y-76207023D01*
X118507123Y-76193024D01*
X118532988Y-76167159D01*
X118546987Y-76133364D01*
X118548788Y-76115074D01*
X118548788Y-75351491D01*
X118596343Y-75256379D01*
X118691455Y-75208824D01*
X118861478Y-75208824D01*
X118970931Y-75263551D01*
X119004145Y-75296764D01*
X119004145Y-76115074D01*
X119005946Y-76133364D01*
X119019945Y-76167159D01*
X119045810Y-76193024D01*
X119079605Y-76207023D01*
X119116185Y-76207023D01*
X119149980Y-76193024D01*
X119175845Y-76167159D01*
X119189844Y-76133364D01*
X119191645Y-76115074D01*
X119191645Y-75115074D01*
X119718431Y-75115074D01*
X119718431Y-76115074D01*
X119720232Y-76133364D01*
X119734231Y-76167159D01*
X119760096Y-76193024D01*
X119793891Y-76207023D01*
X119830471Y-76207023D01*
X119864266Y-76193024D01*
X119890131Y-76167159D01*
X119904130Y-76133364D01*
X119905931Y-76115074D01*
X119905931Y-75329360D01*
X120361288Y-75329360D01*
X120361288Y-75472217D01*
X120363089Y-75490507D01*
X120366604Y-75498994D01*
X120368387Y-75508003D01*
X120373535Y-75515726D01*
X120377088Y-75524302D01*
X120383581Y-75530795D01*
X120388677Y-75538439D01*
X120396391Y-75543605D01*
X120402953Y-75550167D01*
X120411437Y-75553681D01*
X120419070Y-75558793D01*
X120436652Y-75564146D01*
X120436744Y-75564164D01*
X120436748Y-75564166D01*
X120436752Y-75564166D01*
X121075573Y-75691931D01*
X121075573Y-75878656D01*
X121028017Y-75973768D01*
X120932906Y-76021324D01*
X120691455Y-76021324D01*
X120568392Y-75959793D01*
X120551228Y-75953225D01*
X120514740Y-75950632D01*
X120480038Y-75962200D01*
X120452404Y-75986166D01*
X120436045Y-76018884D01*
X120433452Y-76055372D01*
X120445020Y-76090074D01*
X120468986Y-76117708D01*
X120484540Y-76127499D01*
X120627397Y-76198927D01*
X120644562Y-76205495D01*
X120647920Y-76205733D01*
X120651033Y-76207023D01*
X120669323Y-76208824D01*
X120955038Y-76208824D01*
X120973328Y-76207023D01*
X120976440Y-76205733D01*
X120979800Y-76205495D01*
X120996964Y-76198927D01*
X121139821Y-76127499D01*
X121142881Y-76125572D01*
X121144323Y-76125092D01*
X121146118Y-76123534D01*
X121155375Y-76117708D01*
X121163077Y-76108826D01*
X121171957Y-76101126D01*
X121177781Y-76091873D01*
X121179342Y-76090074D01*
X121179823Y-76088629D01*
X121181748Y-76085572D01*
X121253176Y-75942713D01*
X121259745Y-75925549D01*
X121259983Y-75922187D01*
X121261272Y-75919078D01*
X121263073Y-75900788D01*
X121263073Y-75615177D01*
X121263074Y-75615172D01*
X121263073Y-75615166D01*
X121263073Y-75329360D01*
X121261272Y-75311070D01*
X121259982Y-75307957D01*
X121259744Y-75304599D01*
X121253176Y-75287434D01*
X121181748Y-75144577D01*
X121179820Y-75141515D01*
X121179341Y-75140076D01*
X121177785Y-75138282D01*
X121171957Y-75129023D01*
X121163075Y-75121320D01*
X121155375Y-75112441D01*
X121146118Y-75106614D01*
X121144323Y-75105057D01*
X121142881Y-75104576D01*
X121139821Y-75102650D01*
X120996965Y-75031222D01*
X120979800Y-75024653D01*
X120976440Y-75024414D01*
X120973328Y-75023125D01*
X120955038Y-75021324D01*
X120669323Y-75021324D01*
X120651033Y-75023125D01*
X120647920Y-75024414D01*
X120644561Y-75024653D01*
X120627396Y-75031222D01*
X120484539Y-75102651D01*
X120481483Y-75104574D01*
X120480038Y-75105056D01*
X120478237Y-75106617D01*
X120468986Y-75112441D01*
X120461285Y-75121320D01*
X120452404Y-75129023D01*
X120446577Y-75138278D01*
X120445019Y-75140076D01*
X120444538Y-75141518D01*
X120442613Y-75144577D01*
X120371185Y-75287434D01*
X120364617Y-75304598D01*
X120364378Y-75307957D01*
X120363089Y-75311070D01*
X120361288Y-75329360D01*
X119905931Y-75329360D01*
X119905931Y-75115074D01*
X119904130Y-75096784D01*
X119890131Y-75062989D01*
X119864266Y-75037124D01*
X119830471Y-75023125D01*
X119793891Y-75023125D01*
X119760096Y-75037124D01*
X119734231Y-75062989D01*
X119720232Y-75096784D01*
X119718431Y-75115074D01*
X119191645Y-75115074D01*
X119189844Y-75096784D01*
X119175845Y-75062989D01*
X119149980Y-75037124D01*
X119116185Y-75023125D01*
X119079605Y-75023125D01*
X119045810Y-75037124D01*
X119019945Y-75062989D01*
X119014647Y-75075777D01*
X118925536Y-75031222D01*
X118908371Y-75024653D01*
X118905011Y-75024414D01*
X118901899Y-75023125D01*
X118883609Y-75021324D01*
X118669323Y-75021324D01*
X118651033Y-75023125D01*
X118647920Y-75024414D01*
X118644561Y-75024653D01*
X118627396Y-75031222D01*
X118484539Y-75102651D01*
X118481483Y-75104574D01*
X118480038Y-75105056D01*
X118478237Y-75106617D01*
X118468986Y-75112441D01*
X118461285Y-75121320D01*
X118452404Y-75129023D01*
X118446577Y-75138278D01*
X118445019Y-75140076D01*
X118444538Y-75141518D01*
X118442613Y-75144577D01*
X118371185Y-75287434D01*
X118364617Y-75304598D01*
X118364378Y-75307957D01*
X118363089Y-75311070D01*
X118361288Y-75329360D01*
X117881282Y-75329360D01*
X117824605Y-75216005D01*
X117819648Y-75208131D01*
X117818702Y-75205846D01*
X117816590Y-75203272D01*
X117814814Y-75200451D01*
X117812942Y-75198828D01*
X117807043Y-75191639D01*
X117735614Y-75120211D01*
X117728425Y-75114311D01*
X117726803Y-75112441D01*
X117723982Y-75110665D01*
X117721407Y-75108552D01*
X117719120Y-75107604D01*
X117711249Y-75102650D01*
X117568393Y-75031222D01*
X117551228Y-75024653D01*
X117547868Y-75024414D01*
X117544756Y-75023125D01*
X117526466Y-75021324D01*
X117312180Y-75021324D01*
X117293890Y-75023125D01*
X117290777Y-75024414D01*
X117287418Y-75024653D01*
X117270253Y-75031222D01*
X117127396Y-75102651D01*
X117119523Y-75107606D01*
X117117238Y-75108553D01*
X117114664Y-75110665D01*
X117111843Y-75112441D01*
X117110220Y-75114312D01*
X117103031Y-75120212D01*
X117031604Y-75191640D01*
X117025703Y-75198828D01*
X117023833Y-75200451D01*
X117022058Y-75203269D01*
X117019944Y-75205846D01*
X117018995Y-75208135D01*
X117014042Y-75216005D01*
X116942614Y-75358861D01*
X116936045Y-75376026D01*
X116935806Y-75379385D01*
X116934517Y-75382498D01*
X116932716Y-75400788D01*
X116477359Y-75400788D01*
X116477359Y-75115074D01*
X116475558Y-75096784D01*
X116461559Y-75062989D01*
X116435694Y-75037124D01*
X116401899Y-75023125D01*
X116365319Y-75023125D01*
X116331524Y-75037124D01*
X116305659Y-75062989D01*
X116291660Y-75096784D01*
X116289859Y-75115074D01*
X116289859Y-75878656D01*
X116242302Y-75973768D01*
X116147191Y-76021324D01*
X115977169Y-76021324D01*
X115867714Y-75966597D01*
X115834502Y-75933384D01*
X115834502Y-75115074D01*
X115832701Y-75096784D01*
X115818702Y-75062989D01*
X115792837Y-75037124D01*
X115759042Y-75023125D01*
X115722462Y-75023125D01*
X115688667Y-75037124D01*
X115662802Y-75062989D01*
X115648803Y-75096784D01*
X115647002Y-75115074D01*
X115332700Y-75115074D01*
X115332700Y-75096784D01*
X115318701Y-75062989D01*
X115292836Y-75037124D01*
X115259041Y-75023125D01*
X115240751Y-75021324D01*
X115120216Y-75021324D01*
X115120216Y-74900788D01*
X121647002Y-74900788D01*
X121647002Y-75115074D01*
X121648803Y-75133364D01*
X121650092Y-75136476D01*
X121650331Y-75139836D01*
X121656899Y-75157000D01*
X121728327Y-75299857D01*
X121733280Y-75307726D01*
X121734229Y-75310016D01*
X121736343Y-75312592D01*
X121738118Y-75315411D01*
X121739989Y-75317033D01*
X121745889Y-75324222D01*
X121817318Y-75395651D01*
X121824506Y-75401551D01*
X121826129Y-75403422D01*
X121828947Y-75405196D01*
X121831524Y-75407311D01*
X121833813Y-75408259D01*
X121841683Y-75413213D01*
X121984540Y-75484641D01*
X122001705Y-75491209D01*
X122005063Y-75491447D01*
X122008176Y-75492737D01*
X122026466Y-75494538D01*
X122060691Y-75494538D01*
X121663949Y-76061312D01*
X121654936Y-76077328D01*
X121647024Y-76113042D01*
X121653381Y-76149064D01*
X121673039Y-76179913D01*
X121703006Y-76200890D01*
X121738720Y-76208802D01*
X121774742Y-76202445D01*
X121805591Y-76182787D01*
X121817555Y-76168836D01*
X122289563Y-75494538D01*
X122504145Y-75494538D01*
X122504145Y-76115074D01*
X122505946Y-76133364D01*
X122519945Y-76167159D01*
X122545810Y-76193024D01*
X122579605Y-76207023D01*
X122616185Y-76207023D01*
X122649980Y-76193024D01*
X122675845Y-76167159D01*
X122689844Y-76133364D01*
X122691645Y-76115074D01*
X122691645Y-75128775D01*
X124219436Y-75128775D01*
X124223892Y-75146606D01*
X124581035Y-76146605D01*
X124581785Y-76148195D01*
X124582278Y-76149892D01*
X124725135Y-76507035D01*
X124733600Y-76523348D01*
X124734006Y-76523764D01*
X124734229Y-76524302D01*
X124745889Y-76538508D01*
X124817318Y-76609937D01*
X124824506Y-76615837D01*
X124826129Y-76617708D01*
X124828947Y-76619482D01*
X124831524Y-76621597D01*
X124833813Y-76622545D01*
X124841683Y-76627499D01*
X124984540Y-76698927D01*
X125001705Y-76705495D01*
X125038192Y-76708088D01*
X125072894Y-76696521D01*
X125100529Y-76672554D01*
X125116888Y-76639836D01*
X125119480Y-76603348D01*
X125107913Y-76568646D01*
X125083946Y-76541012D01*
X125068392Y-76531221D01*
X124939140Y-76466595D01*
X124892079Y-76419534D01*
X124769543Y-76113194D01*
X124947444Y-75615074D01*
X125432716Y-75615074D01*
X125432716Y-75829360D01*
X125434517Y-75847650D01*
X125435806Y-75850762D01*
X125436045Y-75854122D01*
X125442613Y-75871286D01*
X125514041Y-76014143D01*
X125518994Y-76022012D01*
X125519943Y-76024302D01*
X125522057Y-76026878D01*
X125523832Y-76029697D01*
X125525703Y-76031319D01*
X125531603Y-76038508D01*
X125603032Y-76109937D01*
X125610220Y-76115837D01*
X125611843Y-76117708D01*
X125614661Y-76119482D01*
X125617238Y-76121597D01*
X125619527Y-76122545D01*
X125627397Y-76127499D01*
X125770254Y-76198927D01*
X125787419Y-76205495D01*
X125790777Y-76205733D01*
X125793890Y-76207023D01*
X125812180Y-76208824D01*
X126383609Y-76208824D01*
X126401899Y-76207023D01*
X126435694Y-76193024D01*
X126461559Y-76167159D01*
X126475558Y-76133364D01*
X126477359Y-76115074D01*
X126477359Y-74615074D01*
X126475558Y-74596784D01*
X126461559Y-74562989D01*
X126435694Y-74537124D01*
X126401899Y-74523125D01*
X126383609Y-74521324D01*
X125883609Y-74521324D01*
X125865319Y-74523125D01*
X125862206Y-74524414D01*
X125858847Y-74524653D01*
X125841682Y-74531222D01*
X125698825Y-74602651D01*
X125690955Y-74607604D01*
X125688668Y-74608552D01*
X125686092Y-74610665D01*
X125683272Y-74612441D01*
X125681649Y-74614311D01*
X125674461Y-74620211D01*
X125603032Y-74691639D01*
X125597132Y-74698828D01*
X125595261Y-74700451D01*
X125593484Y-74703272D01*
X125591373Y-74705846D01*
X125590426Y-74708131D01*
X125585470Y-74716005D01*
X125514042Y-74858861D01*
X125507473Y-74876026D01*
X125507234Y-74879385D01*
X125505945Y-74882498D01*
X125504144Y-74900788D01*
X125504144Y-75043646D01*
X125505945Y-75061936D01*
X125507234Y-75065048D01*
X125507473Y-75068408D01*
X125514042Y-75085573D01*
X125585470Y-75228429D01*
X125590426Y-75236302D01*
X125591373Y-75238588D01*
X125593484Y-75241161D01*
X125595261Y-75243983D01*
X125597132Y-75245605D01*
X125603032Y-75252795D01*
X125656484Y-75306246D01*
X125639677Y-75311849D01*
X125622895Y-75319341D01*
X125620350Y-75321547D01*
X125617238Y-75322837D01*
X125603032Y-75334497D01*
X125531603Y-75405926D01*
X125525703Y-75413114D01*
X125523832Y-75414737D01*
X125522057Y-75417555D01*
X125519943Y-75420132D01*
X125518994Y-75422421D01*
X125514041Y-75430291D01*
X125442613Y-75573148D01*
X125436045Y-75590312D01*
X125435806Y-75593671D01*
X125434517Y-75596784D01*
X125432716Y-75615074D01*
X124947444Y-75615074D01*
X125114754Y-75146606D01*
X125119210Y-75128775D01*
X125117393Y-75092241D01*
X125101734Y-75059183D01*
X125074616Y-75034633D01*
X125040167Y-75022330D01*
X125003633Y-75024147D01*
X124970575Y-75039806D01*
X124946025Y-75066924D01*
X124938178Y-75083543D01*
X124669323Y-75836335D01*
X124400468Y-75083542D01*
X124392621Y-75066924D01*
X124368071Y-75039806D01*
X124335013Y-75024147D01*
X124298479Y-75022330D01*
X124264030Y-75034633D01*
X124236912Y-75059183D01*
X124221253Y-75092241D01*
X124219436Y-75128775D01*
X122691645Y-75128775D01*
X122691645Y-74615074D01*
X122689844Y-74596784D01*
X122675845Y-74562989D01*
X122649980Y-74537124D01*
X122616185Y-74523125D01*
X122597895Y-74521324D01*
X122026466Y-74521324D01*
X122008176Y-74523125D01*
X122005063Y-74524414D01*
X122001704Y-74524653D01*
X121984539Y-74531222D01*
X121841682Y-74602651D01*
X121833812Y-74607604D01*
X121831525Y-74608552D01*
X121828949Y-74610665D01*
X121826129Y-74612441D01*
X121824506Y-74614311D01*
X121817318Y-74620211D01*
X121745889Y-74691639D01*
X121739989Y-74698827D01*
X121738118Y-74700451D01*
X121736341Y-74703272D01*
X121734230Y-74705846D01*
X121733283Y-74708131D01*
X121728327Y-74716005D01*
X121656899Y-74858862D01*
X121650331Y-74876026D01*
X121650092Y-74879385D01*
X121648803Y-74882498D01*
X121647002Y-74900788D01*
X115120216Y-74900788D01*
X115120216Y-74668214D01*
X119648803Y-74668214D01*
X119648803Y-74704793D01*
X119649727Y-74707023D01*
X119662801Y-74738588D01*
X119662806Y-74738593D01*
X119674461Y-74752795D01*
X119745890Y-74824223D01*
X119760091Y-74835877D01*
X119760096Y-74835882D01*
X119783993Y-74845779D01*
X119793891Y-74849880D01*
X119793892Y-74849880D01*
X119830470Y-74849880D01*
X119830471Y-74849880D01*
X119840368Y-74845779D01*
X119864266Y-74835882D01*
X119878472Y-74824222D01*
X119949900Y-74752795D01*
X119961559Y-74738588D01*
X119975557Y-74704793D01*
X119975557Y-74689136D01*
X119975558Y-74668214D01*
X119961560Y-74634419D01*
X119949901Y-74620212D01*
X119878473Y-74548783D01*
X119864271Y-74537128D01*
X119864266Y-74537123D01*
X119840368Y-74527225D01*
X119830471Y-74523125D01*
X119793891Y-74523125D01*
X119783993Y-74527225D01*
X119760096Y-74537123D01*
X119745890Y-74548783D01*
X119674461Y-74620212D01*
X119662801Y-74634418D01*
X119650169Y-74664917D01*
X119648803Y-74668214D01*
X115120216Y-74668214D01*
X115120216Y-74615074D01*
X115118415Y-74596784D01*
X115104416Y-74562989D01*
X115078551Y-74537124D01*
X115044756Y-74523125D01*
X115008176Y-74523125D01*
X114974381Y-74537124D01*
X114948516Y-74562989D01*
X114934517Y-74596784D01*
X114932716Y-74615074D01*
X114932716Y-75021324D01*
X114669323Y-75021324D01*
X114651033Y-75023125D01*
X114617238Y-75037124D01*
X114591373Y-75062989D01*
X114577374Y-75096784D01*
X113120216Y-75096784D01*
X113120216Y-74615074D01*
X113118415Y-74596784D01*
X113104416Y-74562989D01*
X113078551Y-74537124D01*
X113044756Y-74523125D01*
X113026466Y-74521324D01*
X112455037Y-74521324D01*
X112436747Y-74523125D01*
X112433634Y-74524414D01*
X112430275Y-74524653D01*
X112413110Y-74531222D01*
X112270253Y-74602651D01*
X112262383Y-74607604D01*
X112260096Y-74608552D01*
X112257520Y-74610665D01*
X112254700Y-74612441D01*
X112253077Y-74614311D01*
X112245889Y-74620211D01*
X112174460Y-74691639D01*
X112168560Y-74698827D01*
X112166689Y-74700451D01*
X112164912Y-74703272D01*
X112162801Y-74705846D01*
X112161854Y-74708131D01*
X112156898Y-74716005D01*
X112085470Y-74858862D01*
X112078902Y-74876026D01*
X112078663Y-74879385D01*
X112077374Y-74882498D01*
X112075573Y-74900788D01*
X108977359Y-74900788D01*
X108977359Y-74615074D01*
X108975558Y-74596784D01*
X108961559Y-74562989D01*
X108935694Y-74537124D01*
X108901899Y-74523125D01*
X108865319Y-74523125D01*
X108831524Y-74537124D01*
X108805659Y-74562989D01*
X108791660Y-74596784D01*
X108789859Y-74615074D01*
X108789859Y-75878656D01*
X108742302Y-75973768D01*
X108627397Y-76031221D01*
X108611843Y-76041012D01*
X108587877Y-76068646D01*
X108576309Y-76103348D01*
X108239257Y-76103348D01*
X108250770Y-76090074D01*
X108262337Y-76055372D01*
X108259745Y-76018884D01*
X108243386Y-75986166D01*
X108215751Y-75962199D01*
X108181049Y-75950632D01*
X108144562Y-75953225D01*
X108127397Y-75959793D01*
X108004334Y-76021324D01*
X107762884Y-76021324D01*
X107667772Y-75973768D01*
X107620216Y-75878656D01*
X107620216Y-75851491D01*
X107667771Y-75756380D01*
X107762884Y-75708824D01*
X107955038Y-75708824D01*
X107973328Y-75707023D01*
X107976440Y-75705733D01*
X107979800Y-75705495D01*
X107996964Y-75698927D01*
X108139821Y-75627499D01*
X108142881Y-75625572D01*
X108144323Y-75625092D01*
X108146118Y-75623534D01*
X108155375Y-75617708D01*
X108163077Y-75608826D01*
X108171957Y-75601126D01*
X108177781Y-75591873D01*
X108179342Y-75590074D01*
X108179823Y-75588629D01*
X108181748Y-75585572D01*
X108253176Y-75442713D01*
X108259745Y-75425549D01*
X108259983Y-75422187D01*
X108261272Y-75419078D01*
X108263073Y-75400788D01*
X108263073Y-75329360D01*
X108261272Y-75311070D01*
X108259982Y-75307957D01*
X108259744Y-75304599D01*
X108253176Y-75287434D01*
X108181748Y-75144577D01*
X108179820Y-75141515D01*
X108179341Y-75140076D01*
X108177785Y-75138282D01*
X108171957Y-75129023D01*
X108163075Y-75121320D01*
X108155375Y-75112441D01*
X108146118Y-75106614D01*
X108144323Y-75105057D01*
X108142881Y-75104576D01*
X108139821Y-75102650D01*
X107996965Y-75031222D01*
X107979800Y-75024653D01*
X107976440Y-75024414D01*
X107973328Y-75023125D01*
X107955038Y-75021324D01*
X107740752Y-75021324D01*
X107722462Y-75023125D01*
X107719349Y-75024414D01*
X107715990Y-75024653D01*
X107698825Y-75031222D01*
X107555968Y-75102651D01*
X107540415Y-75112441D01*
X107516448Y-75140076D01*
X107504881Y-75174777D01*
X107507474Y-75211265D01*
X107523833Y-75243983D01*
X107551468Y-75267950D01*
X107586169Y-75279517D01*
X107622657Y-75276924D01*
X107639822Y-75270355D01*
X107762884Y-75208824D01*
X107932907Y-75208824D01*
X108028017Y-75256379D01*
X108075573Y-75351491D01*
X108075573Y-75378656D01*
X108028017Y-75473768D01*
X107932906Y-75521324D01*
X107740752Y-75521324D01*
X107722462Y-75523125D01*
X107719349Y-75524414D01*
X107715990Y-75524653D01*
X107698825Y-75531222D01*
X107555968Y-75602651D01*
X107552908Y-75604576D01*
X107551468Y-75605057D01*
X107549673Y-75606612D01*
X107540415Y-75612441D01*
X107532712Y-75621322D01*
X107523833Y-75629023D01*
X107518006Y-75638278D01*
X107516448Y-75640076D01*
X107515967Y-75641518D01*
X107514042Y-75644577D01*
X107442614Y-75787433D01*
X107436045Y-75804598D01*
X107435806Y-75807957D01*
X107434517Y-75811070D01*
X107432716Y-75829360D01*
X105339280Y-75829360D01*
X105339280Y-72681868D01*
X105505947Y-72681868D01*
X105505947Y-72718448D01*
X105519946Y-72752243D01*
X105545811Y-72778108D01*
X105579606Y-72792107D01*
X105597896Y-72793908D01*
X105861289Y-72793908D01*
X105861289Y-73463740D01*
X105813732Y-73558852D01*
X105718621Y-73606408D01*
X105597896Y-73606408D01*
X105579606Y-73608209D01*
X105545811Y-73622208D01*
X105519946Y-73648073D01*
X105505947Y-73681868D01*
X105505947Y-73718448D01*
X105519946Y-73752243D01*
X105545811Y-73778108D01*
X105579606Y-73792107D01*
X105597896Y-73793908D01*
X105740753Y-73793908D01*
X105759043Y-73792107D01*
X105762155Y-73790817D01*
X105765515Y-73790579D01*
X105782679Y-73784011D01*
X105925536Y-73712583D01*
X105928594Y-73710657D01*
X105930037Y-73710177D01*
X105931834Y-73708618D01*
X105941090Y-73702792D01*
X105948792Y-73693910D01*
X105957672Y-73686210D01*
X105963496Y-73676957D01*
X105965057Y-73675158D01*
X105965538Y-73673713D01*
X105967463Y-73670656D01*
X106038892Y-73527798D01*
X106045460Y-73510634D01*
X106045698Y-73507274D01*
X106046988Y-73504162D01*
X106048789Y-73485872D01*
X106048789Y-72793908D01*
X106169324Y-72793908D01*
X106187614Y-72792107D01*
X106221409Y-72778108D01*
X106247274Y-72752243D01*
X106261273Y-72718448D01*
X106261273Y-72700158D01*
X106575575Y-72700158D01*
X106575575Y-73700158D01*
X106577376Y-73718448D01*
X106591375Y-73752243D01*
X106617240Y-73778108D01*
X106651035Y-73792107D01*
X106687615Y-73792107D01*
X106721410Y-73778108D01*
X106747275Y-73752243D01*
X106752572Y-73739455D01*
X106841684Y-73784011D01*
X106858849Y-73790579D01*
X106862207Y-73790817D01*
X106865320Y-73792107D01*
X106883610Y-73793908D01*
X107097896Y-73793908D01*
X107116186Y-73792107D01*
X107119298Y-73790817D01*
X107122658Y-73790579D01*
X107139822Y-73784011D01*
X107282679Y-73712583D01*
X107285737Y-73710657D01*
X107287180Y-73710177D01*
X107288977Y-73708618D01*
X107298233Y-73702792D01*
X107305935Y-73693910D01*
X107314815Y-73686210D01*
X107320639Y-73676957D01*
X107322200Y-73675158D01*
X107322681Y-73673713D01*
X107324606Y-73670656D01*
X107396035Y-73527798D01*
X107402603Y-73510634D01*
X107402841Y-73507274D01*
X107404131Y-73504162D01*
X107405932Y-73485872D01*
X107405932Y-72985872D01*
X107861289Y-72985872D01*
X107861289Y-73414444D01*
X107863090Y-73432734D01*
X107864379Y-73435846D01*
X107864618Y-73439206D01*
X107871187Y-73456371D01*
X107942615Y-73599227D01*
X107947569Y-73607098D01*
X107948517Y-73609385D01*
X107950630Y-73611960D01*
X107952406Y-73614781D01*
X107954276Y-73616403D01*
X107960176Y-73623592D01*
X108031604Y-73695021D01*
X108038793Y-73700920D01*
X108040416Y-73702792D01*
X108043237Y-73704568D01*
X108045811Y-73706680D01*
X108048096Y-73707626D01*
X108055970Y-73712583D01*
X108198827Y-73784011D01*
X108215992Y-73790579D01*
X108219350Y-73790817D01*
X108222463Y-73792107D01*
X108240753Y-73793908D01*
X108455039Y-73793908D01*
X108473329Y-73792107D01*
X108476441Y-73790817D01*
X108479801Y-73790579D01*
X108496965Y-73784011D01*
X108639822Y-73712583D01*
X108647691Y-73707629D01*
X108649981Y-73706681D01*
X108652557Y-73704566D01*
X108655376Y-73702792D01*
X108656998Y-73700920D01*
X108664144Y-73695056D01*
X109218571Y-73695056D01*
X109223744Y-73731267D01*
X109242381Y-73762743D01*
X109271645Y-73784691D01*
X109307080Y-73793769D01*
X109343291Y-73788596D01*
X109374767Y-73769959D01*
X109387182Y-73756408D01*
X109750896Y-73271455D01*
X109789861Y-73310419D01*
X109789861Y-73700158D01*
X109791662Y-73718448D01*
X109805661Y-73752243D01*
X109831526Y-73778108D01*
X109865321Y-73792107D01*
X109901901Y-73792107D01*
X109935696Y-73778108D01*
X109961561Y-73752243D01*
X109975560Y-73718448D01*
X109977361Y-73700158D01*
X109977361Y-72914444D01*
X110504147Y-72914444D01*
X110504147Y-73700158D01*
X110505948Y-73718448D01*
X110519947Y-73752243D01*
X110545812Y-73778108D01*
X110579607Y-73792107D01*
X110616187Y-73792107D01*
X110649982Y-73778108D01*
X110662328Y-73765761D01*
X110698828Y-73784011D01*
X110715993Y-73790579D01*
X110719351Y-73790817D01*
X110722464Y-73792107D01*
X110740754Y-73793908D01*
X111097897Y-73793908D01*
X111116187Y-73792107D01*
X111119299Y-73790817D01*
X111122659Y-73790579D01*
X111139823Y-73784011D01*
X111282680Y-73712583D01*
X111285740Y-73710656D01*
X111287182Y-73710176D01*
X111288977Y-73708618D01*
X111298234Y-73702792D01*
X111305936Y-73693910D01*
X111314816Y-73686210D01*
X111320640Y-73676957D01*
X111322201Y-73675158D01*
X111322682Y-73673713D01*
X111324607Y-73670656D01*
X111396035Y-73527797D01*
X111402604Y-73510633D01*
X111402842Y-73507271D01*
X111404131Y-73504162D01*
X111405932Y-73485872D01*
X111405932Y-73343015D01*
X111404131Y-73324725D01*
X111402841Y-73321612D01*
X111402603Y-73318254D01*
X111396035Y-73301089D01*
X111324607Y-73158232D01*
X111322682Y-73155174D01*
X111322201Y-73153730D01*
X111320640Y-73151930D01*
X111314816Y-73142678D01*
X111305936Y-73134977D01*
X111298234Y-73126096D01*
X111288977Y-73120269D01*
X111287182Y-73118712D01*
X111285740Y-73118231D01*
X111282680Y-73116305D01*
X111139823Y-73044877D01*
X111122659Y-73038309D01*
X111119299Y-73038070D01*
X111116187Y-73036781D01*
X111097897Y-73034980D01*
X110762886Y-73034980D01*
X110691647Y-72999360D01*
X110691647Y-72936575D01*
X110702712Y-72914444D01*
X111789861Y-72914444D01*
X111789861Y-73057301D01*
X111791662Y-73075591D01*
X111795177Y-73084078D01*
X111796960Y-73093087D01*
X111802108Y-73100810D01*
X111805661Y-73109386D01*
X111812154Y-73115879D01*
X111817250Y-73123523D01*
X111824964Y-73128689D01*
X111831526Y-73135251D01*
X111840010Y-73138765D01*
X111847643Y-73143877D01*
X111865225Y-73149230D01*
X111865317Y-73149248D01*
X111865321Y-73149250D01*
X111865325Y-73149250D01*
X112504146Y-73277015D01*
X112504146Y-73463740D01*
X112456590Y-73558852D01*
X112361479Y-73606408D01*
X112120028Y-73606408D01*
X111996965Y-73544877D01*
X111979801Y-73538309D01*
X111943313Y-73535716D01*
X111908611Y-73547284D01*
X111880977Y-73571250D01*
X111864618Y-73603968D01*
X111862025Y-73640456D01*
X111873593Y-73675158D01*
X111897559Y-73702792D01*
X111913113Y-73712583D01*
X112055970Y-73784011D01*
X112073135Y-73790579D01*
X112076493Y-73790817D01*
X112079606Y-73792107D01*
X112097896Y-73793908D01*
X112383611Y-73793908D01*
X112401901Y-73792107D01*
X112405013Y-73790817D01*
X112408373Y-73790579D01*
X112425537Y-73784011D01*
X112568394Y-73712583D01*
X112571454Y-73710656D01*
X112572896Y-73710176D01*
X112574691Y-73708618D01*
X112583948Y-73702792D01*
X112591650Y-73693910D01*
X112600530Y-73686210D01*
X112606354Y-73676957D01*
X112607915Y-73675158D01*
X112608396Y-73673713D01*
X112610321Y-73670656D01*
X112681749Y-73527797D01*
X112688318Y-73510633D01*
X112688556Y-73507271D01*
X112689845Y-73504162D01*
X112691646Y-73485872D01*
X112691646Y-73200261D01*
X112691647Y-73200256D01*
X112691646Y-73200250D01*
X112691646Y-72914444D01*
X112689845Y-72896154D01*
X112688555Y-72893041D01*
X112688317Y-72889683D01*
X112681749Y-72872518D01*
X112610321Y-72729661D01*
X112608393Y-72726599D01*
X112607914Y-72725160D01*
X112606358Y-72723366D01*
X112600530Y-72714107D01*
X112591648Y-72706404D01*
X112583948Y-72697525D01*
X112574691Y-72691698D01*
X112572896Y-72690141D01*
X112571454Y-72689660D01*
X112568394Y-72687734D01*
X112556662Y-72681868D01*
X112934518Y-72681868D01*
X112934518Y-72718448D01*
X112948517Y-72752243D01*
X112974382Y-72778108D01*
X113008177Y-72792107D01*
X113026467Y-72793908D01*
X113147192Y-72793908D01*
X113256649Y-72848636D01*
X113306561Y-72898549D01*
X113361289Y-73008004D01*
X113361289Y-73700158D01*
X113363090Y-73718448D01*
X113377089Y-73752243D01*
X113402954Y-73778108D01*
X113436749Y-73792107D01*
X113473329Y-73792107D01*
X113507124Y-73778108D01*
X113532989Y-73752243D01*
X113546988Y-73718448D01*
X113548789Y-73700158D01*
X113548789Y-73200158D01*
X114004146Y-73200158D01*
X114004146Y-73414444D01*
X114005947Y-73432734D01*
X114007236Y-73435846D01*
X114007475Y-73439206D01*
X114014043Y-73456370D01*
X114085471Y-73599227D01*
X114090424Y-73607096D01*
X114091373Y-73609386D01*
X114093487Y-73611962D01*
X114095262Y-73614781D01*
X114097133Y-73616403D01*
X114103033Y-73623592D01*
X114174462Y-73695021D01*
X114181650Y-73700921D01*
X114183273Y-73702792D01*
X114186091Y-73704566D01*
X114188668Y-73706681D01*
X114190957Y-73707629D01*
X114198827Y-73712583D01*
X114341684Y-73784011D01*
X114358849Y-73790579D01*
X114362207Y-73790817D01*
X114365320Y-73792107D01*
X114383610Y-73793908D01*
X114955039Y-73793908D01*
X114973329Y-73792107D01*
X115007124Y-73778108D01*
X115032989Y-73752243D01*
X115046988Y-73718448D01*
X115048789Y-73700158D01*
X115048789Y-72771587D01*
X116647002Y-72771587D01*
X116647002Y-73128730D01*
X116647315Y-73131917D01*
X116647112Y-73133287D01*
X116648125Y-73140139D01*
X116648803Y-73147020D01*
X116649332Y-73148297D01*
X116649801Y-73151468D01*
X116721230Y-73437182D01*
X116721712Y-73438531D01*
X116721760Y-73439206D01*
X116724664Y-73446794D01*
X116727413Y-73454489D01*
X116727817Y-73455035D01*
X116728329Y-73456371D01*
X116799757Y-73599227D01*
X116804711Y-73607098D01*
X116805659Y-73609385D01*
X116807772Y-73611960D01*
X116809548Y-73614781D01*
X116811418Y-73616403D01*
X116817318Y-73623592D01*
X116888746Y-73695021D01*
X116895935Y-73700920D01*
X116897558Y-73702792D01*
X116900379Y-73704568D01*
X116902953Y-73706680D01*
X116905238Y-73707626D01*
X116913112Y-73712583D01*
X117055969Y-73784011D01*
X117073134Y-73790579D01*
X117076492Y-73790817D01*
X117079605Y-73792107D01*
X117097895Y-73793908D01*
X117240752Y-73793908D01*
X117259042Y-73792107D01*
X117262154Y-73790817D01*
X117265513Y-73790579D01*
X117282678Y-73784011D01*
X117425536Y-73712583D01*
X117433409Y-73707626D01*
X117435695Y-73706680D01*
X117438268Y-73704568D01*
X117441090Y-73702792D01*
X117442713Y-73700920D01*
X117449902Y-73695021D01*
X117521330Y-73623592D01*
X117527229Y-73616403D01*
X117529100Y-73614781D01*
X117530875Y-73611960D01*
X117532989Y-73609385D01*
X117533936Y-73607097D01*
X117538890Y-73599228D01*
X117610319Y-73456371D01*
X117610830Y-73455035D01*
X117611235Y-73454489D01*
X117613983Y-73446794D01*
X117616888Y-73439206D01*
X117616935Y-73438531D01*
X117617418Y-73437182D01*
X117688846Y-73151468D01*
X117689314Y-73148297D01*
X117689844Y-73147020D01*
X117690521Y-73140139D01*
X117691535Y-73133287D01*
X117691331Y-73131917D01*
X117691645Y-73128730D01*
X117691645Y-72771587D01*
X118075573Y-72771587D01*
X118075573Y-73128730D01*
X118075886Y-73131917D01*
X118075683Y-73133287D01*
X118076696Y-73140139D01*
X118077374Y-73147020D01*
X118077903Y-73148297D01*
X118078372Y-73151468D01*
X118149801Y-73437182D01*
X118150283Y-73438531D01*
X118150331Y-73439206D01*
X118153235Y-73446794D01*
X118155984Y-73454489D01*
X118156388Y-73455035D01*
X118156900Y-73456371D01*
X118228328Y-73599227D01*
X118233282Y-73607098D01*
X118234230Y-73609385D01*
X118236343Y-73611960D01*
X118238119Y-73614781D01*
X118239989Y-73616403D01*
X118245889Y-73623592D01*
X118317317Y-73695021D01*
X118324506Y-73700920D01*
X118326129Y-73702792D01*
X118328950Y-73704568D01*
X118331524Y-73706680D01*
X118333809Y-73707626D01*
X118341683Y-73712583D01*
X118484540Y-73784011D01*
X118501705Y-73790579D01*
X118505063Y-73790817D01*
X118508176Y-73792107D01*
X118526466Y-73793908D01*
X118669323Y-73793908D01*
X118687613Y-73792107D01*
X118690725Y-73790817D01*
X118694084Y-73790579D01*
X118711249Y-73784011D01*
X118854107Y-73712583D01*
X118861980Y-73707626D01*
X118864266Y-73706680D01*
X118866839Y-73704568D01*
X118869661Y-73702792D01*
X118871284Y-73700920D01*
X118878473Y-73695021D01*
X118949901Y-73623592D01*
X118955800Y-73616403D01*
X118957671Y-73614781D01*
X118959446Y-73611960D01*
X118961560Y-73609385D01*
X118962507Y-73607097D01*
X118967461Y-73599228D01*
X119038890Y-73456371D01*
X119039401Y-73455035D01*
X119039806Y-73454489D01*
X119042554Y-73446794D01*
X119045459Y-73439206D01*
X119045506Y-73438531D01*
X119045989Y-73437182D01*
X119117417Y-73151468D01*
X119117885Y-73148297D01*
X119118415Y-73147020D01*
X119119092Y-73140139D01*
X119120106Y-73133287D01*
X119119902Y-73131917D01*
X119120216Y-73128730D01*
X119120216Y-73057301D01*
X119504144Y-73057301D01*
X119504144Y-73414444D01*
X119505945Y-73432734D01*
X119507234Y-73435846D01*
X119507473Y-73439206D01*
X119514042Y-73456371D01*
X119585470Y-73599227D01*
X119590423Y-73607096D01*
X119591372Y-73609386D01*
X119593486Y-73611962D01*
X119595261Y-73614781D01*
X119597131Y-73616403D01*
X119603032Y-73623592D01*
X119674461Y-73695021D01*
X119681649Y-73700921D01*
X119683272Y-73702792D01*
X119686090Y-73704566D01*
X119688667Y-73706681D01*
X119690956Y-73707629D01*
X119698826Y-73712583D01*
X119841683Y-73784011D01*
X119858848Y-73790579D01*
X119862206Y-73790817D01*
X119865319Y-73792107D01*
X119883609Y-73793908D01*
X120312180Y-73793908D01*
X120330470Y-73792107D01*
X120333582Y-73790817D01*
X120336942Y-73790579D01*
X120354106Y-73784011D01*
X120496963Y-73712583D01*
X120504832Y-73707629D01*
X120507122Y-73706681D01*
X120509698Y-73704566D01*
X120512517Y-73702792D01*
X120514139Y-73700920D01*
X120521328Y-73695021D01*
X120534481Y-73681868D01*
X120934516Y-73681868D01*
X120934516Y-73718448D01*
X120948515Y-73752243D01*
X120974380Y-73778108D01*
X121008175Y-73792107D01*
X121026465Y-73793908D01*
X121883608Y-73793908D01*
X121901898Y-73792107D01*
X121935693Y-73778108D01*
X121961558Y-73752243D01*
X121975557Y-73718448D01*
X121975557Y-73681868D01*
X121961558Y-73648073D01*
X121935693Y-73622208D01*
X121901898Y-73608209D01*
X121883608Y-73606408D01*
X121548787Y-73606408D01*
X121548787Y-72497919D01*
X121674460Y-72623592D01*
X121681648Y-72629492D01*
X121683271Y-72631363D01*
X121686088Y-72633136D01*
X121688666Y-72635252D01*
X121690956Y-72636200D01*
X121698824Y-72641153D01*
X121841681Y-72712582D01*
X121858846Y-72719151D01*
X121895333Y-72721744D01*
X121930035Y-72710177D01*
X121957670Y-72686210D01*
X121974029Y-72653492D01*
X121976622Y-72617004D01*
X121965054Y-72582303D01*
X121941088Y-72554668D01*
X121925534Y-72544877D01*
X121796284Y-72480252D01*
X121670751Y-72354719D01*
X121567711Y-72200158D01*
X122432716Y-72200158D01*
X122432716Y-73700158D01*
X122434517Y-73718448D01*
X122448516Y-73752243D01*
X122474381Y-73778108D01*
X122508176Y-73792107D01*
X122544756Y-73792107D01*
X122578551Y-73778108D01*
X122604416Y-73752243D01*
X122618415Y-73718448D01*
X122620216Y-73700158D01*
X122620216Y-72622742D01*
X122941511Y-73311233D01*
X122945480Y-73317934D01*
X122946304Y-73320198D01*
X122947770Y-73321799D01*
X122950878Y-73327045D01*
X122961387Y-73336669D01*
X122971008Y-73347175D01*
X122974782Y-73348936D01*
X122977855Y-73351750D01*
X122991244Y-73356618D01*
X123004156Y-73362644D01*
X123008318Y-73362826D01*
X123012232Y-73364250D01*
X123026470Y-73363624D01*
X123040701Y-73364250D01*
X123044611Y-73362827D01*
X123048776Y-73362645D01*
X123061698Y-73356614D01*
X123075077Y-73351749D01*
X123078146Y-73348937D01*
X123081924Y-73347175D01*
X123091548Y-73336665D01*
X123102054Y-73327045D01*
X123105159Y-73321803D01*
X123106629Y-73320198D01*
X123107454Y-73317928D01*
X123111421Y-73311232D01*
X123432716Y-72622742D01*
X123432716Y-73700158D01*
X123434517Y-73718448D01*
X123448516Y-73752243D01*
X123474381Y-73778108D01*
X123508176Y-73792107D01*
X123544756Y-73792107D01*
X123578551Y-73778108D01*
X123604416Y-73752243D01*
X123618415Y-73718448D01*
X123620216Y-73700158D01*
X123620216Y-72485872D01*
X124075573Y-72485872D01*
X124075573Y-72700158D01*
X124077374Y-72718448D01*
X124078663Y-72721560D01*
X124078902Y-72724920D01*
X124085470Y-72742084D01*
X124156898Y-72884941D01*
X124161851Y-72892810D01*
X124162800Y-72895100D01*
X124164914Y-72897676D01*
X124166689Y-72900495D01*
X124168560Y-72902117D01*
X124174460Y-72909306D01*
X124245889Y-72980735D01*
X124253077Y-72986635D01*
X124254700Y-72988506D01*
X124257518Y-72990280D01*
X124260095Y-72992395D01*
X124262384Y-72993343D01*
X124270254Y-72998297D01*
X124413111Y-73069725D01*
X124430276Y-73076293D01*
X124433634Y-73076531D01*
X124436747Y-73077821D01*
X124455037Y-73079622D01*
X124932716Y-73079622D01*
X124932716Y-73700158D01*
X124934517Y-73718448D01*
X124948516Y-73752243D01*
X124974381Y-73778108D01*
X125008176Y-73792107D01*
X125044756Y-73792107D01*
X125078551Y-73778108D01*
X125104416Y-73752243D01*
X125118415Y-73718448D01*
X125120216Y-73700158D01*
X125120216Y-72914444D01*
X125647002Y-72914444D01*
X125647002Y-73700158D01*
X125648803Y-73718448D01*
X125662802Y-73752243D01*
X125688667Y-73778108D01*
X125722462Y-73792107D01*
X125759042Y-73792107D01*
X125792837Y-73778108D01*
X125818702Y-73752243D01*
X125832701Y-73718448D01*
X125834502Y-73700158D01*
X125834502Y-72936575D01*
X125882057Y-72841463D01*
X125977169Y-72793908D01*
X126147192Y-72793908D01*
X126256645Y-72848635D01*
X126289859Y-72881848D01*
X126289859Y-73700158D01*
X126291660Y-73718448D01*
X126305659Y-73752243D01*
X126331524Y-73778108D01*
X126365319Y-73792107D01*
X126401899Y-73792107D01*
X126435694Y-73778108D01*
X126461559Y-73752243D01*
X126475558Y-73718448D01*
X126477359Y-73700158D01*
X126477359Y-72700158D01*
X126475558Y-72681868D01*
X126461559Y-72648073D01*
X126435694Y-72622208D01*
X126401899Y-72608209D01*
X126365319Y-72608209D01*
X126331524Y-72622208D01*
X126305659Y-72648073D01*
X126300361Y-72660861D01*
X126211250Y-72616306D01*
X126194085Y-72609737D01*
X126190725Y-72609498D01*
X126187613Y-72608209D01*
X126169323Y-72606408D01*
X125955037Y-72606408D01*
X125936747Y-72608209D01*
X125933634Y-72609498D01*
X125930275Y-72609737D01*
X125913110Y-72616306D01*
X125770253Y-72687735D01*
X125767197Y-72689658D01*
X125765752Y-72690140D01*
X125763951Y-72691701D01*
X125754700Y-72697525D01*
X125746999Y-72706404D01*
X125738118Y-72714107D01*
X125732291Y-72723362D01*
X125730733Y-72725160D01*
X125730252Y-72726602D01*
X125728327Y-72729661D01*
X125656899Y-72872518D01*
X125650331Y-72889682D01*
X125650092Y-72893041D01*
X125648803Y-72896154D01*
X125647002Y-72914444D01*
X125120216Y-72914444D01*
X125120216Y-72200158D01*
X125118415Y-72181868D01*
X125104416Y-72148073D01*
X125078551Y-72122208D01*
X125044756Y-72108209D01*
X125026466Y-72106408D01*
X124455037Y-72106408D01*
X124436747Y-72108209D01*
X124433634Y-72109498D01*
X124430275Y-72109737D01*
X124413110Y-72116306D01*
X124270253Y-72187735D01*
X124262383Y-72192688D01*
X124260096Y-72193636D01*
X124257520Y-72195749D01*
X124254700Y-72197525D01*
X124253077Y-72199395D01*
X124245889Y-72205295D01*
X124174460Y-72276723D01*
X124168560Y-72283911D01*
X124166689Y-72285535D01*
X124164912Y-72288356D01*
X124162801Y-72290930D01*
X124161854Y-72293215D01*
X124156898Y-72301089D01*
X124085470Y-72443946D01*
X124078902Y-72461110D01*
X124078663Y-72464469D01*
X124077374Y-72467582D01*
X124075573Y-72485872D01*
X123620216Y-72485872D01*
X123620216Y-72200158D01*
X123619031Y-72188132D01*
X123619129Y-72185923D01*
X123618697Y-72184736D01*
X123618415Y-72181868D01*
X123612190Y-72166840D01*
X123606629Y-72151547D01*
X123605215Y-72150003D01*
X123604416Y-72148073D01*
X123592917Y-72136574D01*
X123581924Y-72124570D01*
X123580028Y-72123685D01*
X123578551Y-72122208D01*
X123563533Y-72115987D01*
X123548776Y-72109100D01*
X123546685Y-72109008D01*
X123544756Y-72108209D01*
X123528489Y-72108209D01*
X123512232Y-72107495D01*
X123510268Y-72108209D01*
X123508176Y-72108209D01*
X123493145Y-72114435D01*
X123477855Y-72119995D01*
X123476311Y-72121408D01*
X123474381Y-72122208D01*
X123462882Y-72133706D01*
X123450878Y-72144700D01*
X123449408Y-72147180D01*
X123448516Y-72148073D01*
X123447670Y-72150115D01*
X123441511Y-72160512D01*
X123026465Y-73049895D01*
X122611421Y-72160513D01*
X122605262Y-72150116D01*
X122604416Y-72148073D01*
X122603523Y-72147180D01*
X122602054Y-72144700D01*
X122590054Y-72133711D01*
X122578551Y-72122208D01*
X122576618Y-72121407D01*
X122575077Y-72119996D01*
X122559794Y-72114438D01*
X122544756Y-72108209D01*
X122542664Y-72108209D01*
X122540701Y-72107495D01*
X122524454Y-72108209D01*
X122508176Y-72108209D01*
X122506244Y-72109009D01*
X122504156Y-72109101D01*
X122489408Y-72115982D01*
X122474381Y-72122208D01*
X122472903Y-72123685D01*
X122471008Y-72124570D01*
X122460019Y-72136569D01*
X122448516Y-72148073D01*
X122447715Y-72150005D01*
X122446304Y-72151547D01*
X122440746Y-72166829D01*
X122434517Y-72181868D01*
X122434234Y-72184736D01*
X122433803Y-72185923D01*
X122433900Y-72188132D01*
X122432716Y-72200158D01*
X121567711Y-72200158D01*
X121533042Y-72148155D01*
X121532999Y-72148103D01*
X121532987Y-72148073D01*
X121532919Y-72148005D01*
X121521398Y-72133936D01*
X121513684Y-72128770D01*
X121507122Y-72122208D01*
X121498635Y-72118692D01*
X121491004Y-72113582D01*
X121481904Y-72111761D01*
X121473327Y-72108209D01*
X121464140Y-72108209D01*
X121455136Y-72106408D01*
X121446031Y-72108209D01*
X121436747Y-72108209D01*
X121428262Y-72111723D01*
X121419251Y-72113506D01*
X121411524Y-72118656D01*
X121402952Y-72122208D01*
X121396459Y-72128700D01*
X121388815Y-72133797D01*
X121383649Y-72141510D01*
X121377087Y-72148073D01*
X121373571Y-72156559D01*
X121368461Y-72164191D01*
X121366640Y-72173290D01*
X121363088Y-72181868D01*
X121361306Y-72199962D01*
X121361287Y-72200059D01*
X121361293Y-72200091D01*
X121361287Y-72200158D01*
X121361287Y-73606408D01*
X121026465Y-73606408D01*
X121008175Y-73608209D01*
X120974380Y-73622208D01*
X120948515Y-73648073D01*
X120934516Y-73681868D01*
X120534481Y-73681868D01*
X120592757Y-73623592D01*
X120604417Y-73609386D01*
X120618415Y-73575590D01*
X120618415Y-73539012D01*
X120604417Y-73505216D01*
X120578551Y-73479350D01*
X120544755Y-73465352D01*
X120508177Y-73465352D01*
X120474381Y-73479350D01*
X120460175Y-73491010D01*
X120399505Y-73551679D01*
X120290048Y-73606408D01*
X119905741Y-73606408D01*
X119796283Y-73551679D01*
X119746371Y-73501767D01*
X119691644Y-73392312D01*
X119691644Y-73079432D01*
X119746371Y-72969977D01*
X119796283Y-72920065D01*
X119905741Y-72865337D01*
X120097894Y-72865337D01*
X120107569Y-72864384D01*
X120110026Y-72864548D01*
X120111718Y-72863975D01*
X120116184Y-72863536D01*
X120130262Y-72857704D01*
X120144678Y-72852829D01*
X120147056Y-72850747D01*
X120149979Y-72849537D01*
X120160750Y-72838765D01*
X120172207Y-72828741D01*
X120173607Y-72825908D01*
X120175844Y-72823672D01*
X120181674Y-72809595D01*
X120188422Y-72795952D01*
X120188632Y-72792800D01*
X120189843Y-72789877D01*
X120189843Y-72774635D01*
X120190855Y-72759454D01*
X120189843Y-72756461D01*
X120189843Y-72753297D01*
X120184012Y-72739222D01*
X120179136Y-72724802D01*
X120176528Y-72721155D01*
X120175844Y-72719502D01*
X120174100Y-72717758D01*
X120168448Y-72709852D01*
X119804497Y-72293908D01*
X120526466Y-72293908D01*
X120544756Y-72292107D01*
X120578551Y-72278108D01*
X120604416Y-72252243D01*
X120618415Y-72218448D01*
X120618415Y-72181868D01*
X120604416Y-72148073D01*
X120578551Y-72122208D01*
X120544756Y-72108209D01*
X120526466Y-72106408D01*
X119597894Y-72106408D01*
X119588224Y-72107360D01*
X119585762Y-72107196D01*
X119584065Y-72107769D01*
X119579604Y-72108209D01*
X119565538Y-72114035D01*
X119551110Y-72118915D01*
X119548728Y-72120998D01*
X119545809Y-72122208D01*
X119535045Y-72132971D01*
X119523581Y-72143003D01*
X119522179Y-72145837D01*
X119519944Y-72148073D01*
X119514114Y-72162147D01*
X119507366Y-72175793D01*
X119507155Y-72178945D01*
X119505945Y-72181868D01*
X119505945Y-72197100D01*
X119504932Y-72212290D01*
X119505945Y-72215285D01*
X119505945Y-72218448D01*
X119511771Y-72232513D01*
X119516651Y-72246942D01*
X119519259Y-72250590D01*
X119519944Y-72252243D01*
X119521687Y-72253986D01*
X119527340Y-72261893D01*
X119891291Y-72677837D01*
X119883609Y-72677837D01*
X119865319Y-72679638D01*
X119862206Y-72680927D01*
X119858848Y-72681166D01*
X119841683Y-72687734D01*
X119698826Y-72759162D01*
X119690956Y-72764115D01*
X119688667Y-72765064D01*
X119686090Y-72767178D01*
X119683272Y-72768953D01*
X119681649Y-72770823D01*
X119674461Y-72776724D01*
X119603032Y-72848153D01*
X119597131Y-72855341D01*
X119595261Y-72856964D01*
X119593486Y-72859782D01*
X119591372Y-72862359D01*
X119590423Y-72864648D01*
X119585470Y-72872518D01*
X119514042Y-73015374D01*
X119507473Y-73032539D01*
X119507234Y-73035898D01*
X119505945Y-73039011D01*
X119504144Y-73057301D01*
X119120216Y-73057301D01*
X119120216Y-72771587D01*
X119119902Y-72768399D01*
X119120106Y-72767030D01*
X119119092Y-72760177D01*
X119118415Y-72753297D01*
X119117885Y-72752019D01*
X119117417Y-72748849D01*
X119045989Y-72463135D01*
X119045507Y-72461785D01*
X119045459Y-72461110D01*
X119042552Y-72453514D01*
X119039806Y-72445827D01*
X119039401Y-72445280D01*
X119038890Y-72443945D01*
X118967461Y-72301088D01*
X118962505Y-72293215D01*
X118961559Y-72290930D01*
X118959446Y-72288356D01*
X118957671Y-72285535D01*
X118955799Y-72283912D01*
X118949900Y-72276723D01*
X118878472Y-72205296D01*
X118871283Y-72199395D01*
X118869661Y-72197525D01*
X118866842Y-72195750D01*
X118864266Y-72193636D01*
X118861976Y-72192687D01*
X118854107Y-72187734D01*
X118711249Y-72116305D01*
X118694085Y-72109737D01*
X118690725Y-72109498D01*
X118687613Y-72108209D01*
X118669323Y-72106408D01*
X118526466Y-72106408D01*
X118508176Y-72108209D01*
X118505063Y-72109498D01*
X118501704Y-72109737D01*
X118484539Y-72116306D01*
X118341682Y-72187735D01*
X118333809Y-72192690D01*
X118331524Y-72193637D01*
X118328950Y-72195749D01*
X118326129Y-72197525D01*
X118324506Y-72199396D01*
X118317317Y-72205296D01*
X118245890Y-72276724D01*
X118239989Y-72283912D01*
X118238119Y-72285535D01*
X118236344Y-72288353D01*
X118234230Y-72290930D01*
X118233281Y-72293219D01*
X118228328Y-72301089D01*
X118156900Y-72443945D01*
X118156388Y-72445280D01*
X118155984Y-72445827D01*
X118153237Y-72453514D01*
X118150331Y-72461110D01*
X118150282Y-72461785D01*
X118149801Y-72463135D01*
X118078372Y-72748849D01*
X118077903Y-72752019D01*
X118077374Y-72753297D01*
X118076696Y-72760177D01*
X118075683Y-72767030D01*
X118075886Y-72768399D01*
X118075573Y-72771587D01*
X117691645Y-72771587D01*
X117691331Y-72768399D01*
X117691535Y-72767030D01*
X117690521Y-72760177D01*
X117689844Y-72753297D01*
X117689314Y-72752019D01*
X117688846Y-72748849D01*
X117617418Y-72463135D01*
X117616936Y-72461785D01*
X117616888Y-72461110D01*
X117613981Y-72453514D01*
X117611235Y-72445827D01*
X117610830Y-72445280D01*
X117610319Y-72443945D01*
X117538890Y-72301088D01*
X117533934Y-72293215D01*
X117532988Y-72290930D01*
X117530875Y-72288356D01*
X117529100Y-72285535D01*
X117527228Y-72283912D01*
X117521329Y-72276723D01*
X117449901Y-72205296D01*
X117442712Y-72199395D01*
X117441090Y-72197525D01*
X117438271Y-72195750D01*
X117435695Y-72193636D01*
X117433405Y-72192687D01*
X117425536Y-72187734D01*
X117282678Y-72116305D01*
X117265514Y-72109737D01*
X117262154Y-72109498D01*
X117259042Y-72108209D01*
X117240752Y-72106408D01*
X117097895Y-72106408D01*
X117079605Y-72108209D01*
X117076492Y-72109498D01*
X117073133Y-72109737D01*
X117055968Y-72116306D01*
X116913111Y-72187735D01*
X116905238Y-72192690D01*
X116902953Y-72193637D01*
X116900379Y-72195749D01*
X116897558Y-72197525D01*
X116895935Y-72199396D01*
X116888746Y-72205296D01*
X116817319Y-72276724D01*
X116811418Y-72283912D01*
X116809548Y-72285535D01*
X116807773Y-72288353D01*
X116805659Y-72290930D01*
X116804710Y-72293219D01*
X116799757Y-72301089D01*
X116728329Y-72443945D01*
X116727817Y-72445280D01*
X116727413Y-72445827D01*
X116724666Y-72453514D01*
X116721760Y-72461110D01*
X116721711Y-72461785D01*
X116721230Y-72463135D01*
X116649801Y-72748849D01*
X116649332Y-72752019D01*
X116648803Y-72753297D01*
X116648125Y-72760177D01*
X116647112Y-72767030D01*
X116647315Y-72768399D01*
X116647002Y-72771587D01*
X115048789Y-72771587D01*
X115048789Y-72200158D01*
X115046988Y-72181868D01*
X115032989Y-72148073D01*
X115007124Y-72122208D01*
X114973329Y-72108209D01*
X114955039Y-72106408D01*
X114455039Y-72106408D01*
X114436749Y-72108209D01*
X114433636Y-72109498D01*
X114430277Y-72109737D01*
X114413112Y-72116306D01*
X114270255Y-72187735D01*
X114262385Y-72192688D01*
X114260098Y-72193636D01*
X114257522Y-72195749D01*
X114254702Y-72197525D01*
X114253079Y-72199395D01*
X114245891Y-72205295D01*
X114174462Y-72276723D01*
X114168562Y-72283912D01*
X114166691Y-72285535D01*
X114164914Y-72288356D01*
X114162803Y-72290930D01*
X114161856Y-72293215D01*
X114156900Y-72301089D01*
X114085472Y-72443945D01*
X114078903Y-72461110D01*
X114078664Y-72464469D01*
X114077375Y-72467582D01*
X114075574Y-72485872D01*
X114075574Y-72628730D01*
X114077375Y-72647020D01*
X114078664Y-72650132D01*
X114078903Y-72653492D01*
X114085472Y-72670657D01*
X114156900Y-72813513D01*
X114161856Y-72821386D01*
X114162803Y-72823672D01*
X114164914Y-72826245D01*
X114166691Y-72829067D01*
X114168562Y-72830689D01*
X114174462Y-72837879D01*
X114227914Y-72891330D01*
X114211107Y-72896933D01*
X114194325Y-72904425D01*
X114191780Y-72906631D01*
X114188668Y-72907921D01*
X114174462Y-72919581D01*
X114103033Y-72991010D01*
X114097133Y-72998198D01*
X114095262Y-72999821D01*
X114093487Y-73002639D01*
X114091373Y-73005216D01*
X114090424Y-73007505D01*
X114085471Y-73015375D01*
X114014043Y-73158232D01*
X114007475Y-73175396D01*
X114007236Y-73178755D01*
X114005947Y-73181868D01*
X114004146Y-73200158D01*
X113548789Y-73200158D01*
X113548789Y-72700158D01*
X113546988Y-72681868D01*
X113532989Y-72648073D01*
X113507124Y-72622208D01*
X113473329Y-72608209D01*
X113436749Y-72608209D01*
X113402954Y-72622208D01*
X113377089Y-72648073D01*
X113363090Y-72681868D01*
X113362022Y-72692706D01*
X113361977Y-72692687D01*
X113354108Y-72687734D01*
X113211250Y-72616305D01*
X113194086Y-72609737D01*
X113190726Y-72609498D01*
X113187614Y-72608209D01*
X113169324Y-72606408D01*
X113026467Y-72606408D01*
X113008177Y-72608209D01*
X112974382Y-72622208D01*
X112948517Y-72648073D01*
X112934518Y-72681868D01*
X112556662Y-72681868D01*
X112425538Y-72616306D01*
X112408373Y-72609737D01*
X112405013Y-72609498D01*
X112401901Y-72608209D01*
X112383611Y-72606408D01*
X112097896Y-72606408D01*
X112079606Y-72608209D01*
X112076493Y-72609498D01*
X112073134Y-72609737D01*
X112055969Y-72616306D01*
X111913112Y-72687735D01*
X111910056Y-72689658D01*
X111908611Y-72690140D01*
X111906810Y-72691701D01*
X111897559Y-72697525D01*
X111889858Y-72706404D01*
X111880977Y-72714107D01*
X111875150Y-72723362D01*
X111873592Y-72725160D01*
X111873111Y-72726602D01*
X111871186Y-72729661D01*
X111799758Y-72872518D01*
X111793190Y-72889682D01*
X111792951Y-72893041D01*
X111791662Y-72896154D01*
X111789861Y-72914444D01*
X110702712Y-72914444D01*
X110739202Y-72841463D01*
X110834314Y-72793908D01*
X111075766Y-72793908D01*
X111198827Y-72855439D01*
X111215992Y-72862008D01*
X111252479Y-72864601D01*
X111287181Y-72853034D01*
X111314816Y-72829067D01*
X111331175Y-72796349D01*
X111333768Y-72759861D01*
X111322200Y-72725160D01*
X111298234Y-72697525D01*
X111282680Y-72687734D01*
X111139824Y-72616306D01*
X111122659Y-72609737D01*
X111119299Y-72609498D01*
X111116187Y-72608209D01*
X111097897Y-72606408D01*
X110812182Y-72606408D01*
X110793892Y-72608209D01*
X110790779Y-72609498D01*
X110787420Y-72609737D01*
X110770255Y-72616306D01*
X110627398Y-72687735D01*
X110624342Y-72689658D01*
X110622897Y-72690140D01*
X110621096Y-72691701D01*
X110611845Y-72697525D01*
X110604144Y-72706404D01*
X110595263Y-72714107D01*
X110589436Y-72723362D01*
X110587878Y-72725160D01*
X110587397Y-72726602D01*
X110585472Y-72729661D01*
X110514044Y-72872518D01*
X110507476Y-72889682D01*
X110507237Y-72893041D01*
X110505948Y-72896154D01*
X110504147Y-72914444D01*
X109977361Y-72914444D01*
X109977361Y-72200158D01*
X109975560Y-72181868D01*
X109961561Y-72148073D01*
X109935696Y-72122208D01*
X109901901Y-72108209D01*
X109865321Y-72108209D01*
X109831526Y-72122208D01*
X109805661Y-72148073D01*
X109791662Y-72181868D01*
X109789861Y-72200158D01*
X109789861Y-73045254D01*
X109378473Y-72633867D01*
X109364267Y-72622207D01*
X109330471Y-72608209D01*
X109293893Y-72608209D01*
X109260097Y-72622207D01*
X109234231Y-72648073D01*
X109220233Y-72681869D01*
X109220233Y-72718447D01*
X109234231Y-72752243D01*
X109245891Y-72766449D01*
X109616968Y-73137527D01*
X109237182Y-73643908D01*
X109227649Y-73659621D01*
X109218571Y-73695056D01*
X108664144Y-73695056D01*
X108664187Y-73695021D01*
X108735616Y-73623592D01*
X108741516Y-73616403D01*
X108743387Y-73614781D01*
X108745161Y-73611962D01*
X108747276Y-73609386D01*
X108748224Y-73607096D01*
X108753178Y-73599227D01*
X108824606Y-73456370D01*
X108831174Y-73439205D01*
X108831412Y-73435846D01*
X108832702Y-73432734D01*
X108834503Y-73414444D01*
X108834503Y-72985872D01*
X108832702Y-72967582D01*
X108831412Y-72964469D01*
X108831174Y-72961111D01*
X108824606Y-72943946D01*
X108753178Y-72801089D01*
X108748221Y-72793215D01*
X108747275Y-72790930D01*
X108745163Y-72788356D01*
X108743387Y-72785535D01*
X108741515Y-72783912D01*
X108735616Y-72776723D01*
X108664187Y-72705295D01*
X108656998Y-72699395D01*
X108655376Y-72697525D01*
X108652555Y-72695749D01*
X108649980Y-72693636D01*
X108647693Y-72692688D01*
X108639822Y-72687734D01*
X108496966Y-72616306D01*
X108479801Y-72609737D01*
X108476441Y-72609498D01*
X108473329Y-72608209D01*
X108455039Y-72606408D01*
X108240753Y-72606408D01*
X108222463Y-72608209D01*
X108219350Y-72609498D01*
X108215991Y-72609737D01*
X108198826Y-72616306D01*
X108055969Y-72687735D01*
X108048096Y-72692690D01*
X108045811Y-72693637D01*
X108043237Y-72695749D01*
X108040416Y-72697525D01*
X108038793Y-72699396D01*
X108031604Y-72705296D01*
X107960177Y-72776724D01*
X107954276Y-72783912D01*
X107952406Y-72785535D01*
X107950631Y-72788353D01*
X107948517Y-72790930D01*
X107947568Y-72793219D01*
X107942615Y-72801089D01*
X107871187Y-72943945D01*
X107864618Y-72961110D01*
X107864379Y-72964469D01*
X107863090Y-72967582D01*
X107861289Y-72985872D01*
X107405932Y-72985872D01*
X107405932Y-72700158D01*
X107404131Y-72681868D01*
X107390132Y-72648073D01*
X107364267Y-72622208D01*
X107330472Y-72608209D01*
X107293892Y-72608209D01*
X107260097Y-72622208D01*
X107234232Y-72648073D01*
X107220233Y-72681868D01*
X107218432Y-72700158D01*
X107218432Y-73463740D01*
X107170875Y-73558852D01*
X107075764Y-73606408D01*
X106905742Y-73606408D01*
X106796287Y-73551681D01*
X106763075Y-73518468D01*
X106763075Y-72700158D01*
X106761274Y-72681868D01*
X106747275Y-72648073D01*
X106721410Y-72622208D01*
X106687615Y-72608209D01*
X106651035Y-72608209D01*
X106617240Y-72622208D01*
X106591375Y-72648073D01*
X106577376Y-72681868D01*
X106575575Y-72700158D01*
X106261273Y-72700158D01*
X106261273Y-72681868D01*
X106247274Y-72648073D01*
X106221409Y-72622208D01*
X106187614Y-72608209D01*
X106169324Y-72606408D01*
X106048789Y-72606408D01*
X106048789Y-72200158D01*
X106046988Y-72181868D01*
X106032989Y-72148073D01*
X106007124Y-72122208D01*
X105973329Y-72108209D01*
X105936749Y-72108209D01*
X105902954Y-72122208D01*
X105877089Y-72148073D01*
X105863090Y-72181868D01*
X105861289Y-72200158D01*
X105861289Y-72606408D01*
X105597896Y-72606408D01*
X105579606Y-72608209D01*
X105545811Y-72622208D01*
X105519946Y-72648073D01*
X105505947Y-72681868D01*
X105339280Y-72681868D01*
X105339280Y-71939741D01*
X126644026Y-71939741D01*
X126644026Y-76874755D01*
G37*
D11*
X109844348Y-86098779D02*
X109844348Y-86813064D01*
X109844348Y-86813064D02*
X109891967Y-86955921D01*
X109891967Y-86955921D02*
X109987205Y-87051160D01*
X109987205Y-87051160D02*
X110130062Y-87098779D01*
X110130062Y-87098779D02*
X110225300Y-87098779D01*
X108891967Y-87098779D02*
X109368157Y-87098779D01*
X109368157Y-87098779D02*
X109368157Y-86098779D01*
X107987205Y-87003540D02*
X108034824Y-87051160D01*
X108034824Y-87051160D02*
X108177681Y-87098779D01*
X108177681Y-87098779D02*
X108272919Y-87098779D01*
X108272919Y-87098779D02*
X108415776Y-87051160D01*
X108415776Y-87051160D02*
X108511014Y-86955921D01*
X108511014Y-86955921D02*
X108558633Y-86860683D01*
X108558633Y-86860683D02*
X108606252Y-86670207D01*
X108606252Y-86670207D02*
X108606252Y-86527350D01*
X108606252Y-86527350D02*
X108558633Y-86336874D01*
X108558633Y-86336874D02*
X108511014Y-86241636D01*
X108511014Y-86241636D02*
X108415776Y-86146398D01*
X108415776Y-86146398D02*
X108272919Y-86098779D01*
X108272919Y-86098779D02*
X108177681Y-86098779D01*
X108177681Y-86098779D02*
X108034824Y-86146398D01*
X108034824Y-86146398D02*
X107987205Y-86194017D01*
X107272919Y-86098779D02*
X107272919Y-86813064D01*
X107272919Y-86813064D02*
X107320538Y-86955921D01*
X107320538Y-86955921D02*
X107415776Y-87051160D01*
X107415776Y-87051160D02*
X107558633Y-87098779D01*
X107558633Y-87098779D02*
X107653871Y-87098779D01*
X106320538Y-87098779D02*
X106796728Y-87098779D01*
X106796728Y-87098779D02*
X106796728Y-86098779D01*
X105415776Y-87003540D02*
X105463395Y-87051160D01*
X105463395Y-87051160D02*
X105606252Y-87098779D01*
X105606252Y-87098779D02*
X105701490Y-87098779D01*
X105701490Y-87098779D02*
X105844347Y-87051160D01*
X105844347Y-87051160D02*
X105939585Y-86955921D01*
X105939585Y-86955921D02*
X105987204Y-86860683D01*
X105987204Y-86860683D02*
X106034823Y-86670207D01*
X106034823Y-86670207D02*
X106034823Y-86527350D01*
X106034823Y-86527350D02*
X105987204Y-86336874D01*
X105987204Y-86336874D02*
X105939585Y-86241636D01*
X105939585Y-86241636D02*
X105844347Y-86146398D01*
X105844347Y-86146398D02*
X105701490Y-86098779D01*
X105701490Y-86098779D02*
X105606252Y-86098779D01*
X105606252Y-86098779D02*
X105463395Y-86146398D01*
X105463395Y-86146398D02*
X105415776Y-86194017D01*
X104701490Y-86098779D02*
X104701490Y-86813064D01*
X104701490Y-86813064D02*
X104749109Y-86955921D01*
X104749109Y-86955921D02*
X104844347Y-87051160D01*
X104844347Y-87051160D02*
X104987204Y-87098779D01*
X104987204Y-87098779D02*
X105082442Y-87098779D01*
X103749109Y-87098779D02*
X104225299Y-87098779D01*
X104225299Y-87098779D02*
X104225299Y-86098779D01*
X102844347Y-87003540D02*
X102891966Y-87051160D01*
X102891966Y-87051160D02*
X103034823Y-87098779D01*
X103034823Y-87098779D02*
X103130061Y-87098779D01*
X103130061Y-87098779D02*
X103272918Y-87051160D01*
X103272918Y-87051160D02*
X103368156Y-86955921D01*
X103368156Y-86955921D02*
X103415775Y-86860683D01*
X103415775Y-86860683D02*
X103463394Y-86670207D01*
X103463394Y-86670207D02*
X103463394Y-86527350D01*
X103463394Y-86527350D02*
X103415775Y-86336874D01*
X103415775Y-86336874D02*
X103368156Y-86241636D01*
X103368156Y-86241636D02*
X103272918Y-86146398D01*
X103272918Y-86146398D02*
X103130061Y-86098779D01*
X103130061Y-86098779D02*
X103034823Y-86098779D01*
X103034823Y-86098779D02*
X102891966Y-86146398D01*
X102891966Y-86146398D02*
X102844347Y-86194017D01*
X102130061Y-86098779D02*
X102130061Y-86813064D01*
X102130061Y-86813064D02*
X102177680Y-86955921D01*
X102177680Y-86955921D02*
X102272918Y-87051160D01*
X102272918Y-87051160D02*
X102415775Y-87098779D01*
X102415775Y-87098779D02*
X102511013Y-87098779D01*
X101177680Y-87098779D02*
X101653870Y-87098779D01*
X101653870Y-87098779D02*
X101653870Y-86098779D01*
X100272918Y-87003540D02*
X100320537Y-87051160D01*
X100320537Y-87051160D02*
X100463394Y-87098779D01*
X100463394Y-87098779D02*
X100558632Y-87098779D01*
X100558632Y-87098779D02*
X100701489Y-87051160D01*
X100701489Y-87051160D02*
X100796727Y-86955921D01*
X100796727Y-86955921D02*
X100844346Y-86860683D01*
X100844346Y-86860683D02*
X100891965Y-86670207D01*
X100891965Y-86670207D02*
X100891965Y-86527350D01*
X100891965Y-86527350D02*
X100844346Y-86336874D01*
X100844346Y-86336874D02*
X100796727Y-86241636D01*
X100796727Y-86241636D02*
X100701489Y-86146398D01*
X100701489Y-86146398D02*
X100558632Y-86098779D01*
X100558632Y-86098779D02*
X100463394Y-86098779D01*
X100463394Y-86098779D02*
X100320537Y-86146398D01*
X100320537Y-86146398D02*
X100272918Y-86194017D01*
%LPC*%
D12*
X131390000Y-61930000D03*
D13*
X133930000Y-61930000D03*
X131390000Y-64470000D03*
X133930000Y-64470000D03*
X131390000Y-67010000D03*
X133930000Y-67010000D03*
X131390000Y-69550000D03*
X133930000Y-69550000D03*
X131390000Y-72090000D03*
X133930000Y-72090000D03*
D12*
X115475250Y-86540000D03*
D13*
X118015250Y-86540000D03*
D12*
X118025250Y-61960000D03*
D13*
X115485250Y-61960000D03*
D12*
X133940000Y-86490000D03*
D13*
X133940000Y-83950000D03*
X133940000Y-81410000D03*
X133940000Y-78870000D03*
X133940000Y-76330000D03*
D14*
X102380000Y-68950000D03*
X102380000Y-74730000D03*
D15*
X102880000Y-67520000D03*
X102880000Y-76160000D03*
D16*
X98700000Y-67520000D03*
X98700000Y-76160000D03*
%LPD*%
M02*
