G04 #@! TF.GenerationSoftware,KiCad,Pcbnew,8.0.5*
G04 #@! TF.CreationDate,2024-09-22T09:32:29+02:00*
G04 #@! TF.ProjectId,nPM1300-breakout,6e504d31-3330-4302-9d62-7265616b6f75,rev?*
G04 #@! TF.SameCoordinates,Original*
G04 #@! TF.FileFunction,Copper,L2,Bot*
G04 #@! TF.FilePolarity,Positive*
%FSLAX46Y46*%
G04 Gerber Fmt 4.6, Leading zero omitted, Abs format (unit mm)*
G04 Created by KiCad (PCBNEW 8.0.5) date 2024-09-22 09:32:29*
%MOMM*%
%LPD*%
G01*
G04 APERTURE LIST*
G04 #@! TA.AperFunction,ComponentPad*
%ADD10C,1.700000*%
G04 #@! TD*
G04 #@! TA.AperFunction,ComponentPad*
%ADD11O,1.700000X1.700000*%
G04 #@! TD*
G04 #@! TA.AperFunction,ComponentPad*
%ADD12O,2.100000X1.000000*%
G04 #@! TD*
G04 #@! TA.AperFunction,ComponentPad*
%ADD13O,1.800000X1.000000*%
G04 #@! TD*
G04 #@! TA.AperFunction,ViaPad*
%ADD14C,0.600000*%
G04 #@! TD*
G04 #@! TA.AperFunction,ViaPad*
%ADD15C,0.700000*%
G04 #@! TD*
G04 #@! TA.AperFunction,ViaPad*
%ADD16C,0.500000*%
G04 #@! TD*
G04 #@! TA.AperFunction,ViaPad*
%ADD17C,0.400000*%
G04 #@! TD*
G04 #@! TA.AperFunction,Conductor*
%ADD18C,0.200000*%
G04 #@! TD*
G04 #@! TA.AperFunction,Conductor*
%ADD19C,0.580000*%
G04 #@! TD*
G04 #@! TA.AperFunction,Conductor*
%ADD20C,0.600000*%
G04 #@! TD*
G04 #@! TA.AperFunction,Conductor*
%ADD21C,0.500000*%
G04 #@! TD*
G04 #@! TA.AperFunction,Conductor*
%ADD22C,0.700000*%
G04 #@! TD*
G04 #@! TA.AperFunction,Conductor*
%ADD23C,0.400000*%
G04 #@! TD*
G04 APERTURE END LIST*
D10*
X131390000Y-61930000D03*
D11*
X133930000Y-61930000D03*
X131390000Y-64470000D03*
X133930000Y-64470000D03*
X131390000Y-67010000D03*
X133930000Y-67010000D03*
X131390000Y-69550000D03*
X133930000Y-69550000D03*
X131390000Y-72090000D03*
X133930000Y-72090000D03*
D10*
X115475250Y-86540000D03*
D11*
X118015250Y-86540000D03*
D10*
X118025250Y-61960000D03*
D11*
X115485250Y-61960000D03*
D10*
X133940000Y-86490000D03*
D11*
X133940000Y-83950000D03*
X133940000Y-81410000D03*
X133940000Y-78870000D03*
X133940000Y-76330000D03*
D12*
X102880000Y-67520000D03*
X102880000Y-76160000D03*
D13*
X98700000Y-67520000D03*
X98700000Y-76160000D03*
D14*
X129840000Y-85340000D03*
X117890000Y-73390000D03*
X122260000Y-68810000D03*
X122030000Y-80260000D03*
X104820000Y-68150000D03*
X129050000Y-68450000D03*
X116830000Y-74470000D03*
X119550000Y-76760000D03*
X116830000Y-75530000D03*
X126530000Y-65720000D03*
X117890000Y-74480000D03*
X126580000Y-68550000D03*
X117890000Y-75530000D03*
X123300000Y-77330000D03*
X104700000Y-75580000D03*
X116070000Y-68400000D03*
X103660000Y-62090000D03*
X114940000Y-67780000D03*
X115750000Y-75520000D03*
X129070000Y-65800000D03*
X116830000Y-73390000D03*
X115750000Y-73390000D03*
X112850000Y-78320000D03*
X115750000Y-74470000D03*
X120650000Y-85330000D03*
X123650000Y-85540000D03*
X121451664Y-74802036D03*
X124720000Y-84540000D03*
X123080000Y-74130000D03*
X102830000Y-83530000D03*
X116030000Y-69570000D03*
X117230000Y-70400000D03*
D15*
X110160000Y-73720000D03*
X110140000Y-78920000D03*
X114400000Y-71940000D03*
D14*
X111020000Y-72770000D03*
X111040000Y-76330000D03*
X123080000Y-73030000D03*
X113370000Y-72730000D03*
D16*
X120722029Y-74620000D03*
D14*
X101000000Y-61560000D03*
D17*
X118830000Y-71120000D03*
D14*
X101000000Y-63350000D03*
D17*
X118230000Y-71120000D03*
X117630000Y-71120000D03*
D14*
X101000000Y-65210000D03*
D17*
X113750000Y-77270000D03*
X116080000Y-77780000D03*
X114250000Y-77774364D03*
X115480000Y-77780000D03*
X114880000Y-77780000D03*
D14*
X118220000Y-79360000D03*
X118220000Y-81320000D03*
X106900000Y-81320000D03*
X112480000Y-81320000D03*
X108080000Y-82100000D03*
X119700000Y-81310000D03*
X119710000Y-79390000D03*
X113050000Y-82100000D03*
X109410000Y-63460000D03*
D17*
X119430000Y-71120000D03*
D14*
X105240000Y-63400000D03*
D17*
X120030000Y-71120000D03*
D18*
X114250000Y-77774364D02*
X114250000Y-80457056D01*
X117182944Y-83390000D02*
X133380000Y-83390000D01*
X114250000Y-80457056D02*
X117182944Y-83390000D01*
X133380000Y-83390000D02*
X133940000Y-83950000D01*
X133940000Y-86490000D02*
X131240000Y-83790000D01*
X131240000Y-83790000D02*
X117017258Y-83790000D01*
X117017258Y-83790000D02*
X113710000Y-80482742D01*
X113710000Y-80482742D02*
X113710000Y-77310000D01*
X113710000Y-77310000D02*
X113750000Y-77270000D01*
X115480000Y-77780000D02*
X115480000Y-80555686D01*
X115480000Y-80555686D02*
X117514314Y-82590000D01*
X117514314Y-82590000D02*
X130210000Y-82590000D01*
X130210000Y-82590000D02*
X133930000Y-78870000D01*
X133930000Y-78870000D02*
X133940000Y-78870000D01*
X114880000Y-77780000D02*
X114880000Y-80521371D01*
X114880000Y-80521371D02*
X117348629Y-82990000D01*
X117348629Y-82990000D02*
X132360000Y-82990000D01*
X132360000Y-82990000D02*
X133940000Y-81410000D01*
D19*
X120650000Y-85330000D02*
X123440000Y-85330000D01*
X123440000Y-85330000D02*
X123650000Y-85540000D01*
D20*
X124700000Y-84520000D02*
X124720000Y-84540000D01*
D18*
X121451664Y-74802036D02*
X121451664Y-74798336D01*
D20*
X102830000Y-83530000D02*
X112550000Y-83530000D01*
X112550000Y-83530000D02*
X113540000Y-84520000D01*
D21*
X122120000Y-74130000D02*
X121451664Y-74798336D01*
X123080000Y-74130000D02*
X122120000Y-74130000D01*
D20*
X113540000Y-84520000D02*
X124700000Y-84520000D01*
D22*
X110150000Y-72340000D02*
X110150000Y-73710000D01*
D20*
X114400000Y-71630000D02*
X116030000Y-70000000D01*
X116030000Y-70000000D02*
X116030000Y-69570000D01*
D22*
X114400000Y-71940000D02*
X114400000Y-71630000D01*
D21*
X110150000Y-73710000D02*
X110160000Y-73720000D01*
D20*
X116400000Y-69570000D02*
X117230000Y-70400000D01*
D22*
X114400000Y-71940000D02*
X113930000Y-71470000D01*
X113930000Y-71470000D02*
X111020000Y-71470000D01*
D20*
X116030000Y-69570000D02*
X116400000Y-69570000D01*
D22*
X111020000Y-71470000D02*
X110150000Y-72340000D01*
D21*
X111040000Y-76330000D02*
X111040000Y-72790000D01*
X111040000Y-72790000D02*
X111020000Y-72770000D01*
X123080000Y-73030000D02*
X124210000Y-73030000D01*
X125230000Y-72010000D02*
X125230000Y-62750000D01*
X126050000Y-61930000D02*
X131390000Y-61930000D01*
X124210000Y-73030000D02*
X125230000Y-72010000D01*
X125230000Y-62750000D02*
X126050000Y-61930000D01*
D23*
X113350000Y-72750000D02*
X113350000Y-76010000D01*
X113370000Y-72730000D02*
X113350000Y-72750000D01*
X119050000Y-77460000D02*
X119839950Y-77460000D01*
X119839950Y-77460000D02*
X120722029Y-76577921D01*
X120722029Y-76577921D02*
X120722029Y-74620000D01*
X114200000Y-76860000D02*
X118450000Y-76860000D01*
X113350000Y-76010000D02*
X114200000Y-76860000D01*
X118450000Y-76860000D02*
X119050000Y-77460000D01*
D18*
X118830000Y-68848629D02*
X118630000Y-68648628D01*
X101350000Y-61560000D02*
X101000000Y-61560000D01*
X101710000Y-61920000D02*
X101350000Y-61560000D01*
X118630000Y-68648628D02*
X114191372Y-64210000D01*
X118830000Y-71120000D02*
X118830000Y-68848629D01*
X102750000Y-64210000D02*
X101710000Y-63170000D01*
X114191372Y-64210000D02*
X102750000Y-64210000D01*
X101710000Y-63170000D02*
X101710000Y-61920000D01*
X118230000Y-68814314D02*
X114025686Y-64610000D01*
X118230000Y-71120000D02*
X118230000Y-68814314D01*
X114025686Y-64610000D02*
X102260000Y-64610000D01*
X102260000Y-64610000D02*
X101000000Y-63350000D01*
X114120000Y-65270000D02*
X101060000Y-65270000D01*
X117630000Y-71120000D02*
X117630000Y-70848529D01*
X117830000Y-70648529D02*
X117830000Y-68980000D01*
X117630000Y-70848529D02*
X117830000Y-70648529D01*
X117830000Y-68980000D02*
X114120000Y-65270000D01*
X101060000Y-65270000D02*
X101000000Y-65210000D01*
X132330000Y-76330000D02*
X133940000Y-76330000D01*
X116080000Y-77780000D02*
X116080000Y-80590000D01*
X131840000Y-76820000D02*
X132330000Y-76330000D01*
X117680000Y-82190000D02*
X130044314Y-82190000D01*
X131840000Y-80394314D02*
X131840000Y-76820000D01*
X116080000Y-80590000D02*
X117680000Y-82190000D01*
X130044314Y-82190000D02*
X131840000Y-80394314D01*
X118220000Y-79360000D02*
X118220000Y-81260000D01*
X112480000Y-81320000D02*
X106900000Y-81320000D01*
X119710000Y-79390000D02*
X119710000Y-81260000D01*
X113050000Y-82100000D02*
X108080000Y-82100000D01*
X119430000Y-68882943D02*
X114347057Y-63800000D01*
X114347057Y-63800000D02*
X109750000Y-63800000D01*
X119430000Y-71120000D02*
X119430000Y-68882943D01*
X109750000Y-63800000D02*
X109410000Y-63460000D01*
X117731372Y-66618629D02*
X114512743Y-63400000D01*
X120030000Y-68917258D02*
X118072742Y-66960000D01*
X110020000Y-62770000D02*
X108800000Y-62770000D01*
X108150000Y-63420000D02*
X105260000Y-63420000D01*
X114512743Y-63400000D02*
X110650000Y-63400000D01*
X108800000Y-62770000D02*
X108150000Y-63420000D01*
X105260000Y-63420000D02*
X105240000Y-63400000D01*
X118072742Y-66960000D02*
X117731372Y-66618629D01*
X110650000Y-63400000D02*
X110020000Y-62770000D01*
X120030000Y-71120000D02*
X120030000Y-68917258D01*
G04 #@! TA.AperFunction,Conductor*
G36*
X133464075Y-71897007D02*
G01*
X133430000Y-72024174D01*
X133430000Y-72155826D01*
X133464075Y-72282993D01*
X133496988Y-72340000D01*
X131823012Y-72340000D01*
X131855925Y-72282993D01*
X131890000Y-72155826D01*
X131890000Y-72024174D01*
X131855925Y-71897007D01*
X131823012Y-71840000D01*
X133496988Y-71840000D01*
X133464075Y-71897007D01*
G37*
G04 #@! TD.AperFunction*
G04 #@! TA.AperFunction,Conductor*
G36*
X131640000Y-71656988D02*
G01*
X131582993Y-71624075D01*
X131455826Y-71590000D01*
X131324174Y-71590000D01*
X131197007Y-71624075D01*
X131140000Y-71656988D01*
X131140000Y-69983012D01*
X131197007Y-70015925D01*
X131324174Y-70050000D01*
X131455826Y-70050000D01*
X131582993Y-70015925D01*
X131640000Y-69983012D01*
X131640000Y-71656988D01*
G37*
G04 #@! TD.AperFunction*
G04 #@! TA.AperFunction,Conductor*
G36*
X134180000Y-71656988D02*
G01*
X134122993Y-71624075D01*
X133995826Y-71590000D01*
X133864174Y-71590000D01*
X133737007Y-71624075D01*
X133680000Y-71656988D01*
X133680000Y-69983012D01*
X133737007Y-70015925D01*
X133864174Y-70050000D01*
X133995826Y-70050000D01*
X134122993Y-70015925D01*
X134180000Y-69983012D01*
X134180000Y-71656988D01*
G37*
G04 #@! TD.AperFunction*
G04 #@! TA.AperFunction,Conductor*
G36*
X133464075Y-69357007D02*
G01*
X133430000Y-69484174D01*
X133430000Y-69615826D01*
X133464075Y-69742993D01*
X133496988Y-69800000D01*
X131823012Y-69800000D01*
X131855925Y-69742993D01*
X131890000Y-69615826D01*
X131890000Y-69484174D01*
X131855925Y-69357007D01*
X131823012Y-69300000D01*
X133496988Y-69300000D01*
X133464075Y-69357007D01*
G37*
G04 #@! TD.AperFunction*
G04 #@! TA.AperFunction,Conductor*
G36*
X135512539Y-60250185D02*
G01*
X135558294Y-60302989D01*
X135569500Y-60354500D01*
X135569500Y-88135500D01*
X135549815Y-88202539D01*
X135497011Y-88248294D01*
X135445500Y-88259500D01*
X96734500Y-88259500D01*
X96667461Y-88239815D01*
X96621706Y-88187011D01*
X96610500Y-88135500D01*
X96610500Y-78920000D01*
X109284815Y-78920000D01*
X109303503Y-79097805D01*
X109303504Y-79097807D01*
X109358747Y-79267829D01*
X109358750Y-79267835D01*
X109448141Y-79422665D01*
X109489812Y-79468946D01*
X109567764Y-79555521D01*
X109567767Y-79555523D01*
X109567770Y-79555526D01*
X109712407Y-79660612D01*
X109875733Y-79733329D01*
X110050609Y-79770500D01*
X110050610Y-79770500D01*
X110229389Y-79770500D01*
X110229391Y-79770500D01*
X110404267Y-79733329D01*
X110567593Y-79660612D01*
X110712230Y-79555526D01*
X110726882Y-79539254D01*
X110752983Y-79510265D01*
X110831859Y-79422665D01*
X110921250Y-79267835D01*
X110976497Y-79097803D01*
X110995185Y-78920000D01*
X110976497Y-78742197D01*
X110922052Y-78574632D01*
X110921252Y-78572170D01*
X110921249Y-78572164D01*
X110831859Y-78417335D01*
X110785003Y-78365296D01*
X110712235Y-78284478D01*
X110712232Y-78284476D01*
X110712231Y-78284475D01*
X110712230Y-78284474D01*
X110567593Y-78179388D01*
X110404267Y-78106671D01*
X110404265Y-78106670D01*
X110276594Y-78079533D01*
X110229391Y-78069500D01*
X110050609Y-78069500D01*
X110019954Y-78076015D01*
X109875733Y-78106670D01*
X109875728Y-78106672D01*
X109712408Y-78179387D01*
X109567768Y-78284475D01*
X109448140Y-78417336D01*
X109358750Y-78572164D01*
X109358747Y-78572170D01*
X109303504Y-78742192D01*
X109303503Y-78742194D01*
X109284815Y-78920000D01*
X96610500Y-78920000D01*
X96610500Y-75910000D01*
X97330138Y-75910000D01*
X98133012Y-75910000D01*
X98115795Y-75919940D01*
X98059940Y-75975795D01*
X98020444Y-76044204D01*
X98000000Y-76120504D01*
X98000000Y-76199496D01*
X98020444Y-76275796D01*
X98059940Y-76344205D01*
X98115795Y-76400060D01*
X98133012Y-76410000D01*
X97330138Y-76410000D01*
X97338430Y-76451690D01*
X97338430Y-76451692D01*
X97413807Y-76633671D01*
X97413814Y-76633684D01*
X97523248Y-76797462D01*
X97523251Y-76797466D01*
X97662533Y-76936748D01*
X97662537Y-76936751D01*
X97826315Y-77046185D01*
X97826328Y-77046192D01*
X98008306Y-77121569D01*
X98008318Y-77121572D01*
X98201504Y-77159999D01*
X98201508Y-77160000D01*
X98450000Y-77160000D01*
X98450000Y-76460000D01*
X98950000Y-76460000D01*
X98950000Y-77160000D01*
X99198492Y-77160000D01*
X99198495Y-77159999D01*
X99391681Y-77121572D01*
X99391693Y-77121569D01*
X99573671Y-77046192D01*
X99573684Y-77046185D01*
X99737462Y-76936751D01*
X99737466Y-76936748D01*
X99876748Y-76797466D01*
X99876751Y-76797462D01*
X99986185Y-76633684D01*
X99986192Y-76633671D01*
X100061569Y-76451692D01*
X100061569Y-76451690D01*
X100069862Y-76410000D01*
X99266988Y-76410000D01*
X99284205Y-76400060D01*
X99340060Y-76344205D01*
X99379556Y-76275796D01*
X99400000Y-76199496D01*
X99400000Y-76120504D01*
X99379556Y-76044204D01*
X99340060Y-75975795D01*
X99284205Y-75919940D01*
X99266988Y-75910000D01*
X100069862Y-75910000D01*
X101360138Y-75910000D01*
X102163012Y-75910000D01*
X102145795Y-75919940D01*
X102089940Y-75975795D01*
X102050444Y-76044204D01*
X102030000Y-76120504D01*
X102030000Y-76199496D01*
X102050444Y-76275796D01*
X102089940Y-76344205D01*
X102145795Y-76400060D01*
X102163012Y-76410000D01*
X101360138Y-76410000D01*
X101368430Y-76451690D01*
X101368430Y-76451692D01*
X101443807Y-76633671D01*
X101443814Y-76633684D01*
X101553248Y-76797462D01*
X101553251Y-76797466D01*
X101692533Y-76936748D01*
X101692537Y-76936751D01*
X101856315Y-77046185D01*
X101856328Y-77046192D01*
X102038306Y-77121569D01*
X102038318Y-77121572D01*
X102231504Y-77159999D01*
X102231508Y-77160000D01*
X102630000Y-77160000D01*
X102630000Y-76460000D01*
X103130000Y-76460000D01*
X103130000Y-77160000D01*
X103528492Y-77160000D01*
X103528495Y-77159999D01*
X103721681Y-77121572D01*
X103721693Y-77121569D01*
X103903671Y-77046192D01*
X103903684Y-77046185D01*
X104067462Y-76936751D01*
X104067466Y-76936748D01*
X104206748Y-76797466D01*
X104206751Y-76797462D01*
X104316185Y-76633684D01*
X104316192Y-76633671D01*
X104391569Y-76451692D01*
X104391569Y-76451690D01*
X104399862Y-76410000D01*
X103596988Y-76410000D01*
X103614205Y-76400060D01*
X103670060Y-76344205D01*
X103709556Y-76275796D01*
X103730000Y-76199496D01*
X103730000Y-76120504D01*
X103709556Y-76044204D01*
X103670060Y-75975795D01*
X103614205Y-75919940D01*
X103596988Y-75910000D01*
X104399862Y-75910000D01*
X104391569Y-75868309D01*
X104391569Y-75868307D01*
X104316192Y-75686328D01*
X104316185Y-75686315D01*
X104206751Y-75522537D01*
X104206748Y-75522533D01*
X104067466Y-75383251D01*
X104067462Y-75383248D01*
X103903684Y-75273814D01*
X103903671Y-75273807D01*
X103721693Y-75198430D01*
X103721681Y-75198427D01*
X103528495Y-75160000D01*
X103011045Y-75160000D01*
X102944006Y-75140315D01*
X102898251Y-75087511D01*
X102888307Y-75018353D01*
X102903658Y-74974000D01*
X102916279Y-74952138D01*
X102916281Y-74952135D01*
X102955500Y-74805766D01*
X102955500Y-74654234D01*
X102916281Y-74507865D01*
X102840515Y-74376635D01*
X102733365Y-74269485D01*
X102652600Y-74222855D01*
X102602136Y-74193719D01*
X102528950Y-74174109D01*
X102455766Y-74154500D01*
X102304234Y-74154500D01*
X102157863Y-74193719D01*
X102026635Y-74269485D01*
X102026632Y-74269487D01*
X101919487Y-74376632D01*
X101919485Y-74376635D01*
X101843719Y-74507863D01*
X101813674Y-74619997D01*
X101804500Y-74654234D01*
X101804500Y-74805766D01*
X101821851Y-74870521D01*
X101843719Y-74952136D01*
X101868430Y-74994936D01*
X101919485Y-75083365D01*
X101919486Y-75083366D01*
X101923549Y-75090403D01*
X101921346Y-75091674D01*
X101941959Y-75144983D01*
X101927923Y-75213428D01*
X101879112Y-75263420D01*
X101865845Y-75269866D01*
X101856324Y-75273809D01*
X101856315Y-75273814D01*
X101692537Y-75383248D01*
X101692533Y-75383251D01*
X101553251Y-75522533D01*
X101553248Y-75522537D01*
X101443814Y-75686315D01*
X101443807Y-75686328D01*
X101368430Y-75868307D01*
X101368430Y-75868309D01*
X101360138Y-75910000D01*
X100069862Y-75910000D01*
X100061569Y-75868309D01*
X100061569Y-75868307D01*
X99986192Y-75686328D01*
X99986185Y-75686315D01*
X99876751Y-75522537D01*
X99876748Y-75522533D01*
X99737466Y-75383251D01*
X99737462Y-75383248D01*
X99573684Y-75273814D01*
X99573671Y-75273807D01*
X99391693Y-75198430D01*
X99391681Y-75198427D01*
X99198495Y-75160000D01*
X98950000Y-75160000D01*
X98950000Y-75860000D01*
X98450000Y-75860000D01*
X98450000Y-75160000D01*
X98201504Y-75160000D01*
X98008318Y-75198427D01*
X98008306Y-75198430D01*
X97826328Y-75273807D01*
X97826315Y-75273814D01*
X97662537Y-75383248D01*
X97662533Y-75383251D01*
X97523251Y-75522533D01*
X97523248Y-75522537D01*
X97413814Y-75686315D01*
X97413807Y-75686328D01*
X97338430Y-75868307D01*
X97338430Y-75868309D01*
X97330138Y-75910000D01*
X96610500Y-75910000D01*
X96610500Y-67270000D01*
X97330138Y-67270000D01*
X98133012Y-67270000D01*
X98115795Y-67279940D01*
X98059940Y-67335795D01*
X98020444Y-67404204D01*
X98000000Y-67480504D01*
X98000000Y-67559496D01*
X98020444Y-67635796D01*
X98059940Y-67704205D01*
X98115795Y-67760060D01*
X98133012Y-67770000D01*
X97330138Y-67770000D01*
X97338430Y-67811690D01*
X97338430Y-67811692D01*
X97413807Y-67993671D01*
X97413814Y-67993684D01*
X97523248Y-68157462D01*
X97523251Y-68157466D01*
X97662533Y-68296748D01*
X97662537Y-68296751D01*
X97826315Y-68406185D01*
X97826328Y-68406192D01*
X98008306Y-68481569D01*
X98008318Y-68481572D01*
X98201504Y-68519999D01*
X98201508Y-68520000D01*
X98450000Y-68520000D01*
X98450000Y-67820000D01*
X98950000Y-67820000D01*
X98950000Y-68520000D01*
X99198492Y-68520000D01*
X99198495Y-68519999D01*
X99391681Y-68481572D01*
X99391693Y-68481569D01*
X99573671Y-68406192D01*
X99573684Y-68406185D01*
X99737462Y-68296751D01*
X99737466Y-68296748D01*
X99876748Y-68157466D01*
X99876751Y-68157462D01*
X99986185Y-67993684D01*
X99986192Y-67993671D01*
X100061569Y-67811692D01*
X100061569Y-67811690D01*
X100069862Y-67770000D01*
X99266988Y-67770000D01*
X99284205Y-67760060D01*
X99340060Y-67704205D01*
X99379556Y-67635796D01*
X99400000Y-67559496D01*
X99400000Y-67480504D01*
X99379556Y-67404204D01*
X99340060Y-67335795D01*
X99284205Y-67279940D01*
X99266988Y-67270000D01*
X100069862Y-67270000D01*
X101360138Y-67270000D01*
X102163012Y-67270000D01*
X102145795Y-67279940D01*
X102089940Y-67335795D01*
X102050444Y-67404204D01*
X102030000Y-67480504D01*
X102030000Y-67559496D01*
X102050444Y-67635796D01*
X102089940Y-67704205D01*
X102145795Y-67760060D01*
X102163012Y-67770000D01*
X101360138Y-67770000D01*
X101368430Y-67811690D01*
X101368430Y-67811692D01*
X101443807Y-67993671D01*
X101443814Y-67993684D01*
X101553248Y-68157462D01*
X101553251Y-68157466D01*
X101692533Y-68296748D01*
X101692537Y-68296751D01*
X101856315Y-68406185D01*
X101856328Y-68406192D01*
X101865838Y-68410131D01*
X101920243Y-68453970D01*
X101942310Y-68520264D01*
X101925033Y-68587963D01*
X101921350Y-68593405D01*
X101919485Y-68596634D01*
X101919485Y-68596635D01*
X101912390Y-68608922D01*
X101843719Y-68727863D01*
X101812544Y-68844212D01*
X101804500Y-68874234D01*
X101804500Y-69025766D01*
X101815746Y-69067738D01*
X101843719Y-69172136D01*
X101860546Y-69201280D01*
X101919485Y-69303365D01*
X102026635Y-69410515D01*
X102140281Y-69476129D01*
X102154215Y-69484174D01*
X102157865Y-69486281D01*
X102304234Y-69525500D01*
X102304236Y-69525500D01*
X102455764Y-69525500D01*
X102455766Y-69525500D01*
X102602135Y-69486281D01*
X102733365Y-69410515D01*
X102840515Y-69303365D01*
X102916281Y-69172135D01*
X102955500Y-69025766D01*
X102955500Y-68874234D01*
X102916281Y-68727865D01*
X102916279Y-68727861D01*
X102903658Y-68706000D01*
X102887185Y-68638099D01*
X102910038Y-68572073D01*
X102964959Y-68528882D01*
X103011045Y-68520000D01*
X103528492Y-68520000D01*
X103528495Y-68519999D01*
X103721681Y-68481572D01*
X103721693Y-68481569D01*
X103903671Y-68406192D01*
X103903684Y-68406185D01*
X104067462Y-68296751D01*
X104067466Y-68296748D01*
X104206748Y-68157466D01*
X104206751Y-68157462D01*
X104316185Y-67993684D01*
X104316192Y-67993671D01*
X104391569Y-67811692D01*
X104391569Y-67811690D01*
X104399862Y-67770000D01*
X103596988Y-67770000D01*
X103614205Y-67760060D01*
X103670060Y-67704205D01*
X103709556Y-67635796D01*
X103730000Y-67559496D01*
X103730000Y-67480504D01*
X103709556Y-67404204D01*
X103670060Y-67335795D01*
X103614205Y-67279940D01*
X103596988Y-67270000D01*
X104399862Y-67270000D01*
X104391569Y-67228309D01*
X104391569Y-67228307D01*
X104316192Y-67046328D01*
X104316185Y-67046315D01*
X104206751Y-66882537D01*
X104206748Y-66882533D01*
X104067466Y-66743251D01*
X104067462Y-66743248D01*
X103903684Y-66633814D01*
X103903671Y-66633807D01*
X103721693Y-66558430D01*
X103721681Y-66558427D01*
X103528495Y-66520000D01*
X103130000Y-66520000D01*
X103130000Y-67220000D01*
X102630000Y-67220000D01*
X102630000Y-66520000D01*
X102231504Y-66520000D01*
X102038318Y-66558427D01*
X102038306Y-66558430D01*
X101856328Y-66633807D01*
X101856315Y-66633814D01*
X101692537Y-66743248D01*
X101692533Y-66743251D01*
X101553251Y-66882533D01*
X101553248Y-66882537D01*
X101443814Y-67046315D01*
X101443807Y-67046328D01*
X101368430Y-67228307D01*
X101368430Y-67228309D01*
X101360138Y-67270000D01*
X100069862Y-67270000D01*
X100061569Y-67228309D01*
X100061569Y-67228307D01*
X99986192Y-67046328D01*
X99986185Y-67046315D01*
X99876751Y-66882537D01*
X99876748Y-66882533D01*
X99737466Y-66743251D01*
X99737462Y-66743248D01*
X99573684Y-66633814D01*
X99573671Y-66633807D01*
X99391693Y-66558430D01*
X99391681Y-66558427D01*
X99198495Y-66520000D01*
X98950000Y-66520000D01*
X98950000Y-67220000D01*
X98450000Y-67220000D01*
X98450000Y-66520000D01*
X98201504Y-66520000D01*
X98008318Y-66558427D01*
X98008306Y-66558430D01*
X97826328Y-66633807D01*
X97826315Y-66633814D01*
X97662537Y-66743248D01*
X97662533Y-66743251D01*
X97523251Y-66882533D01*
X97523248Y-66882537D01*
X97413814Y-67046315D01*
X97413807Y-67046328D01*
X97338430Y-67228307D01*
X97338430Y-67228309D01*
X97330138Y-67270000D01*
X96610500Y-67270000D01*
X96610500Y-61559996D01*
X100194435Y-61559996D01*
X100194435Y-61560003D01*
X100214630Y-61739249D01*
X100214631Y-61739254D01*
X100274211Y-61909523D01*
X100336746Y-62009046D01*
X100370184Y-62062262D01*
X100497738Y-62189816D01*
X100650478Y-62285789D01*
X100650480Y-62285790D01*
X100799568Y-62337959D01*
X100856344Y-62378680D01*
X100882091Y-62443633D01*
X100868635Y-62512195D01*
X100820247Y-62562597D01*
X100799568Y-62572041D01*
X100650480Y-62624209D01*
X100497737Y-62720184D01*
X100370184Y-62847737D01*
X100274211Y-63000476D01*
X100214631Y-63170745D01*
X100214630Y-63170750D01*
X100194435Y-63349996D01*
X100194435Y-63350003D01*
X100214630Y-63529249D01*
X100214631Y-63529254D01*
X100274211Y-63699523D01*
X100327391Y-63784158D01*
X100370184Y-63852262D01*
X100497738Y-63979816D01*
X100650478Y-64075789D01*
X100820745Y-64135368D01*
X100907669Y-64145161D01*
X100972080Y-64172226D01*
X100981465Y-64180700D01*
X101002348Y-64201583D01*
X101035833Y-64262906D01*
X101030849Y-64332598D01*
X100988977Y-64388531D01*
X100928551Y-64412484D01*
X100820749Y-64424630D01*
X100820745Y-64424631D01*
X100650476Y-64484211D01*
X100497737Y-64580184D01*
X100370184Y-64707737D01*
X100274211Y-64860476D01*
X100214631Y-65030745D01*
X100214630Y-65030750D01*
X100194435Y-65209996D01*
X100194435Y-65210003D01*
X100214630Y-65389249D01*
X100214631Y-65389254D01*
X100274211Y-65559523D01*
X100323789Y-65638425D01*
X100370184Y-65712262D01*
X100497738Y-65839816D01*
X100576819Y-65889506D01*
X100604372Y-65906819D01*
X100650478Y-65935789D01*
X100820739Y-65995366D01*
X100820745Y-65995368D01*
X100820750Y-65995369D01*
X100999996Y-66015565D01*
X101000000Y-66015565D01*
X101000004Y-66015565D01*
X101179249Y-65995369D01*
X101179251Y-65995368D01*
X101179255Y-65995368D01*
X101179258Y-65995366D01*
X101179262Y-65995366D01*
X101269377Y-65963832D01*
X101349522Y-65935789D01*
X101423181Y-65889505D01*
X101489153Y-65870500D01*
X113819903Y-65870500D01*
X113886942Y-65890185D01*
X113907584Y-65906819D01*
X116558584Y-68557819D01*
X116592069Y-68619142D01*
X116587085Y-68688834D01*
X116545213Y-68744767D01*
X116479749Y-68769184D01*
X116470903Y-68769500D01*
X116081915Y-68769500D01*
X116068031Y-68768720D01*
X116030002Y-68764435D01*
X116029998Y-68764435D01*
X115991969Y-68768720D01*
X115978085Y-68769500D01*
X115951152Y-68769500D01*
X115911994Y-68777288D01*
X115901696Y-68778890D01*
X115850742Y-68784632D01*
X115850735Y-68784634D01*
X115826898Y-68792975D01*
X115810140Y-68797550D01*
X115796502Y-68800263D01*
X115796496Y-68800264D01*
X115747631Y-68820504D01*
X115741140Y-68822982D01*
X115680477Y-68844210D01*
X115680474Y-68844212D01*
X115670127Y-68850713D01*
X115651639Y-68860266D01*
X115650832Y-68860600D01*
X115650824Y-68860604D01*
X115596047Y-68897204D01*
X115593132Y-68899092D01*
X115527742Y-68940180D01*
X115527735Y-68940186D01*
X115400186Y-69067735D01*
X115400180Y-69067742D01*
X115359092Y-69133132D01*
X115357204Y-69136047D01*
X115320604Y-69190824D01*
X115320600Y-69190832D01*
X115320266Y-69191639D01*
X115310713Y-69210127D01*
X115304212Y-69220474D01*
X115304210Y-69220477D01*
X115282982Y-69281140D01*
X115280504Y-69287631D01*
X115260264Y-69336496D01*
X115260263Y-69336502D01*
X115257550Y-69350140D01*
X115252975Y-69366898D01*
X115244634Y-69390735D01*
X115244632Y-69390742D01*
X115238890Y-69441696D01*
X115237288Y-69451994D01*
X115229500Y-69491152D01*
X115229500Y-69518085D01*
X115228720Y-69531969D01*
X115224435Y-69569998D01*
X115224435Y-69570003D01*
X115228228Y-69603668D01*
X115216173Y-69672489D01*
X115192689Y-69705232D01*
X114281379Y-70616541D01*
X114220056Y-70650026D01*
X114169508Y-70650478D01*
X114055675Y-70627836D01*
X114013767Y-70619500D01*
X110936233Y-70619500D01*
X110936228Y-70619500D01*
X110771925Y-70652182D01*
X110771913Y-70652185D01*
X110726583Y-70670962D01*
X110617143Y-70716292D01*
X110617130Y-70716299D01*
X110477838Y-70809372D01*
X110477834Y-70809375D01*
X109489375Y-71797834D01*
X109489372Y-71797838D01*
X109396297Y-71937133D01*
X109396296Y-71937136D01*
X109366456Y-72009178D01*
X109366456Y-72009179D01*
X109332184Y-72091917D01*
X109332182Y-72091925D01*
X109299500Y-72256228D01*
X109299500Y-73793771D01*
X109332182Y-73958074D01*
X109332184Y-73958082D01*
X109396295Y-74112860D01*
X109456201Y-74202515D01*
X109460487Y-74209407D01*
X109468142Y-74222666D01*
X109468279Y-74222855D01*
X109479013Y-74236656D01*
X109489373Y-74252160D01*
X109489376Y-74252164D01*
X109540554Y-74303342D01*
X109545007Y-74308033D01*
X109587770Y-74355526D01*
X109587773Y-74355529D01*
X109599355Y-74363943D01*
X109605131Y-74368405D01*
X109607833Y-74370622D01*
X109607836Y-74370624D01*
X109607838Y-74370626D01*
X109614719Y-74375224D01*
X109618695Y-74377995D01*
X109732408Y-74460613D01*
X109774882Y-74479523D01*
X109895733Y-74533329D01*
X110070609Y-74570500D01*
X110070610Y-74570500D01*
X110165500Y-74570500D01*
X110232539Y-74590185D01*
X110278294Y-74642989D01*
X110289500Y-74694500D01*
X110289500Y-76030028D01*
X110282542Y-76070982D01*
X110254631Y-76150747D01*
X110234435Y-76329996D01*
X110234435Y-76330003D01*
X110254630Y-76509249D01*
X110254631Y-76509254D01*
X110314211Y-76679523D01*
X110385931Y-76793664D01*
X110410184Y-76832262D01*
X110537738Y-76959816D01*
X110690478Y-77055789D01*
X110820055Y-77101130D01*
X110860745Y-77115368D01*
X110860750Y-77115369D01*
X111039996Y-77135565D01*
X111040000Y-77135565D01*
X111040004Y-77135565D01*
X111219249Y-77115369D01*
X111219252Y-77115368D01*
X111219255Y-77115368D01*
X111389522Y-77055789D01*
X111542262Y-76959816D01*
X111669816Y-76832262D01*
X111765789Y-76679522D01*
X111825368Y-76509255D01*
X111827896Y-76486818D01*
X111845565Y-76330003D01*
X111845565Y-76329996D01*
X111829388Y-76186421D01*
X111825368Y-76150745D01*
X111797458Y-76070982D01*
X111790500Y-76030028D01*
X111790500Y-73012812D01*
X111797459Y-72971857D01*
X111805368Y-72949255D01*
X111822984Y-72792908D01*
X111825565Y-72770003D01*
X111825565Y-72769996D01*
X111805369Y-72590750D01*
X111805366Y-72590737D01*
X111768526Y-72485455D01*
X111764964Y-72415676D01*
X111799692Y-72355049D01*
X111861686Y-72322821D01*
X111885567Y-72320500D01*
X112490436Y-72320500D01*
X112557475Y-72340185D01*
X112603230Y-72392989D01*
X112613174Y-72462147D01*
X112607478Y-72485455D01*
X112584631Y-72550745D01*
X112584630Y-72550750D01*
X112564435Y-72729996D01*
X112564435Y-72730003D01*
X112584630Y-72909249D01*
X112584633Y-72909262D01*
X112642541Y-73074749D01*
X112649500Y-73115704D01*
X112649500Y-75941006D01*
X112649500Y-76078994D01*
X112649500Y-76078996D01*
X112649499Y-76078996D01*
X112676418Y-76214322D01*
X112676421Y-76214332D01*
X112729222Y-76341807D01*
X112805887Y-76456545D01*
X112805888Y-76456546D01*
X113119992Y-76770649D01*
X113153477Y-76831972D01*
X113148493Y-76901663D01*
X113134364Y-76928766D01*
X113125183Y-76942067D01*
X113125182Y-76942068D01*
X113064860Y-77101125D01*
X113064859Y-77101130D01*
X113044355Y-77270000D01*
X113064859Y-77438870D01*
X113064860Y-77438875D01*
X113101442Y-77535331D01*
X113109500Y-77579302D01*
X113109500Y-80396072D01*
X113109499Y-80396090D01*
X113109499Y-80545770D01*
X113089814Y-80612809D01*
X113037010Y-80658564D01*
X112967852Y-80668508D01*
X112919527Y-80650764D01*
X112829523Y-80594211D01*
X112659254Y-80534631D01*
X112659249Y-80534630D01*
X112480004Y-80514435D01*
X112479996Y-80514435D01*
X112300750Y-80534630D01*
X112300745Y-80534631D01*
X112130476Y-80594211D01*
X111977736Y-80690185D01*
X111974903Y-80692445D01*
X111972724Y-80693334D01*
X111971842Y-80693889D01*
X111971744Y-80693734D01*
X111910217Y-80718855D01*
X111897588Y-80719500D01*
X107482412Y-80719500D01*
X107415373Y-80699815D01*
X107405097Y-80692445D01*
X107402263Y-80690185D01*
X107402262Y-80690184D01*
X107345496Y-80654515D01*
X107249523Y-80594211D01*
X107079254Y-80534631D01*
X107079249Y-80534630D01*
X106900004Y-80514435D01*
X106899996Y-80514435D01*
X106720750Y-80534630D01*
X106720745Y-80534631D01*
X106550476Y-80594211D01*
X106397737Y-80690184D01*
X106270184Y-80817737D01*
X106174211Y-80970476D01*
X106114631Y-81140745D01*
X106114630Y-81140750D01*
X106094435Y-81319996D01*
X106094435Y-81320003D01*
X106114630Y-81499249D01*
X106114631Y-81499254D01*
X106174211Y-81669523D01*
X106270184Y-81822262D01*
X106397738Y-81949816D01*
X106550478Y-82045789D01*
X106670636Y-82087834D01*
X106720745Y-82105368D01*
X106720750Y-82105369D01*
X106899996Y-82125565D01*
X106900000Y-82125565D01*
X106900004Y-82125565D01*
X107079249Y-82105369D01*
X107079250Y-82105368D01*
X107079255Y-82105368D01*
X107120848Y-82090813D01*
X107190623Y-82087251D01*
X107251251Y-82121978D01*
X107283480Y-82183971D01*
X107285022Y-82193971D01*
X107294630Y-82279250D01*
X107294631Y-82279254D01*
X107354211Y-82449524D01*
X107410765Y-82539527D01*
X107429766Y-82606764D01*
X107409399Y-82673599D01*
X107356131Y-82718814D01*
X107305772Y-82729500D01*
X102881915Y-82729500D01*
X102868031Y-82728720D01*
X102830002Y-82724435D01*
X102829998Y-82724435D01*
X102791969Y-82728720D01*
X102778085Y-82729500D01*
X102751152Y-82729500D01*
X102711994Y-82737288D01*
X102701696Y-82738890D01*
X102650742Y-82744632D01*
X102650735Y-82744634D01*
X102626898Y-82752975D01*
X102610140Y-82757550D01*
X102596502Y-82760263D01*
X102596496Y-82760264D01*
X102547631Y-82780504D01*
X102541140Y-82782982D01*
X102480477Y-82804210D01*
X102480474Y-82804212D01*
X102470127Y-82810713D01*
X102451639Y-82820266D01*
X102450832Y-82820600D01*
X102450824Y-82820604D01*
X102396047Y-82857204D01*
X102393132Y-82859092D01*
X102327742Y-82900180D01*
X102327735Y-82900186D01*
X102200186Y-83027735D01*
X102200180Y-83027742D01*
X102159092Y-83093132D01*
X102157204Y-83096047D01*
X102120604Y-83150824D01*
X102120600Y-83150832D01*
X102120266Y-83151639D01*
X102110713Y-83170127D01*
X102104212Y-83180474D01*
X102104210Y-83180477D01*
X102082982Y-83241140D01*
X102080504Y-83247631D01*
X102060264Y-83296496D01*
X102060263Y-83296502D01*
X102057550Y-83310140D01*
X102052975Y-83326898D01*
X102044634Y-83350735D01*
X102044632Y-83350742D01*
X102038890Y-83401696D01*
X102037288Y-83411994D01*
X102029500Y-83451152D01*
X102029500Y-83478085D01*
X102028720Y-83491969D01*
X102024435Y-83529998D01*
X102024435Y-83530001D01*
X102028720Y-83568029D01*
X102029500Y-83581914D01*
X102029500Y-83608844D01*
X102037288Y-83648003D01*
X102038890Y-83658303D01*
X102044632Y-83709255D01*
X102044632Y-83709257D01*
X102044633Y-83709258D01*
X102052976Y-83733104D01*
X102057550Y-83749860D01*
X102060262Y-83763496D01*
X102080509Y-83812377D01*
X102082988Y-83818872D01*
X102104212Y-83879524D01*
X102110709Y-83889865D01*
X102120268Y-83908365D01*
X102120603Y-83909173D01*
X102120605Y-83909179D01*
X102157223Y-83963982D01*
X102159114Y-83966900D01*
X102200180Y-84032257D01*
X102200182Y-84032260D01*
X102200184Y-84032262D01*
X102327738Y-84159816D01*
X102393131Y-84200905D01*
X102396040Y-84202790D01*
X102450821Y-84239394D01*
X102451606Y-84239719D01*
X102470134Y-84249289D01*
X102480478Y-84255789D01*
X102541175Y-84277028D01*
X102547607Y-84279484D01*
X102576021Y-84291253D01*
X102596497Y-84299735D01*
X102596498Y-84299735D01*
X102596503Y-84299737D01*
X102610139Y-84302449D01*
X102626898Y-84307023D01*
X102650745Y-84315368D01*
X102701714Y-84321110D01*
X102711992Y-84322709D01*
X102739140Y-84328109D01*
X102751157Y-84330500D01*
X102751158Y-84330500D01*
X102778085Y-84330500D01*
X102791969Y-84331280D01*
X102829998Y-84335565D01*
X102830000Y-84335565D01*
X102830002Y-84335565D01*
X102868031Y-84331280D01*
X102881915Y-84330500D01*
X112167060Y-84330500D01*
X112234099Y-84350185D01*
X112254741Y-84366819D01*
X112918211Y-85030289D01*
X113006347Y-85118425D01*
X113029712Y-85141790D01*
X113160814Y-85229390D01*
X113160821Y-85229394D01*
X113248687Y-85265789D01*
X113306502Y-85289737D01*
X113429224Y-85314148D01*
X113461152Y-85320499D01*
X113461155Y-85320500D01*
X113461157Y-85320500D01*
X113461158Y-85320500D01*
X114485491Y-85320500D01*
X114552530Y-85340185D01*
X114598285Y-85392989D01*
X114608229Y-85462147D01*
X114579204Y-85525703D01*
X114573172Y-85532181D01*
X114436755Y-85668597D01*
X114301215Y-85862169D01*
X114301214Y-85862171D01*
X114201348Y-86076335D01*
X114201344Y-86076344D01*
X114140188Y-86304586D01*
X114140186Y-86304596D01*
X114119591Y-86539999D01*
X114119591Y-86540000D01*
X114140186Y-86775403D01*
X114140188Y-86775413D01*
X114201344Y-87003655D01*
X114201346Y-87003659D01*
X114201347Y-87003663D01*
X114281254Y-87175023D01*
X114301215Y-87217830D01*
X114301217Y-87217834D01*
X114401740Y-87361395D01*
X114436755Y-87411401D01*
X114603849Y-87578495D01*
X114700634Y-87646265D01*
X114797415Y-87714032D01*
X114797417Y-87714033D01*
X114797420Y-87714035D01*
X115011587Y-87813903D01*
X115239842Y-87875063D01*
X115428168Y-87891539D01*
X115475249Y-87895659D01*
X115475250Y-87895659D01*
X115475251Y-87895659D01*
X115514484Y-87892226D01*
X115710658Y-87875063D01*
X115938913Y-87813903D01*
X116153080Y-87714035D01*
X116346651Y-87578495D01*
X116513745Y-87411401D01*
X116643675Y-87225842D01*
X116698252Y-87182217D01*
X116767750Y-87175023D01*
X116830105Y-87206546D01*
X116846825Y-87225842D01*
X116976750Y-87411395D01*
X116976755Y-87411401D01*
X117143849Y-87578495D01*
X117240634Y-87646265D01*
X117337415Y-87714032D01*
X117337417Y-87714033D01*
X117337420Y-87714035D01*
X117551587Y-87813903D01*
X117779842Y-87875063D01*
X117968168Y-87891539D01*
X118015249Y-87895659D01*
X118015250Y-87895659D01*
X118015251Y-87895659D01*
X118054484Y-87892226D01*
X118250658Y-87875063D01*
X118478913Y-87813903D01*
X118693080Y-87714035D01*
X118886651Y-87578495D01*
X119053745Y-87411401D01*
X119189285Y-87217830D01*
X119289153Y-87003663D01*
X119350313Y-86775408D01*
X119370909Y-86540000D01*
X119350313Y-86304592D01*
X119300986Y-86120500D01*
X119289155Y-86076344D01*
X119289154Y-86076343D01*
X119289153Y-86076337D01*
X119189285Y-85862171D01*
X119183674Y-85854158D01*
X119053746Y-85668600D01*
X119003743Y-85618597D01*
X118917325Y-85532179D01*
X118883842Y-85470859D01*
X118888826Y-85401167D01*
X118930697Y-85345233D01*
X118996162Y-85320816D01*
X119005008Y-85320500D01*
X119732551Y-85320500D01*
X119799590Y-85340185D01*
X119845345Y-85392989D01*
X119855771Y-85430617D01*
X119864630Y-85509249D01*
X119864631Y-85509254D01*
X119924211Y-85679523D01*
X120007559Y-85812169D01*
X120020184Y-85832262D01*
X120147738Y-85959816D01*
X120221984Y-86006468D01*
X120253616Y-86026344D01*
X120300478Y-86055789D01*
X120359201Y-86076337D01*
X120470745Y-86115368D01*
X120470750Y-86115369D01*
X120649996Y-86135565D01*
X120650000Y-86135565D01*
X120650003Y-86135565D01*
X120739819Y-86125444D01*
X120776785Y-86121279D01*
X120790667Y-86120500D01*
X123047060Y-86120500D01*
X123114099Y-86140185D01*
X123134741Y-86156819D01*
X123147738Y-86169816D01*
X123238080Y-86226582D01*
X123282648Y-86254586D01*
X123300478Y-86265789D01*
X123411371Y-86304592D01*
X123470745Y-86325368D01*
X123470750Y-86325369D01*
X123649996Y-86345565D01*
X123650000Y-86345565D01*
X123650004Y-86345565D01*
X123829249Y-86325369D01*
X123829252Y-86325368D01*
X123829255Y-86325368D01*
X123999522Y-86265789D01*
X124152262Y-86169816D01*
X124279816Y-86042262D01*
X124375789Y-85889522D01*
X124435368Y-85719255D01*
X124439845Y-85679522D01*
X124455565Y-85540003D01*
X124455565Y-85539997D01*
X124447385Y-85467400D01*
X124459439Y-85398578D01*
X124506788Y-85347199D01*
X124574398Y-85329574D01*
X124584460Y-85330293D01*
X124591722Y-85331111D01*
X124601995Y-85332710D01*
X124623818Y-85337051D01*
X124641156Y-85340500D01*
X124641157Y-85340500D01*
X124668085Y-85340500D01*
X124681969Y-85341280D01*
X124719998Y-85345565D01*
X124720000Y-85345565D01*
X124720002Y-85345565D01*
X124758031Y-85341280D01*
X124771915Y-85340500D01*
X124798841Y-85340500D01*
X124798842Y-85340500D01*
X124838017Y-85332707D01*
X124848283Y-85331110D01*
X124899255Y-85325368D01*
X124923107Y-85317020D01*
X124939852Y-85312450D01*
X124953497Y-85309737D01*
X125002382Y-85289487D01*
X125008852Y-85287017D01*
X125069522Y-85265789D01*
X125079860Y-85259292D01*
X125098389Y-85249719D01*
X125099179Y-85249393D01*
X125153965Y-85212784D01*
X125156827Y-85210930D01*
X125222262Y-85169816D01*
X125349816Y-85042262D01*
X125390939Y-84976811D01*
X125392784Y-84973965D01*
X125429393Y-84919179D01*
X125429719Y-84918389D01*
X125439293Y-84899859D01*
X125445789Y-84889522D01*
X125467017Y-84828852D01*
X125469493Y-84822368D01*
X125489737Y-84773497D01*
X125492450Y-84759852D01*
X125497020Y-84743107D01*
X125505368Y-84719255D01*
X125511110Y-84668283D01*
X125512707Y-84658017D01*
X125520500Y-84618842D01*
X125520500Y-84591914D01*
X125521280Y-84578029D01*
X125525565Y-84540001D01*
X125524256Y-84528386D01*
X125536309Y-84459564D01*
X125583657Y-84408184D01*
X125647476Y-84390500D01*
X130939903Y-84390500D01*
X131006942Y-84410185D01*
X131027584Y-84426819D01*
X132607233Y-86006468D01*
X132640718Y-86067791D01*
X132639327Y-86126241D01*
X132604939Y-86254583D01*
X132604936Y-86254596D01*
X132584341Y-86489999D01*
X132584341Y-86490000D01*
X132604936Y-86725403D01*
X132604938Y-86725413D01*
X132666094Y-86953655D01*
X132666096Y-86953659D01*
X132666097Y-86953663D01*
X132689413Y-87003664D01*
X132765965Y-87167830D01*
X132765967Y-87167834D01*
X132793074Y-87206546D01*
X132901505Y-87361401D01*
X133068599Y-87528495D01*
X133140011Y-87578498D01*
X133262165Y-87664032D01*
X133262167Y-87664033D01*
X133262170Y-87664035D01*
X133476337Y-87763903D01*
X133704592Y-87825063D01*
X133892918Y-87841539D01*
X133939999Y-87845659D01*
X133940000Y-87845659D01*
X133940001Y-87845659D01*
X133979234Y-87842226D01*
X134175408Y-87825063D01*
X134403663Y-87763903D01*
X134617830Y-87664035D01*
X134811401Y-87528495D01*
X134978495Y-87361401D01*
X135114035Y-87167830D01*
X135213903Y-86953663D01*
X135275063Y-86725408D01*
X135295659Y-86490000D01*
X135275063Y-86254592D01*
X135213903Y-86026337D01*
X135114035Y-85812171D01*
X135021155Y-85679523D01*
X134978494Y-85618597D01*
X134811402Y-85451506D01*
X134811396Y-85451501D01*
X134625842Y-85321575D01*
X134582217Y-85266998D01*
X134575023Y-85197500D01*
X134606546Y-85135145D01*
X134625842Y-85118425D01*
X134734611Y-85042264D01*
X134811401Y-84988495D01*
X134978495Y-84821401D01*
X135114035Y-84627830D01*
X135213903Y-84413663D01*
X135275063Y-84185408D01*
X135295659Y-83950000D01*
X135275063Y-83714592D01*
X135213903Y-83486337D01*
X135114035Y-83272171D01*
X135049832Y-83180478D01*
X134978494Y-83078597D01*
X134811402Y-82911506D01*
X134811396Y-82911501D01*
X134625842Y-82781575D01*
X134582217Y-82726998D01*
X134575023Y-82657500D01*
X134606546Y-82595145D01*
X134625842Y-82578425D01*
X134809931Y-82449524D01*
X134811401Y-82448495D01*
X134978495Y-82281401D01*
X135114035Y-82087830D01*
X135213903Y-81873663D01*
X135275063Y-81645408D01*
X135295659Y-81410000D01*
X135295658Y-81409994D01*
X135286910Y-81310000D01*
X135275063Y-81174592D01*
X135223107Y-80980688D01*
X135213905Y-80946344D01*
X135213904Y-80946343D01*
X135213903Y-80946337D01*
X135114035Y-80732171D01*
X135103455Y-80717060D01*
X134978494Y-80538597D01*
X134811402Y-80371506D01*
X134811396Y-80371501D01*
X134625842Y-80241575D01*
X134582217Y-80186998D01*
X134575023Y-80117500D01*
X134606546Y-80055145D01*
X134625842Y-80038425D01*
X134738154Y-79959783D01*
X134811401Y-79908495D01*
X134978495Y-79741401D01*
X135114035Y-79547830D01*
X135213903Y-79333663D01*
X135275063Y-79105408D01*
X135295659Y-78870000D01*
X135275063Y-78634592D01*
X135226888Y-78454799D01*
X135213905Y-78406344D01*
X135213904Y-78406343D01*
X135213903Y-78406337D01*
X135114035Y-78192171D01*
X135106774Y-78181800D01*
X134978494Y-77998597D01*
X134811402Y-77831506D01*
X134811396Y-77831501D01*
X134625842Y-77701575D01*
X134582217Y-77646998D01*
X134575023Y-77577500D01*
X134606546Y-77515145D01*
X134625842Y-77498425D01*
X134710895Y-77438870D01*
X134811401Y-77368495D01*
X134978495Y-77201401D01*
X135114035Y-77007830D01*
X135213903Y-76793663D01*
X135275063Y-76565408D01*
X135295659Y-76330000D01*
X135275063Y-76094592D01*
X135217683Y-75880444D01*
X135213905Y-75866344D01*
X135213904Y-75866343D01*
X135213903Y-75866337D01*
X135114035Y-75652171D01*
X135114034Y-75652169D01*
X134978494Y-75458597D01*
X134811402Y-75291506D01*
X134811395Y-75291501D01*
X134786128Y-75273809D01*
X134699896Y-75213428D01*
X134617834Y-75155967D01*
X134617830Y-75155965D01*
X134606689Y-75150770D01*
X134403663Y-75056097D01*
X134403659Y-75056096D01*
X134403655Y-75056094D01*
X134175413Y-74994938D01*
X134175403Y-74994936D01*
X133940001Y-74974341D01*
X133939999Y-74974341D01*
X133704596Y-74994936D01*
X133704586Y-74994938D01*
X133476344Y-75056094D01*
X133476335Y-75056098D01*
X133262171Y-75155964D01*
X133262169Y-75155965D01*
X133068597Y-75291505D01*
X132901506Y-75458596D01*
X132765965Y-75652170D01*
X132765962Y-75652175D01*
X132763289Y-75657909D01*
X132717115Y-75710346D01*
X132650909Y-75729500D01*
X132416670Y-75729500D01*
X132416654Y-75729499D01*
X132409058Y-75729499D01*
X132250943Y-75729499D01*
X132174579Y-75749961D01*
X132098214Y-75770423D01*
X132098209Y-75770426D01*
X131961290Y-75849475D01*
X131961282Y-75849481D01*
X131464217Y-76346546D01*
X131464214Y-76346548D01*
X131464215Y-76346549D01*
X131359477Y-76451287D01*
X131338966Y-76486816D01*
X131338965Y-76486818D01*
X131280423Y-76588215D01*
X131239499Y-76740943D01*
X131239499Y-76740945D01*
X131239499Y-76909046D01*
X131239500Y-76909059D01*
X131239500Y-80094217D01*
X131219815Y-80161256D01*
X131203181Y-80181898D01*
X129831898Y-81553181D01*
X129770575Y-81586666D01*
X129744217Y-81589500D01*
X120612829Y-81589500D01*
X120545790Y-81569815D01*
X120500035Y-81517011D01*
X120489609Y-81451616D01*
X120505565Y-81310002D01*
X120505565Y-81309996D01*
X120485369Y-81130750D01*
X120485368Y-81130745D01*
X120477112Y-81107151D01*
X120425789Y-80960478D01*
X120420540Y-80952125D01*
X120336099Y-80817737D01*
X120329816Y-80807738D01*
X120329815Y-80807737D01*
X120329506Y-80807245D01*
X120310500Y-80741273D01*
X120310500Y-79972412D01*
X120330185Y-79905373D01*
X120337555Y-79895097D01*
X120339810Y-79892267D01*
X120339816Y-79892262D01*
X120435789Y-79739522D01*
X120495368Y-79569255D01*
X120496915Y-79555526D01*
X120515565Y-79390003D01*
X120515565Y-79389996D01*
X120495369Y-79210750D01*
X120495368Y-79210745D01*
X120484872Y-79180750D01*
X120435789Y-79040478D01*
X120416937Y-79010476D01*
X120369669Y-78935249D01*
X120339816Y-78887738D01*
X120212262Y-78760184D01*
X120183628Y-78742192D01*
X120059523Y-78664211D01*
X119889254Y-78604631D01*
X119889249Y-78604630D01*
X119710004Y-78584435D01*
X119709996Y-78584435D01*
X119530750Y-78604630D01*
X119530745Y-78604631D01*
X119360476Y-78664211D01*
X119207737Y-78760184D01*
X119080184Y-78887737D01*
X119080181Y-78887741D01*
X119079415Y-78888961D01*
X119078715Y-78889579D01*
X119075841Y-78893184D01*
X119075209Y-78892680D01*
X119027077Y-78935249D01*
X118958023Y-78945893D01*
X118894177Y-78917514D01*
X118869432Y-78888956D01*
X118849817Y-78857739D01*
X118722262Y-78730184D01*
X118569523Y-78634211D01*
X118399254Y-78574631D01*
X118399249Y-78574630D01*
X118220004Y-78554435D01*
X118219996Y-78554435D01*
X118040750Y-78574630D01*
X118040745Y-78574631D01*
X117870476Y-78634211D01*
X117717737Y-78730184D01*
X117590184Y-78857737D01*
X117494211Y-79010476D01*
X117434631Y-79180745D01*
X117434630Y-79180750D01*
X117414435Y-79359996D01*
X117414435Y-79360003D01*
X117434630Y-79539249D01*
X117434631Y-79539254D01*
X117494211Y-79709523D01*
X117532526Y-79770500D01*
X117589037Y-79860437D01*
X117590185Y-79862263D01*
X117592445Y-79865097D01*
X117593334Y-79867275D01*
X117593889Y-79868158D01*
X117593734Y-79868255D01*
X117618855Y-79929783D01*
X117619500Y-79942412D01*
X117619500Y-80737587D01*
X117599815Y-80804626D01*
X117592450Y-80814896D01*
X117590184Y-80817737D01*
X117505742Y-80952125D01*
X117453408Y-80998415D01*
X117384354Y-81009063D01*
X117320506Y-80980688D01*
X117313068Y-80973833D01*
X117058735Y-80719500D01*
X116716819Y-80377583D01*
X116683334Y-80316260D01*
X116680500Y-80289902D01*
X116680500Y-78181800D01*
X116700185Y-78114761D01*
X116702429Y-78111389D01*
X116704818Y-78107930D01*
X116765140Y-77948872D01*
X116785645Y-77780000D01*
X116775864Y-77699447D01*
X116787324Y-77630523D01*
X116834228Y-77578737D01*
X116898960Y-77560500D01*
X118108481Y-77560500D01*
X118175520Y-77580185D01*
X118196162Y-77596819D01*
X118603453Y-78004111D01*
X118603454Y-78004112D01*
X118718190Y-78080776D01*
X118800238Y-78114761D01*
X118845671Y-78133580D01*
X118845672Y-78133580D01*
X118845677Y-78133582D01*
X118872545Y-78138925D01*
X118872551Y-78138926D01*
X118872591Y-78138934D01*
X118962937Y-78156905D01*
X118981006Y-78160500D01*
X118981007Y-78160500D01*
X119908946Y-78160500D01*
X120017407Y-78138925D01*
X120044278Y-78133580D01*
X120109245Y-78106670D01*
X120171757Y-78080777D01*
X120171758Y-78080776D01*
X120171761Y-78080775D01*
X120286493Y-78004114D01*
X121266143Y-77024464D01*
X121342804Y-76909732D01*
X121346147Y-76901663D01*
X121389306Y-76797466D01*
X121395609Y-76782249D01*
X121422529Y-76646915D01*
X121422529Y-76508927D01*
X121422529Y-75721697D01*
X121442214Y-75654658D01*
X121495018Y-75608903D01*
X121532646Y-75598477D01*
X121630913Y-75587405D01*
X121630916Y-75587404D01*
X121630919Y-75587404D01*
X121801186Y-75527825D01*
X121953926Y-75431852D01*
X122081480Y-75304298D01*
X122177453Y-75151558D01*
X122177598Y-75151141D01*
X122177832Y-75150770D01*
X122180474Y-75145284D01*
X122181091Y-75145581D01*
X122206958Y-75104408D01*
X122394550Y-74916816D01*
X122455873Y-74883334D01*
X122482230Y-74880500D01*
X122780028Y-74880500D01*
X122820983Y-74887458D01*
X122900745Y-74915368D01*
X122900750Y-74915369D01*
X123079996Y-74935565D01*
X123080000Y-74935565D01*
X123080004Y-74935565D01*
X123259249Y-74915369D01*
X123259252Y-74915368D01*
X123259255Y-74915368D01*
X123429522Y-74855789D01*
X123582262Y-74759816D01*
X123709816Y-74632262D01*
X123805789Y-74479522D01*
X123865368Y-74309255D01*
X123865775Y-74305642D01*
X123885565Y-74130003D01*
X123885565Y-74129996D01*
X123865369Y-73950750D01*
X123865367Y-73950742D01*
X123863517Y-73945454D01*
X123859956Y-73875675D01*
X123894685Y-73815048D01*
X123956678Y-73782821D01*
X123980559Y-73780500D01*
X124283920Y-73780500D01*
X124381462Y-73761096D01*
X124428913Y-73751658D01*
X124565495Y-73695084D01*
X124618277Y-73659816D01*
X124688416Y-73612952D01*
X125812952Y-72488416D01*
X125830504Y-72462147D01*
X125866508Y-72408262D01*
X125866509Y-72408260D01*
X125879138Y-72389359D01*
X125895084Y-72365495D01*
X125951658Y-72228913D01*
X125966196Y-72155826D01*
X125980500Y-72083920D01*
X125980500Y-63112229D01*
X126000185Y-63045190D01*
X126016819Y-63024548D01*
X126324548Y-62716819D01*
X126385871Y-62683334D01*
X126412229Y-62680500D01*
X130202299Y-62680500D01*
X130269338Y-62700185D01*
X130303873Y-62733376D01*
X130351505Y-62801401D01*
X130518597Y-62968493D01*
X130518603Y-62968498D01*
X130704158Y-63098425D01*
X130747783Y-63153002D01*
X130754977Y-63222500D01*
X130723454Y-63284855D01*
X130704158Y-63301575D01*
X130518597Y-63431505D01*
X130351505Y-63598597D01*
X130215965Y-63792169D01*
X130215964Y-63792171D01*
X130116098Y-64006335D01*
X130116094Y-64006344D01*
X130054938Y-64234586D01*
X130054936Y-64234596D01*
X130034341Y-64469999D01*
X130034341Y-64470000D01*
X130054936Y-64705403D01*
X130054938Y-64705413D01*
X130116094Y-64933655D01*
X130116096Y-64933659D01*
X130116097Y-64933663D01*
X130161370Y-65030750D01*
X130215965Y-65147830D01*
X130215967Y-65147834D01*
X130259499Y-65210003D01*
X130351501Y-65341396D01*
X130351506Y-65341402D01*
X130518597Y-65508493D01*
X130518603Y-65508498D01*
X130704158Y-65638425D01*
X130747783Y-65693002D01*
X130754977Y-65762500D01*
X130723454Y-65824855D01*
X130704158Y-65841575D01*
X130518597Y-65971505D01*
X130351505Y-66138597D01*
X130215965Y-66332169D01*
X130215964Y-66332171D01*
X130116098Y-66546335D01*
X130116094Y-66546344D01*
X130054938Y-66774586D01*
X130054936Y-66774596D01*
X130034341Y-67009999D01*
X130034341Y-67010000D01*
X130054936Y-67245403D01*
X130054938Y-67245413D01*
X130116094Y-67473655D01*
X130116096Y-67473659D01*
X130116097Y-67473663D01*
X130120000Y-67482032D01*
X130215965Y-67687830D01*
X130215967Y-67687834D01*
X130324281Y-67842521D01*
X130351501Y-67881396D01*
X130351506Y-67881402D01*
X130518597Y-68048493D01*
X130518603Y-68048498D01*
X130704594Y-68178730D01*
X130748219Y-68233307D01*
X130755413Y-68302805D01*
X130723890Y-68365160D01*
X130704595Y-68381880D01*
X130518922Y-68511890D01*
X130518920Y-68511891D01*
X130351891Y-68678920D01*
X130351886Y-68678926D01*
X130216400Y-68872420D01*
X130216399Y-68872422D01*
X130116570Y-69086507D01*
X130116567Y-69086513D01*
X130059364Y-69299999D01*
X130059364Y-69300000D01*
X130956988Y-69300000D01*
X130924075Y-69357007D01*
X130890000Y-69484174D01*
X130890000Y-69615826D01*
X130924075Y-69742993D01*
X130956988Y-69800000D01*
X130059364Y-69800000D01*
X130116567Y-70013486D01*
X130116570Y-70013492D01*
X130216399Y-70227578D01*
X130351894Y-70421082D01*
X130518917Y-70588105D01*
X130705031Y-70718425D01*
X130748656Y-70773003D01*
X130755848Y-70842501D01*
X130724326Y-70904856D01*
X130705031Y-70921575D01*
X130518922Y-71051890D01*
X130518920Y-71051891D01*
X130351891Y-71218920D01*
X130351886Y-71218926D01*
X130216400Y-71412420D01*
X130216399Y-71412422D01*
X130116570Y-71626507D01*
X130116567Y-71626513D01*
X130059364Y-71839999D01*
X130059364Y-71840000D01*
X130956988Y-71840000D01*
X130924075Y-71897007D01*
X130890000Y-72024174D01*
X130890000Y-72155826D01*
X130924075Y-72282993D01*
X130956988Y-72340000D01*
X130059364Y-72340000D01*
X130116567Y-72553486D01*
X130116570Y-72553492D01*
X130216399Y-72767578D01*
X130351894Y-72961082D01*
X130518917Y-73128105D01*
X130712421Y-73263600D01*
X130926507Y-73363429D01*
X130926516Y-73363433D01*
X131140000Y-73420634D01*
X131140000Y-72523012D01*
X131197007Y-72555925D01*
X131324174Y-72590000D01*
X131455826Y-72590000D01*
X131582993Y-72555925D01*
X131640000Y-72523012D01*
X131640000Y-73420633D01*
X131853483Y-73363433D01*
X131853492Y-73363429D01*
X132067578Y-73263600D01*
X132261082Y-73128105D01*
X132428105Y-72961082D01*
X132558425Y-72774968D01*
X132613002Y-72731344D01*
X132682501Y-72724151D01*
X132744855Y-72755673D01*
X132761575Y-72774968D01*
X132891894Y-72961082D01*
X133058917Y-73128105D01*
X133252421Y-73263600D01*
X133466507Y-73363429D01*
X133466516Y-73363433D01*
X133680000Y-73420634D01*
X133680000Y-72523012D01*
X133737007Y-72555925D01*
X133864174Y-72590000D01*
X133995826Y-72590000D01*
X134122993Y-72555925D01*
X134180000Y-72523012D01*
X134180000Y-73420633D01*
X134393483Y-73363433D01*
X134393492Y-73363429D01*
X134607578Y-73263600D01*
X134801082Y-73128105D01*
X134968105Y-72961082D01*
X135103600Y-72767578D01*
X135203429Y-72553492D01*
X135203432Y-72553486D01*
X135260636Y-72340000D01*
X134363012Y-72340000D01*
X134395925Y-72282993D01*
X134430000Y-72155826D01*
X134430000Y-72024174D01*
X134395925Y-71897007D01*
X134363012Y-71840000D01*
X135260636Y-71840000D01*
X135260635Y-71839999D01*
X135203432Y-71626513D01*
X135203429Y-71626507D01*
X135103600Y-71412422D01*
X135103599Y-71412420D01*
X134968113Y-71218926D01*
X134968108Y-71218920D01*
X134801082Y-71051894D01*
X134614968Y-70921575D01*
X134571344Y-70866998D01*
X134564151Y-70797499D01*
X134595673Y-70735145D01*
X134614968Y-70718425D01*
X134801082Y-70588105D01*
X134968105Y-70421082D01*
X135103600Y-70227578D01*
X135203429Y-70013492D01*
X135203432Y-70013486D01*
X135260636Y-69800000D01*
X134363012Y-69800000D01*
X134395925Y-69742993D01*
X134430000Y-69615826D01*
X134430000Y-69484174D01*
X134395925Y-69357007D01*
X134363012Y-69300000D01*
X135260636Y-69300000D01*
X135260635Y-69299999D01*
X135203432Y-69086513D01*
X135203429Y-69086507D01*
X135103600Y-68872422D01*
X135103599Y-68872420D01*
X134968113Y-68678926D01*
X134968108Y-68678920D01*
X134801078Y-68511890D01*
X134615405Y-68381879D01*
X134571780Y-68327302D01*
X134564588Y-68257804D01*
X134596110Y-68195449D01*
X134615406Y-68178730D01*
X134645780Y-68157462D01*
X134801401Y-68048495D01*
X134968495Y-67881401D01*
X135104035Y-67687830D01*
X135203903Y-67473663D01*
X135265063Y-67245408D01*
X135285659Y-67010000D01*
X135265063Y-66774592D01*
X135207143Y-66558430D01*
X135203905Y-66546344D01*
X135203904Y-66546343D01*
X135203903Y-66546337D01*
X135104035Y-66332171D01*
X135098425Y-66324158D01*
X134968494Y-66138597D01*
X134801402Y-65971506D01*
X134801396Y-65971501D01*
X134615842Y-65841575D01*
X134572217Y-65786998D01*
X134565023Y-65717500D01*
X134596546Y-65655145D01*
X134615842Y-65638425D01*
X134638026Y-65622891D01*
X134801401Y-65508495D01*
X134968495Y-65341401D01*
X135104035Y-65147830D01*
X135203903Y-64933663D01*
X135265063Y-64705408D01*
X135285659Y-64470000D01*
X135265063Y-64234592D01*
X135203903Y-64006337D01*
X135104035Y-63792171D01*
X135098425Y-63784158D01*
X134968494Y-63598597D01*
X134801402Y-63431506D01*
X134801396Y-63431501D01*
X134615842Y-63301575D01*
X134572217Y-63246998D01*
X134565023Y-63177500D01*
X134596546Y-63115145D01*
X134615842Y-63098425D01*
X134721349Y-63024548D01*
X134801401Y-62968495D01*
X134968495Y-62801401D01*
X135104035Y-62607830D01*
X135203903Y-62393663D01*
X135265063Y-62165408D01*
X135285659Y-61930000D01*
X135283867Y-61909523D01*
X135281539Y-61882918D01*
X135265063Y-61694592D01*
X135203903Y-61466337D01*
X135104035Y-61252171D01*
X135098425Y-61244158D01*
X134968494Y-61058597D01*
X134801402Y-60891506D01*
X134801395Y-60891501D01*
X134607834Y-60755967D01*
X134607830Y-60755965D01*
X134604549Y-60754435D01*
X134393663Y-60656097D01*
X134393659Y-60656096D01*
X134393655Y-60656094D01*
X134165413Y-60594938D01*
X134165403Y-60594936D01*
X133930001Y-60574341D01*
X133929999Y-60574341D01*
X133694596Y-60594936D01*
X133694586Y-60594938D01*
X133466344Y-60656094D01*
X133466335Y-60656098D01*
X133252171Y-60755964D01*
X133252169Y-60755965D01*
X133058597Y-60891505D01*
X132891505Y-61058597D01*
X132761575Y-61244158D01*
X132706998Y-61287783D01*
X132637500Y-61294977D01*
X132575145Y-61263454D01*
X132558425Y-61244158D01*
X132428494Y-61058597D01*
X132261402Y-60891506D01*
X132261395Y-60891501D01*
X132067834Y-60755967D01*
X132067830Y-60755965D01*
X132064549Y-60754435D01*
X131853663Y-60656097D01*
X131853659Y-60656096D01*
X131853655Y-60656094D01*
X131625413Y-60594938D01*
X131625403Y-60594936D01*
X131390001Y-60574341D01*
X131389999Y-60574341D01*
X131154596Y-60594936D01*
X131154586Y-60594938D01*
X130926344Y-60656094D01*
X130926335Y-60656098D01*
X130712171Y-60755964D01*
X130712169Y-60755965D01*
X130518597Y-60891505D01*
X130351506Y-61058596D01*
X130303874Y-61126623D01*
X130249297Y-61170248D01*
X130202299Y-61179500D01*
X125976080Y-61179500D01*
X125831092Y-61208340D01*
X125831082Y-61208343D01*
X125694507Y-61264914D01*
X125599771Y-61328215D01*
X125599770Y-61328216D01*
X125571581Y-61347050D01*
X125571580Y-61347051D01*
X124647050Y-62271580D01*
X124647044Y-62271588D01*
X124597812Y-62345268D01*
X124597813Y-62345269D01*
X124564921Y-62394496D01*
X124564914Y-62394508D01*
X124508342Y-62531086D01*
X124508340Y-62531092D01*
X124479500Y-62676079D01*
X124479500Y-71647770D01*
X124459815Y-71714809D01*
X124443181Y-71735451D01*
X123935451Y-72243181D01*
X123874128Y-72276666D01*
X123847770Y-72279500D01*
X123379972Y-72279500D01*
X123339017Y-72272542D01*
X123259254Y-72244631D01*
X123259249Y-72244630D01*
X123080004Y-72224435D01*
X123079996Y-72224435D01*
X122900750Y-72244630D01*
X122900745Y-72244631D01*
X122730476Y-72304211D01*
X122577737Y-72400184D01*
X122450184Y-72527737D01*
X122354211Y-72680476D01*
X122294631Y-72850745D01*
X122294630Y-72850750D01*
X122274435Y-73029996D01*
X122274435Y-73030003D01*
X122294630Y-73209249D01*
X122294632Y-73209257D01*
X122296483Y-73214546D01*
X122300044Y-73284325D01*
X122265315Y-73344952D01*
X122203322Y-73377179D01*
X122179441Y-73379500D01*
X122046080Y-73379500D01*
X121901092Y-73408340D01*
X121901082Y-73408343D01*
X121764511Y-73464912D01*
X121764499Y-73464919D01*
X121725337Y-73491087D01*
X121725336Y-73491088D01*
X121641582Y-73547049D01*
X121641581Y-73547050D01*
X121242078Y-73946552D01*
X121180755Y-73980037D01*
X121111063Y-73975053D01*
X121088424Y-73963864D01*
X121049722Y-73939545D01*
X120890085Y-73883685D01*
X120722032Y-73864751D01*
X120722026Y-73864751D01*
X120553972Y-73883685D01*
X120394334Y-73939545D01*
X120394331Y-73939547D01*
X120251144Y-74029518D01*
X120251138Y-74029523D01*
X120131552Y-74149109D01*
X120131547Y-74149115D01*
X120041576Y-74292302D01*
X120041574Y-74292305D01*
X119985714Y-74451943D01*
X119966780Y-74619997D01*
X119966780Y-74620002D01*
X119985715Y-74788059D01*
X119985715Y-74788061D01*
X120014570Y-74870521D01*
X120021529Y-74911476D01*
X120021529Y-76236402D01*
X120001844Y-76303441D01*
X119985210Y-76324083D01*
X119586112Y-76723181D01*
X119524789Y-76756666D01*
X119498431Y-76759500D01*
X119391519Y-76759500D01*
X119324480Y-76739815D01*
X119303838Y-76723181D01*
X118896546Y-76315888D01*
X118896545Y-76315887D01*
X118781807Y-76239222D01*
X118654332Y-76186421D01*
X118654322Y-76186418D01*
X118518996Y-76159500D01*
X118518994Y-76159500D01*
X118518993Y-76159500D01*
X114541519Y-76159500D01*
X114474480Y-76139815D01*
X114453838Y-76123181D01*
X114086819Y-75756162D01*
X114053334Y-75694839D01*
X114050500Y-75668481D01*
X114050500Y-73187321D01*
X114069506Y-73121349D01*
X114095789Y-73079522D01*
X114155368Y-72909255D01*
X114156762Y-72896877D01*
X114183828Y-72832464D01*
X114241422Y-72792908D01*
X114305763Y-72789470D01*
X114310609Y-72790500D01*
X114310611Y-72790500D01*
X114489389Y-72790500D01*
X114489391Y-72790500D01*
X114570663Y-72773224D01*
X114572068Y-72772935D01*
X114648082Y-72757816D01*
X114648087Y-72757813D01*
X114653913Y-72756046D01*
X114654057Y-72756521D01*
X114663088Y-72753711D01*
X114664251Y-72753332D01*
X114664267Y-72753329D01*
X114734329Y-72722134D01*
X114737212Y-72720895D01*
X114802863Y-72693703D01*
X114803390Y-72693350D01*
X114821865Y-72683162D01*
X114822684Y-72682796D01*
X114827593Y-72680612D01*
X114884505Y-72639261D01*
X114888388Y-72636555D01*
X114942162Y-72600626D01*
X114947164Y-72595622D01*
X114961956Y-72582989D01*
X114972230Y-72575526D01*
X115014994Y-72528030D01*
X115019428Y-72523358D01*
X115060626Y-72482162D01*
X115068118Y-72470946D01*
X115079071Y-72456866D01*
X115091859Y-72442665D01*
X115120610Y-72392863D01*
X115124887Y-72385987D01*
X115153700Y-72342867D01*
X115153703Y-72342863D01*
X115161320Y-72324469D01*
X115168488Y-72309936D01*
X115181250Y-72287835D01*
X115192346Y-72253683D01*
X115199289Y-72236707D01*
X115207214Y-72220808D01*
X115329478Y-71851284D01*
X115359518Y-71802558D01*
X116342322Y-70819755D01*
X116403641Y-70786273D01*
X116473333Y-70791257D01*
X116517680Y-70819758D01*
X116727738Y-71029816D01*
X116793137Y-71070909D01*
X116796046Y-71072794D01*
X116850821Y-71109393D01*
X116851611Y-71109720D01*
X116870136Y-71119290D01*
X116876182Y-71123090D01*
X116878740Y-71124697D01*
X116925028Y-71177034D01*
X116935858Y-71214739D01*
X116944859Y-71288869D01*
X116944860Y-71288874D01*
X117005182Y-71447931D01*
X117005682Y-71448655D01*
X117101817Y-71587929D01*
X117169364Y-71647770D01*
X117229150Y-71700736D01*
X117375581Y-71777589D01*
X117379775Y-71779790D01*
X117544944Y-71820500D01*
X117715056Y-71820500D01*
X117880225Y-71779790D01*
X117880230Y-71779787D01*
X117886028Y-71777589D01*
X117955691Y-71772222D01*
X117973972Y-71777589D01*
X117979772Y-71779788D01*
X117979775Y-71779790D01*
X118144944Y-71820500D01*
X118315056Y-71820500D01*
X118480225Y-71779790D01*
X118480230Y-71779787D01*
X118486028Y-71777589D01*
X118555691Y-71772222D01*
X118573972Y-71777589D01*
X118579772Y-71779788D01*
X118579775Y-71779790D01*
X118744944Y-71820500D01*
X118915056Y-71820500D01*
X119080225Y-71779790D01*
X119080230Y-71779787D01*
X119086028Y-71777589D01*
X119155691Y-71772222D01*
X119173972Y-71777589D01*
X119179772Y-71779788D01*
X119179775Y-71779790D01*
X119344944Y-71820500D01*
X119515056Y-71820500D01*
X119680225Y-71779790D01*
X119680230Y-71779787D01*
X119686028Y-71777589D01*
X119755691Y-71772222D01*
X119773972Y-71777589D01*
X119779772Y-71779788D01*
X119779775Y-71779790D01*
X119944944Y-71820500D01*
X120115056Y-71820500D01*
X120280225Y-71779790D01*
X120404035Y-71714809D01*
X120430849Y-71700736D01*
X120430850Y-71700734D01*
X120430852Y-71700734D01*
X120558183Y-71587929D01*
X120654818Y-71447930D01*
X120715140Y-71288872D01*
X120735645Y-71120000D01*
X120715140Y-70951128D01*
X120654818Y-70792070D01*
X120652448Y-70788637D01*
X120651489Y-70785727D01*
X120651331Y-70785426D01*
X120651381Y-70785399D01*
X120630567Y-70722283D01*
X120630500Y-70718199D01*
X120630500Y-69006318D01*
X120630501Y-69006305D01*
X120630501Y-68838203D01*
X120630501Y-68838201D01*
X120589577Y-68685473D01*
X120538286Y-68596635D01*
X120510520Y-68548542D01*
X120398716Y-68436738D01*
X120398715Y-68436737D01*
X120394385Y-68432407D01*
X120394374Y-68432397D01*
X118500045Y-66538068D01*
X118500043Y-66538065D01*
X118100089Y-66138110D01*
X118100088Y-66138109D01*
X115482372Y-63520394D01*
X115448887Y-63459071D01*
X115453871Y-63389379D01*
X115495743Y-63333446D01*
X115559244Y-63309185D01*
X115720658Y-63295063D01*
X115948913Y-63233903D01*
X116163080Y-63134035D01*
X116356651Y-62998495D01*
X116523745Y-62831401D01*
X116653675Y-62645842D01*
X116708252Y-62602217D01*
X116777750Y-62595023D01*
X116840105Y-62626546D01*
X116856825Y-62645842D01*
X116986750Y-62831395D01*
X116986755Y-62831401D01*
X117153849Y-62998495D01*
X117242925Y-63060867D01*
X117347415Y-63134032D01*
X117347417Y-63134033D01*
X117347420Y-63134035D01*
X117561587Y-63233903D01*
X117789842Y-63295063D01*
X117951254Y-63309185D01*
X118025249Y-63315659D01*
X118025250Y-63315659D01*
X118025251Y-63315659D01*
X118099246Y-63309185D01*
X118260658Y-63295063D01*
X118488913Y-63233903D01*
X118703080Y-63134035D01*
X118896651Y-62998495D01*
X119063745Y-62831401D01*
X119199285Y-62637830D01*
X119299153Y-62423663D01*
X119360313Y-62195408D01*
X119380909Y-61960000D01*
X119360313Y-61724592D01*
X119299153Y-61496337D01*
X119199285Y-61282171D01*
X119193675Y-61274158D01*
X119063744Y-61088597D01*
X118896652Y-60921506D01*
X118896645Y-60921501D01*
X118703084Y-60785967D01*
X118703080Y-60785965D01*
X118638745Y-60755965D01*
X118488913Y-60686097D01*
X118488909Y-60686096D01*
X118488905Y-60686094D01*
X118260663Y-60624938D01*
X118260653Y-60624936D01*
X118025251Y-60604341D01*
X118025249Y-60604341D01*
X117789846Y-60624936D01*
X117789836Y-60624938D01*
X117561594Y-60686094D01*
X117561585Y-60686098D01*
X117347421Y-60785964D01*
X117347419Y-60785965D01*
X117153847Y-60921505D01*
X116986755Y-61088597D01*
X116856825Y-61274158D01*
X116802248Y-61317783D01*
X116732750Y-61324977D01*
X116670395Y-61293454D01*
X116653675Y-61274158D01*
X116523744Y-61088597D01*
X116356652Y-60921506D01*
X116356645Y-60921501D01*
X116163084Y-60785967D01*
X116163080Y-60785965D01*
X116098745Y-60755965D01*
X115948913Y-60686097D01*
X115948909Y-60686096D01*
X115948905Y-60686094D01*
X115720663Y-60624938D01*
X115720653Y-60624936D01*
X115485251Y-60604341D01*
X115485249Y-60604341D01*
X115249846Y-60624936D01*
X115249836Y-60624938D01*
X115021594Y-60686094D01*
X115021585Y-60686098D01*
X114807421Y-60785964D01*
X114807419Y-60785965D01*
X114613847Y-60921505D01*
X114446755Y-61088597D01*
X114311215Y-61282169D01*
X114311214Y-61282171D01*
X114211348Y-61496335D01*
X114211344Y-61496344D01*
X114150188Y-61724586D01*
X114150186Y-61724596D01*
X114129591Y-61959999D01*
X114129591Y-61960000D01*
X114150186Y-62195403D01*
X114150188Y-62195413D01*
X114211344Y-62423655D01*
X114211346Y-62423659D01*
X114211347Y-62423663D01*
X114280537Y-62572041D01*
X114304344Y-62623095D01*
X114314836Y-62692173D01*
X114286316Y-62755957D01*
X114227840Y-62794196D01*
X114191962Y-62799500D01*
X110950098Y-62799500D01*
X110883059Y-62779815D01*
X110862417Y-62763181D01*
X110507590Y-62408355D01*
X110507588Y-62408352D01*
X110388717Y-62289481D01*
X110388716Y-62289480D01*
X110301904Y-62239360D01*
X110301904Y-62239359D01*
X110301900Y-62239358D01*
X110251785Y-62210423D01*
X110099057Y-62169499D01*
X109940943Y-62169499D01*
X109933347Y-62169499D01*
X109933331Y-62169500D01*
X108886669Y-62169500D01*
X108886653Y-62169499D01*
X108879057Y-62169499D01*
X108720943Y-62169499D01*
X108624270Y-62195403D01*
X108568210Y-62210424D01*
X108568209Y-62210425D01*
X108518096Y-62239359D01*
X108518095Y-62239360D01*
X108474689Y-62264420D01*
X108431285Y-62289479D01*
X108431282Y-62289481D01*
X108367537Y-62353227D01*
X108319480Y-62401284D01*
X108319478Y-62401286D01*
X108112931Y-62607834D01*
X107937584Y-62783181D01*
X107876261Y-62816666D01*
X107849903Y-62819500D01*
X105842940Y-62819500D01*
X105775901Y-62799815D01*
X105755259Y-62783181D01*
X105742262Y-62770184D01*
X105589523Y-62674211D01*
X105419254Y-62614631D01*
X105419249Y-62614630D01*
X105240004Y-62594435D01*
X105239996Y-62594435D01*
X105060750Y-62614630D01*
X105060745Y-62614631D01*
X104890476Y-62674211D01*
X104737737Y-62770184D01*
X104610184Y-62897737D01*
X104514211Y-63050476D01*
X104454631Y-63220745D01*
X104454630Y-63220750D01*
X104434435Y-63399996D01*
X104434435Y-63400002D01*
X104442504Y-63471616D01*
X104430450Y-63540438D01*
X104383101Y-63591818D01*
X104319284Y-63609500D01*
X103050097Y-63609500D01*
X102983058Y-63589815D01*
X102962416Y-63573181D01*
X102346819Y-62957584D01*
X102313334Y-62896261D01*
X102310500Y-62869903D01*
X102310500Y-62009059D01*
X102310501Y-62009046D01*
X102310501Y-61840945D01*
X102310501Y-61840943D01*
X102269577Y-61688215D01*
X102240639Y-61638095D01*
X102190520Y-61551284D01*
X102078716Y-61439480D01*
X102078715Y-61439479D01*
X102074385Y-61435149D01*
X102074374Y-61435139D01*
X101837590Y-61198355D01*
X101837588Y-61198352D01*
X101718717Y-61079481D01*
X101718709Y-61079475D01*
X101616936Y-61020717D01*
X101616935Y-61020717D01*
X101581785Y-61000423D01*
X101581783Y-61000422D01*
X101574747Y-60996360D01*
X101575746Y-60994628D01*
X101548495Y-60976417D01*
X101502262Y-60930184D01*
X101349523Y-60834211D01*
X101179254Y-60774631D01*
X101179249Y-60774630D01*
X101000004Y-60754435D01*
X100999996Y-60754435D01*
X100820750Y-60774630D01*
X100820745Y-60774631D01*
X100650476Y-60834211D01*
X100497737Y-60930184D01*
X100370184Y-61057737D01*
X100274211Y-61210476D01*
X100214631Y-61380745D01*
X100214630Y-61380750D01*
X100194435Y-61559996D01*
X96610500Y-61559996D01*
X96610500Y-60354500D01*
X96630185Y-60287461D01*
X96682989Y-60241706D01*
X96734500Y-60230500D01*
X135445500Y-60230500D01*
X135512539Y-60250185D01*
G37*
G04 #@! TD.AperFunction*
G04 #@! TA.AperFunction,Conductor*
G36*
X114477071Y-71145905D02*
G01*
X114479428Y-71147726D01*
X114887882Y-71556180D01*
X114891309Y-71564453D01*
X114890717Y-71568128D01*
X114727302Y-72062018D01*
X114721450Y-72068796D01*
X114712519Y-72069451D01*
X114711745Y-72069164D01*
X114399349Y-71940730D01*
X114399302Y-71940683D01*
X114399293Y-71940707D01*
X114089001Y-71811218D01*
X114082687Y-71804870D01*
X114082710Y-71795915D01*
X114083414Y-71794505D01*
X114461062Y-71150081D01*
X114468200Y-71144678D01*
X114477071Y-71145905D01*
G37*
G04 #@! TD.AperFunction*
M02*
