%TF.GenerationSoftware,KiCad,Pcbnew,8.0.5*%
%TF.CreationDate,2024-09-22T09:32:32+02:00*%
%TF.ProjectId,nPM1300-breakout,6e504d31-3330-4302-9d62-7265616b6f75,rev?*%
%TF.SameCoordinates,Original*%
%TF.FileFunction,Drillmap*%
%TF.FilePolarity,Positive*%
%FSLAX45Y45*%
G04 Gerber Fmt 4.5, Leading zero omitted, Abs format (unit mm)*
G04 Created by KiCad (PCBNEW 8.0.5) date 2024-09-22 09:32:32*
%MOMM*%
%LPD*%
G01*
G04 APERTURE LIST*
%ADD10C,0.050000*%
%ADD11C,0.200000*%
%ADD12C,0.100000*%
G04 APERTURE END LIST*
D10*
X13607000Y-8826000D02*
G75*
G02*
X13557000Y-8876000I-50000J0D01*
G01*
X9611000Y-8826000D02*
X9611000Y-6023000D01*
X9661000Y-5973000D02*
X13557000Y-5973000D01*
X13607000Y-6023000D02*
X13607000Y-8826000D01*
X9611000Y-6023000D02*
G75*
G02*
X9661000Y-5973000I50000J0D01*
G01*
X13557000Y-5973000D02*
G75*
G02*
X13607000Y-6023000I0J-50000D01*
G01*
X13557000Y-8876000D02*
X9661000Y-8876000D01*
X9661000Y-8876000D02*
G75*
G02*
X9611000Y-8826000I0J50000D01*
G01*
D11*
D12*
X10205500Y-6862500D02*
X10270500Y-6927500D01*
X10270500Y-6862500D02*
X10205500Y-6927500D01*
X10205500Y-7440500D02*
X10270500Y-7505500D01*
X10270500Y-7440500D02*
X10205500Y-7505500D01*
D11*
X9869277Y-9189984D02*
X9869277Y-8989984D01*
X9869277Y-8989984D02*
X9916896Y-8989984D01*
X9916896Y-8989984D02*
X9945467Y-8999508D01*
X9945467Y-8999508D02*
X9964515Y-9018555D01*
X9964515Y-9018555D02*
X9974039Y-9037603D01*
X9974039Y-9037603D02*
X9983563Y-9075698D01*
X9983563Y-9075698D02*
X9983563Y-9104270D01*
X9983563Y-9104270D02*
X9974039Y-9142365D01*
X9974039Y-9142365D02*
X9964515Y-9161412D01*
X9964515Y-9161412D02*
X9945467Y-9180460D01*
X9945467Y-9180460D02*
X9916896Y-9189984D01*
X9916896Y-9189984D02*
X9869277Y-9189984D01*
X10069277Y-9189984D02*
X10069277Y-9056650D01*
X10069277Y-9094746D02*
X10078801Y-9075698D01*
X10078801Y-9075698D02*
X10088324Y-9066174D01*
X10088324Y-9066174D02*
X10107372Y-9056650D01*
X10107372Y-9056650D02*
X10126420Y-9056650D01*
X10193086Y-9189984D02*
X10193086Y-9056650D01*
X10193086Y-8989984D02*
X10183563Y-8999508D01*
X10183563Y-8999508D02*
X10193086Y-9009031D01*
X10193086Y-9009031D02*
X10202610Y-8999508D01*
X10202610Y-8999508D02*
X10193086Y-8989984D01*
X10193086Y-8989984D02*
X10193086Y-9009031D01*
X10316896Y-9189984D02*
X10297848Y-9180460D01*
X10297848Y-9180460D02*
X10288324Y-9161412D01*
X10288324Y-9161412D02*
X10288324Y-8989984D01*
X10421658Y-9189984D02*
X10402610Y-9180460D01*
X10402610Y-9180460D02*
X10393086Y-9161412D01*
X10393086Y-9161412D02*
X10393086Y-8989984D01*
X10650229Y-9189984D02*
X10650229Y-8989984D01*
X10650229Y-8989984D02*
X10716896Y-9132841D01*
X10716896Y-9132841D02*
X10783563Y-8989984D01*
X10783563Y-8989984D02*
X10783563Y-9189984D01*
X10964515Y-9189984D02*
X10964515Y-9085222D01*
X10964515Y-9085222D02*
X10954991Y-9066174D01*
X10954991Y-9066174D02*
X10935944Y-9056650D01*
X10935944Y-9056650D02*
X10897848Y-9056650D01*
X10897848Y-9056650D02*
X10878801Y-9066174D01*
X10964515Y-9180460D02*
X10945467Y-9189984D01*
X10945467Y-9189984D02*
X10897848Y-9189984D01*
X10897848Y-9189984D02*
X10878801Y-9180460D01*
X10878801Y-9180460D02*
X10869277Y-9161412D01*
X10869277Y-9161412D02*
X10869277Y-9142365D01*
X10869277Y-9142365D02*
X10878801Y-9123317D01*
X10878801Y-9123317D02*
X10897848Y-9113793D01*
X10897848Y-9113793D02*
X10945467Y-9113793D01*
X10945467Y-9113793D02*
X10964515Y-9104270D01*
X11059753Y-9056650D02*
X11059753Y-9256650D01*
X11059753Y-9066174D02*
X11078801Y-9056650D01*
X11078801Y-9056650D02*
X11116896Y-9056650D01*
X11116896Y-9056650D02*
X11135944Y-9066174D01*
X11135944Y-9066174D02*
X11145467Y-9075698D01*
X11145467Y-9075698D02*
X11154991Y-9094746D01*
X11154991Y-9094746D02*
X11154991Y-9151889D01*
X11154991Y-9151889D02*
X11145467Y-9170936D01*
X11145467Y-9170936D02*
X11135944Y-9180460D01*
X11135944Y-9180460D02*
X11116896Y-9189984D01*
X11116896Y-9189984D02*
X11078801Y-9189984D01*
X11078801Y-9189984D02*
X11059753Y-9180460D01*
X11240705Y-9170936D02*
X11250229Y-9180460D01*
X11250229Y-9180460D02*
X11240705Y-9189984D01*
X11240705Y-9189984D02*
X11231182Y-9180460D01*
X11231182Y-9180460D02*
X11240705Y-9170936D01*
X11240705Y-9170936D02*
X11240705Y-9189984D01*
X11240705Y-9066174D02*
X11250229Y-9075698D01*
X11250229Y-9075698D02*
X11240705Y-9085222D01*
X11240705Y-9085222D02*
X11231182Y-9075698D01*
X11231182Y-9075698D02*
X11240705Y-9066174D01*
X11240705Y-9066174D02*
X11240705Y-9085222D01*
D12*
X9543500Y-9486000D02*
X9608500Y-9551000D01*
X9608500Y-9486000D02*
X9543500Y-9551000D01*
D11*
X9907372Y-9409984D02*
X9926420Y-9409984D01*
X9926420Y-9409984D02*
X9945467Y-9419508D01*
X9945467Y-9419508D02*
X9954991Y-9429031D01*
X9954991Y-9429031D02*
X9964515Y-9448079D01*
X9964515Y-9448079D02*
X9974039Y-9486174D01*
X9974039Y-9486174D02*
X9974039Y-9533793D01*
X9974039Y-9533793D02*
X9964515Y-9571889D01*
X9964515Y-9571889D02*
X9954991Y-9590936D01*
X9954991Y-9590936D02*
X9945467Y-9600460D01*
X9945467Y-9600460D02*
X9926420Y-9609984D01*
X9926420Y-9609984D02*
X9907372Y-9609984D01*
X9907372Y-9609984D02*
X9888324Y-9600460D01*
X9888324Y-9600460D02*
X9878801Y-9590936D01*
X9878801Y-9590936D02*
X9869277Y-9571889D01*
X9869277Y-9571889D02*
X9859753Y-9533793D01*
X9859753Y-9533793D02*
X9859753Y-9486174D01*
X9859753Y-9486174D02*
X9869277Y-9448079D01*
X9869277Y-9448079D02*
X9878801Y-9429031D01*
X9878801Y-9429031D02*
X9888324Y-9419508D01*
X9888324Y-9419508D02*
X9907372Y-9409984D01*
X10059753Y-9590936D02*
X10069277Y-9600460D01*
X10069277Y-9600460D02*
X10059753Y-9609984D01*
X10059753Y-9609984D02*
X10050229Y-9600460D01*
X10050229Y-9600460D02*
X10059753Y-9590936D01*
X10059753Y-9590936D02*
X10059753Y-9609984D01*
X10240705Y-9409984D02*
X10202610Y-9409984D01*
X10202610Y-9409984D02*
X10183563Y-9419508D01*
X10183563Y-9419508D02*
X10174039Y-9429031D01*
X10174039Y-9429031D02*
X10154991Y-9457603D01*
X10154991Y-9457603D02*
X10145467Y-9495698D01*
X10145467Y-9495698D02*
X10145467Y-9571889D01*
X10145467Y-9571889D02*
X10154991Y-9590936D01*
X10154991Y-9590936D02*
X10164515Y-9600460D01*
X10164515Y-9600460D02*
X10183563Y-9609984D01*
X10183563Y-9609984D02*
X10221658Y-9609984D01*
X10221658Y-9609984D02*
X10240705Y-9600460D01*
X10240705Y-9600460D02*
X10250229Y-9590936D01*
X10250229Y-9590936D02*
X10259753Y-9571889D01*
X10259753Y-9571889D02*
X10259753Y-9524270D01*
X10259753Y-9524270D02*
X10250229Y-9505222D01*
X10250229Y-9505222D02*
X10240705Y-9495698D01*
X10240705Y-9495698D02*
X10221658Y-9486174D01*
X10221658Y-9486174D02*
X10183563Y-9486174D01*
X10183563Y-9486174D02*
X10164515Y-9495698D01*
X10164515Y-9495698D02*
X10154991Y-9505222D01*
X10154991Y-9505222D02*
X10145467Y-9524270D01*
X10440705Y-9409984D02*
X10345467Y-9409984D01*
X10345467Y-9409984D02*
X10335944Y-9505222D01*
X10335944Y-9505222D02*
X10345467Y-9495698D01*
X10345467Y-9495698D02*
X10364515Y-9486174D01*
X10364515Y-9486174D02*
X10412134Y-9486174D01*
X10412134Y-9486174D02*
X10431182Y-9495698D01*
X10431182Y-9495698D02*
X10440705Y-9505222D01*
X10440705Y-9505222D02*
X10450229Y-9524270D01*
X10450229Y-9524270D02*
X10450229Y-9571889D01*
X10450229Y-9571889D02*
X10440705Y-9590936D01*
X10440705Y-9590936D02*
X10431182Y-9600460D01*
X10431182Y-9600460D02*
X10412134Y-9609984D01*
X10412134Y-9609984D02*
X10364515Y-9609984D01*
X10364515Y-9609984D02*
X10345467Y-9600460D01*
X10345467Y-9600460D02*
X10335944Y-9590936D01*
X10574039Y-9409984D02*
X10593086Y-9409984D01*
X10593086Y-9409984D02*
X10612134Y-9419508D01*
X10612134Y-9419508D02*
X10621658Y-9429031D01*
X10621658Y-9429031D02*
X10631182Y-9448079D01*
X10631182Y-9448079D02*
X10640705Y-9486174D01*
X10640705Y-9486174D02*
X10640705Y-9533793D01*
X10640705Y-9533793D02*
X10631182Y-9571889D01*
X10631182Y-9571889D02*
X10621658Y-9590936D01*
X10621658Y-9590936D02*
X10612134Y-9600460D01*
X10612134Y-9600460D02*
X10593086Y-9609984D01*
X10593086Y-9609984D02*
X10574039Y-9609984D01*
X10574039Y-9609984D02*
X10554991Y-9600460D01*
X10554991Y-9600460D02*
X10545467Y-9590936D01*
X10545467Y-9590936D02*
X10535944Y-9571889D01*
X10535944Y-9571889D02*
X10526420Y-9533793D01*
X10526420Y-9533793D02*
X10526420Y-9486174D01*
X10526420Y-9486174D02*
X10535944Y-9448079D01*
X10535944Y-9448079D02*
X10545467Y-9429031D01*
X10545467Y-9429031D02*
X10554991Y-9419508D01*
X10554991Y-9419508D02*
X10574039Y-9409984D01*
X10726420Y-9609984D02*
X10726420Y-9476650D01*
X10726420Y-9495698D02*
X10735944Y-9486174D01*
X10735944Y-9486174D02*
X10754991Y-9476650D01*
X10754991Y-9476650D02*
X10783563Y-9476650D01*
X10783563Y-9476650D02*
X10802610Y-9486174D01*
X10802610Y-9486174D02*
X10812134Y-9505222D01*
X10812134Y-9505222D02*
X10812134Y-9609984D01*
X10812134Y-9505222D02*
X10821658Y-9486174D01*
X10821658Y-9486174D02*
X10840705Y-9476650D01*
X10840705Y-9476650D02*
X10869277Y-9476650D01*
X10869277Y-9476650D02*
X10888325Y-9486174D01*
X10888325Y-9486174D02*
X10897848Y-9505222D01*
X10897848Y-9505222D02*
X10897848Y-9609984D01*
X10993086Y-9609984D02*
X10993086Y-9476650D01*
X10993086Y-9495698D02*
X11002610Y-9486174D01*
X11002610Y-9486174D02*
X11021658Y-9476650D01*
X11021658Y-9476650D02*
X11050229Y-9476650D01*
X11050229Y-9476650D02*
X11069277Y-9486174D01*
X11069277Y-9486174D02*
X11078801Y-9505222D01*
X11078801Y-9505222D02*
X11078801Y-9609984D01*
X11078801Y-9505222D02*
X11088325Y-9486174D01*
X11088325Y-9486174D02*
X11107372Y-9476650D01*
X11107372Y-9476650D02*
X11135944Y-9476650D01*
X11135944Y-9476650D02*
X11154991Y-9486174D01*
X11154991Y-9486174D02*
X11164515Y-9505222D01*
X11164515Y-9505222D02*
X11164515Y-9609984D01*
X11554991Y-9400460D02*
X11383563Y-9657603D01*
X11812134Y-9409984D02*
X11831182Y-9409984D01*
X11831182Y-9409984D02*
X11850229Y-9419508D01*
X11850229Y-9419508D02*
X11859753Y-9429031D01*
X11859753Y-9429031D02*
X11869277Y-9448079D01*
X11869277Y-9448079D02*
X11878801Y-9486174D01*
X11878801Y-9486174D02*
X11878801Y-9533793D01*
X11878801Y-9533793D02*
X11869277Y-9571889D01*
X11869277Y-9571889D02*
X11859753Y-9590936D01*
X11859753Y-9590936D02*
X11850229Y-9600460D01*
X11850229Y-9600460D02*
X11831182Y-9609984D01*
X11831182Y-9609984D02*
X11812134Y-9609984D01*
X11812134Y-9609984D02*
X11793086Y-9600460D01*
X11793086Y-9600460D02*
X11783563Y-9590936D01*
X11783563Y-9590936D02*
X11774039Y-9571889D01*
X11774039Y-9571889D02*
X11764515Y-9533793D01*
X11764515Y-9533793D02*
X11764515Y-9486174D01*
X11764515Y-9486174D02*
X11774039Y-9448079D01*
X11774039Y-9448079D02*
X11783563Y-9429031D01*
X11783563Y-9429031D02*
X11793086Y-9419508D01*
X11793086Y-9419508D02*
X11812134Y-9409984D01*
X11964515Y-9590936D02*
X11974039Y-9600460D01*
X11974039Y-9600460D02*
X11964515Y-9609984D01*
X11964515Y-9609984D02*
X11954991Y-9600460D01*
X11954991Y-9600460D02*
X11964515Y-9590936D01*
X11964515Y-9590936D02*
X11964515Y-9609984D01*
X12097848Y-9409984D02*
X12116896Y-9409984D01*
X12116896Y-9409984D02*
X12135944Y-9419508D01*
X12135944Y-9419508D02*
X12145467Y-9429031D01*
X12145467Y-9429031D02*
X12154991Y-9448079D01*
X12154991Y-9448079D02*
X12164515Y-9486174D01*
X12164515Y-9486174D02*
X12164515Y-9533793D01*
X12164515Y-9533793D02*
X12154991Y-9571889D01*
X12154991Y-9571889D02*
X12145467Y-9590936D01*
X12145467Y-9590936D02*
X12135944Y-9600460D01*
X12135944Y-9600460D02*
X12116896Y-9609984D01*
X12116896Y-9609984D02*
X12097848Y-9609984D01*
X12097848Y-9609984D02*
X12078801Y-9600460D01*
X12078801Y-9600460D02*
X12069277Y-9590936D01*
X12069277Y-9590936D02*
X12059753Y-9571889D01*
X12059753Y-9571889D02*
X12050229Y-9533793D01*
X12050229Y-9533793D02*
X12050229Y-9486174D01*
X12050229Y-9486174D02*
X12059753Y-9448079D01*
X12059753Y-9448079D02*
X12069277Y-9429031D01*
X12069277Y-9429031D02*
X12078801Y-9419508D01*
X12078801Y-9419508D02*
X12097848Y-9409984D01*
X12240706Y-9429031D02*
X12250229Y-9419508D01*
X12250229Y-9419508D02*
X12269277Y-9409984D01*
X12269277Y-9409984D02*
X12316896Y-9409984D01*
X12316896Y-9409984D02*
X12335944Y-9419508D01*
X12335944Y-9419508D02*
X12345467Y-9429031D01*
X12345467Y-9429031D02*
X12354991Y-9448079D01*
X12354991Y-9448079D02*
X12354991Y-9467127D01*
X12354991Y-9467127D02*
X12345467Y-9495698D01*
X12345467Y-9495698D02*
X12231182Y-9609984D01*
X12231182Y-9609984D02*
X12354991Y-9609984D01*
X12535944Y-9409984D02*
X12440706Y-9409984D01*
X12440706Y-9409984D02*
X12431182Y-9505222D01*
X12431182Y-9505222D02*
X12440706Y-9495698D01*
X12440706Y-9495698D02*
X12459753Y-9486174D01*
X12459753Y-9486174D02*
X12507372Y-9486174D01*
X12507372Y-9486174D02*
X12526420Y-9495698D01*
X12526420Y-9495698D02*
X12535944Y-9505222D01*
X12535944Y-9505222D02*
X12545467Y-9524270D01*
X12545467Y-9524270D02*
X12545467Y-9571889D01*
X12545467Y-9571889D02*
X12535944Y-9590936D01*
X12535944Y-9590936D02*
X12526420Y-9600460D01*
X12526420Y-9600460D02*
X12507372Y-9609984D01*
X12507372Y-9609984D02*
X12459753Y-9609984D01*
X12459753Y-9609984D02*
X12440706Y-9600460D01*
X12440706Y-9600460D02*
X12431182Y-9590936D01*
X12716896Y-9409984D02*
X12678801Y-9409984D01*
X12678801Y-9409984D02*
X12659753Y-9419508D01*
X12659753Y-9419508D02*
X12650229Y-9429031D01*
X12650229Y-9429031D02*
X12631182Y-9457603D01*
X12631182Y-9457603D02*
X12621658Y-9495698D01*
X12621658Y-9495698D02*
X12621658Y-9571889D01*
X12621658Y-9571889D02*
X12631182Y-9590936D01*
X12631182Y-9590936D02*
X12640706Y-9600460D01*
X12640706Y-9600460D02*
X12659753Y-9609984D01*
X12659753Y-9609984D02*
X12697848Y-9609984D01*
X12697848Y-9609984D02*
X12716896Y-9600460D01*
X12716896Y-9600460D02*
X12726420Y-9590936D01*
X12726420Y-9590936D02*
X12735944Y-9571889D01*
X12735944Y-9571889D02*
X12735944Y-9524270D01*
X12735944Y-9524270D02*
X12726420Y-9505222D01*
X12726420Y-9505222D02*
X12716896Y-9495698D01*
X12716896Y-9495698D02*
X12697848Y-9486174D01*
X12697848Y-9486174D02*
X12659753Y-9486174D01*
X12659753Y-9486174D02*
X12640706Y-9495698D01*
X12640706Y-9495698D02*
X12631182Y-9505222D01*
X12631182Y-9505222D02*
X12621658Y-9524270D01*
X12812134Y-9409984D02*
X12812134Y-9448079D01*
X12888325Y-9409984D02*
X12888325Y-9448079D01*
X13183563Y-9686174D02*
X13174039Y-9676650D01*
X13174039Y-9676650D02*
X13154991Y-9648079D01*
X13154991Y-9648079D02*
X13145468Y-9629031D01*
X13145468Y-9629031D02*
X13135944Y-9600460D01*
X13135944Y-9600460D02*
X13126420Y-9552841D01*
X13126420Y-9552841D02*
X13126420Y-9514746D01*
X13126420Y-9514746D02*
X13135944Y-9467127D01*
X13135944Y-9467127D02*
X13145468Y-9438555D01*
X13145468Y-9438555D02*
X13154991Y-9419508D01*
X13154991Y-9419508D02*
X13174039Y-9390936D01*
X13174039Y-9390936D02*
X13183563Y-9381412D01*
X13250229Y-9429031D02*
X13259753Y-9419508D01*
X13259753Y-9419508D02*
X13278801Y-9409984D01*
X13278801Y-9409984D02*
X13326420Y-9409984D01*
X13326420Y-9409984D02*
X13345468Y-9419508D01*
X13345468Y-9419508D02*
X13354991Y-9429031D01*
X13354991Y-9429031D02*
X13364515Y-9448079D01*
X13364515Y-9448079D02*
X13364515Y-9467127D01*
X13364515Y-9467127D02*
X13354991Y-9495698D01*
X13354991Y-9495698D02*
X13240706Y-9609984D01*
X13240706Y-9609984D02*
X13364515Y-9609984D01*
X13602610Y-9609984D02*
X13602610Y-9409984D01*
X13688325Y-9609984D02*
X13688325Y-9505222D01*
X13688325Y-9505222D02*
X13678801Y-9486174D01*
X13678801Y-9486174D02*
X13659753Y-9476650D01*
X13659753Y-9476650D02*
X13631182Y-9476650D01*
X13631182Y-9476650D02*
X13612134Y-9486174D01*
X13612134Y-9486174D02*
X13602610Y-9495698D01*
X13812134Y-9609984D02*
X13793087Y-9600460D01*
X13793087Y-9600460D02*
X13783563Y-9590936D01*
X13783563Y-9590936D02*
X13774039Y-9571889D01*
X13774039Y-9571889D02*
X13774039Y-9514746D01*
X13774039Y-9514746D02*
X13783563Y-9495698D01*
X13783563Y-9495698D02*
X13793087Y-9486174D01*
X13793087Y-9486174D02*
X13812134Y-9476650D01*
X13812134Y-9476650D02*
X13840706Y-9476650D01*
X13840706Y-9476650D02*
X13859753Y-9486174D01*
X13859753Y-9486174D02*
X13869277Y-9495698D01*
X13869277Y-9495698D02*
X13878801Y-9514746D01*
X13878801Y-9514746D02*
X13878801Y-9571889D01*
X13878801Y-9571889D02*
X13869277Y-9590936D01*
X13869277Y-9590936D02*
X13859753Y-9600460D01*
X13859753Y-9600460D02*
X13840706Y-9609984D01*
X13840706Y-9609984D02*
X13812134Y-9609984D01*
X13993087Y-9609984D02*
X13974039Y-9600460D01*
X13974039Y-9600460D02*
X13964515Y-9581412D01*
X13964515Y-9581412D02*
X13964515Y-9409984D01*
X14145468Y-9600460D02*
X14126420Y-9609984D01*
X14126420Y-9609984D02*
X14088325Y-9609984D01*
X14088325Y-9609984D02*
X14069277Y-9600460D01*
X14069277Y-9600460D02*
X14059753Y-9581412D01*
X14059753Y-9581412D02*
X14059753Y-9505222D01*
X14059753Y-9505222D02*
X14069277Y-9486174D01*
X14069277Y-9486174D02*
X14088325Y-9476650D01*
X14088325Y-9476650D02*
X14126420Y-9476650D01*
X14126420Y-9476650D02*
X14145468Y-9486174D01*
X14145468Y-9486174D02*
X14154991Y-9505222D01*
X14154991Y-9505222D02*
X14154991Y-9524270D01*
X14154991Y-9524270D02*
X14059753Y-9543317D01*
X14231182Y-9600460D02*
X14250230Y-9609984D01*
X14250230Y-9609984D02*
X14288325Y-9609984D01*
X14288325Y-9609984D02*
X14307372Y-9600460D01*
X14307372Y-9600460D02*
X14316896Y-9581412D01*
X14316896Y-9581412D02*
X14316896Y-9571889D01*
X14316896Y-9571889D02*
X14307372Y-9552841D01*
X14307372Y-9552841D02*
X14288325Y-9543317D01*
X14288325Y-9543317D02*
X14259753Y-9543317D01*
X14259753Y-9543317D02*
X14240706Y-9533793D01*
X14240706Y-9533793D02*
X14231182Y-9514746D01*
X14231182Y-9514746D02*
X14231182Y-9505222D01*
X14231182Y-9505222D02*
X14240706Y-9486174D01*
X14240706Y-9486174D02*
X14259753Y-9476650D01*
X14259753Y-9476650D02*
X14288325Y-9476650D01*
X14288325Y-9476650D02*
X14307372Y-9486174D01*
X14383563Y-9686174D02*
X14393087Y-9676650D01*
X14393087Y-9676650D02*
X14412134Y-9648079D01*
X14412134Y-9648079D02*
X14421658Y-9629031D01*
X14421658Y-9629031D02*
X14431182Y-9600460D01*
X14431182Y-9600460D02*
X14440706Y-9552841D01*
X14440706Y-9552841D02*
X14440706Y-9514746D01*
X14440706Y-9514746D02*
X14431182Y-9467127D01*
X14431182Y-9467127D02*
X14421658Y-9438555D01*
X14421658Y-9438555D02*
X14412134Y-9419508D01*
X14412134Y-9419508D02*
X14393087Y-9390936D01*
X14393087Y-9390936D02*
X14383563Y-9381412D01*
X14745468Y-9686174D02*
X14735944Y-9676650D01*
X14735944Y-9676650D02*
X14716896Y-9648079D01*
X14716896Y-9648079D02*
X14707372Y-9629031D01*
X14707372Y-9629031D02*
X14697849Y-9600460D01*
X14697849Y-9600460D02*
X14688325Y-9552841D01*
X14688325Y-9552841D02*
X14688325Y-9514746D01*
X14688325Y-9514746D02*
X14697849Y-9467127D01*
X14697849Y-9467127D02*
X14707372Y-9438555D01*
X14707372Y-9438555D02*
X14716896Y-9419508D01*
X14716896Y-9419508D02*
X14735944Y-9390936D01*
X14735944Y-9390936D02*
X14745468Y-9381412D01*
X14821658Y-9476650D02*
X14821658Y-9609984D01*
X14821658Y-9495698D02*
X14831182Y-9486174D01*
X14831182Y-9486174D02*
X14850230Y-9476650D01*
X14850230Y-9476650D02*
X14878801Y-9476650D01*
X14878801Y-9476650D02*
X14897849Y-9486174D01*
X14897849Y-9486174D02*
X14907372Y-9505222D01*
X14907372Y-9505222D02*
X14907372Y-9609984D01*
X15031182Y-9609984D02*
X15012134Y-9600460D01*
X15012134Y-9600460D02*
X15002611Y-9590936D01*
X15002611Y-9590936D02*
X14993087Y-9571889D01*
X14993087Y-9571889D02*
X14993087Y-9514746D01*
X14993087Y-9514746D02*
X15002611Y-9495698D01*
X15002611Y-9495698D02*
X15012134Y-9486174D01*
X15012134Y-9486174D02*
X15031182Y-9476650D01*
X15031182Y-9476650D02*
X15059753Y-9476650D01*
X15059753Y-9476650D02*
X15078801Y-9486174D01*
X15078801Y-9486174D02*
X15088325Y-9495698D01*
X15088325Y-9495698D02*
X15097849Y-9514746D01*
X15097849Y-9514746D02*
X15097849Y-9571889D01*
X15097849Y-9571889D02*
X15088325Y-9590936D01*
X15088325Y-9590936D02*
X15078801Y-9600460D01*
X15078801Y-9600460D02*
X15059753Y-9609984D01*
X15059753Y-9609984D02*
X15031182Y-9609984D01*
X15154992Y-9476650D02*
X15231182Y-9476650D01*
X15183563Y-9409984D02*
X15183563Y-9581412D01*
X15183563Y-9581412D02*
X15193087Y-9600460D01*
X15193087Y-9600460D02*
X15212134Y-9609984D01*
X15212134Y-9609984D02*
X15231182Y-9609984D01*
X15450230Y-9476650D02*
X15450230Y-9676650D01*
X15450230Y-9486174D02*
X15469277Y-9476650D01*
X15469277Y-9476650D02*
X15507373Y-9476650D01*
X15507373Y-9476650D02*
X15526420Y-9486174D01*
X15526420Y-9486174D02*
X15535944Y-9495698D01*
X15535944Y-9495698D02*
X15545468Y-9514746D01*
X15545468Y-9514746D02*
X15545468Y-9571889D01*
X15545468Y-9571889D02*
X15535944Y-9590936D01*
X15535944Y-9590936D02*
X15526420Y-9600460D01*
X15526420Y-9600460D02*
X15507373Y-9609984D01*
X15507373Y-9609984D02*
X15469277Y-9609984D01*
X15469277Y-9609984D02*
X15450230Y-9600460D01*
X15659753Y-9609984D02*
X15640706Y-9600460D01*
X15640706Y-9600460D02*
X15631182Y-9581412D01*
X15631182Y-9581412D02*
X15631182Y-9409984D01*
X15821658Y-9609984D02*
X15821658Y-9505222D01*
X15821658Y-9505222D02*
X15812134Y-9486174D01*
X15812134Y-9486174D02*
X15793087Y-9476650D01*
X15793087Y-9476650D02*
X15754992Y-9476650D01*
X15754992Y-9476650D02*
X15735944Y-9486174D01*
X15821658Y-9600460D02*
X15802611Y-9609984D01*
X15802611Y-9609984D02*
X15754992Y-9609984D01*
X15754992Y-9609984D02*
X15735944Y-9600460D01*
X15735944Y-9600460D02*
X15726420Y-9581412D01*
X15726420Y-9581412D02*
X15726420Y-9562365D01*
X15726420Y-9562365D02*
X15735944Y-9543317D01*
X15735944Y-9543317D02*
X15754992Y-9533793D01*
X15754992Y-9533793D02*
X15802611Y-9533793D01*
X15802611Y-9533793D02*
X15821658Y-9524270D01*
X15888325Y-9476650D02*
X15964515Y-9476650D01*
X15916896Y-9409984D02*
X15916896Y-9581412D01*
X15916896Y-9581412D02*
X15926420Y-9600460D01*
X15926420Y-9600460D02*
X15945468Y-9609984D01*
X15945468Y-9609984D02*
X15964515Y-9609984D01*
X16107373Y-9600460D02*
X16088325Y-9609984D01*
X16088325Y-9609984D02*
X16050230Y-9609984D01*
X16050230Y-9609984D02*
X16031182Y-9600460D01*
X16031182Y-9600460D02*
X16021658Y-9581412D01*
X16021658Y-9581412D02*
X16021658Y-9505222D01*
X16021658Y-9505222D02*
X16031182Y-9486174D01*
X16031182Y-9486174D02*
X16050230Y-9476650D01*
X16050230Y-9476650D02*
X16088325Y-9476650D01*
X16088325Y-9476650D02*
X16107373Y-9486174D01*
X16107373Y-9486174D02*
X16116896Y-9505222D01*
X16116896Y-9505222D02*
X16116896Y-9524270D01*
X16116896Y-9524270D02*
X16021658Y-9543317D01*
X16288325Y-9609984D02*
X16288325Y-9409984D01*
X16288325Y-9600460D02*
X16269277Y-9609984D01*
X16269277Y-9609984D02*
X16231182Y-9609984D01*
X16231182Y-9609984D02*
X16212134Y-9600460D01*
X16212134Y-9600460D02*
X16202611Y-9590936D01*
X16202611Y-9590936D02*
X16193087Y-9571889D01*
X16193087Y-9571889D02*
X16193087Y-9514746D01*
X16193087Y-9514746D02*
X16202611Y-9495698D01*
X16202611Y-9495698D02*
X16212134Y-9486174D01*
X16212134Y-9486174D02*
X16231182Y-9476650D01*
X16231182Y-9476650D02*
X16269277Y-9476650D01*
X16269277Y-9476650D02*
X16288325Y-9486174D01*
X16364515Y-9686174D02*
X16374039Y-9676650D01*
X16374039Y-9676650D02*
X16393087Y-9648079D01*
X16393087Y-9648079D02*
X16402611Y-9629031D01*
X16402611Y-9629031D02*
X16412134Y-9600460D01*
X16412134Y-9600460D02*
X16421658Y-9552841D01*
X16421658Y-9552841D02*
X16421658Y-9514746D01*
X16421658Y-9514746D02*
X16412134Y-9467127D01*
X16412134Y-9467127D02*
X16402611Y-9438555D01*
X16402611Y-9438555D02*
X16393087Y-9419508D01*
X16393087Y-9419508D02*
X16374039Y-9390936D01*
X16374039Y-9390936D02*
X16364515Y-9381412D01*
M02*
