%TF.GenerationSoftware,KiCad,Pcbnew,8.0.5*%
%TF.CreationDate,2024-09-22T09:32:32+02:00*%
%TF.ProjectId,nPM1300-breakout,6e504d31-3330-4302-9d62-7265616b6f75,rev?*%
%TF.SameCoordinates,Original*%
%TF.FileFunction,Drillmap*%
%TF.FilePolarity,Positive*%
%FSLAX45Y45*%
G04 Gerber Fmt 4.5, Leading zero omitted, Abs format (unit mm)*
G04 Created by KiCad (PCBNEW 8.0.5) date 2024-09-22 09:32:32*
%MOMM*%
%LPD*%
G01*
G04 APERTURE LIST*
%ADD10C,0.050000*%
%ADD11C,0.200000*%
%ADD12C,0.100000*%
G04 APERTURE END LIST*
D10*
X13607000Y-8826000D02*
G75*
G02*
X13557000Y-8876000I-50000J0D01*
G01*
X9611000Y-8826000D02*
X9611000Y-6023000D01*
X9661000Y-5973000D02*
X13557000Y-5973000D01*
X13607000Y-6023000D02*
X13607000Y-8826000D01*
X9611000Y-6023000D02*
G75*
G02*
X9661000Y-5973000I50000J0D01*
G01*
X13557000Y-5973000D02*
G75*
G02*
X13607000Y-6023000I0J-50000D01*
G01*
X13557000Y-8876000D02*
X9661000Y-8876000D01*
X9661000Y-8876000D02*
G75*
G02*
X9611000Y-8826000I0J50000D01*
G01*
D11*
D12*
X10085000Y-6141000D02*
X10115000Y-6171000D01*
X10115000Y-6141000D02*
X10085000Y-6171000D01*
X10085000Y-6320000D02*
X10115000Y-6350000D01*
X10115000Y-6320000D02*
X10085000Y-6350000D01*
X10085000Y-6506000D02*
X10115000Y-6536000D01*
X10115000Y-6506000D02*
X10085000Y-6536000D01*
X10268000Y-8338000D02*
X10298000Y-8368000D01*
X10298000Y-8338000D02*
X10268000Y-8368000D01*
X10351000Y-6194000D02*
X10381000Y-6224000D01*
X10381000Y-6194000D02*
X10351000Y-6224000D01*
X10455000Y-7543000D02*
X10485000Y-7573000D01*
X10485000Y-7543000D02*
X10455000Y-7573000D01*
X10467000Y-6800000D02*
X10497000Y-6830000D01*
X10497000Y-6800000D02*
X10467000Y-6830000D01*
X10509000Y-6325000D02*
X10539000Y-6355000D01*
X10539000Y-6325000D02*
X10509000Y-6355000D01*
X10675000Y-8117000D02*
X10705000Y-8147000D01*
X10705000Y-8117000D02*
X10675000Y-8147000D01*
X10793000Y-8195000D02*
X10823000Y-8225000D01*
X10823000Y-8195000D02*
X10793000Y-8225000D01*
X10926000Y-6331000D02*
X10956000Y-6361000D01*
X10956000Y-6331000D02*
X10926000Y-6361000D01*
X11087000Y-7262000D02*
X11117000Y-7292000D01*
X11117000Y-7262000D02*
X11087000Y-7292000D01*
X11089000Y-7618000D02*
X11119000Y-7648000D01*
X11119000Y-7618000D02*
X11089000Y-7648000D01*
X11233000Y-8117000D02*
X11263000Y-8147000D01*
X11263000Y-8117000D02*
X11233000Y-8147000D01*
X11270000Y-7817000D02*
X11300000Y-7847000D01*
X11300000Y-7817000D02*
X11270000Y-7847000D01*
X11290000Y-8195000D02*
X11320000Y-8225000D01*
X11320000Y-8195000D02*
X11290000Y-8225000D01*
X11322000Y-7258000D02*
X11352000Y-7288000D01*
X11352000Y-7258000D02*
X11322000Y-7288000D01*
X11360000Y-7712000D02*
X11390000Y-7742000D01*
X11390000Y-7712000D02*
X11360000Y-7742000D01*
X11410000Y-7762436D02*
X11440000Y-7792436D01*
X11440000Y-7762436D02*
X11410000Y-7792436D01*
X11473000Y-7763000D02*
X11503000Y-7793000D01*
X11503000Y-7763000D02*
X11473000Y-7793000D01*
X11479000Y-6763000D02*
X11509000Y-6793000D01*
X11509000Y-6763000D02*
X11479000Y-6793000D01*
X11533000Y-7763000D02*
X11563000Y-7793000D01*
X11563000Y-7763000D02*
X11533000Y-7793000D01*
X11560000Y-7324000D02*
X11590000Y-7354000D01*
X11590000Y-7324000D02*
X11560000Y-7354000D01*
X11560000Y-7432000D02*
X11590000Y-7462000D01*
X11590000Y-7432000D02*
X11560000Y-7462000D01*
X11560000Y-7537000D02*
X11590000Y-7567000D01*
X11590000Y-7537000D02*
X11560000Y-7567000D01*
X11588000Y-6942000D02*
X11618000Y-6972000D01*
X11618000Y-6942000D02*
X11588000Y-6972000D01*
X11592000Y-6825000D02*
X11622000Y-6855000D01*
X11622000Y-6825000D02*
X11592000Y-6855000D01*
X11593000Y-7763000D02*
X11623000Y-7793000D01*
X11623000Y-7763000D02*
X11593000Y-7793000D01*
X11668000Y-7324000D02*
X11698000Y-7354000D01*
X11698000Y-7324000D02*
X11668000Y-7354000D01*
X11668000Y-7432000D02*
X11698000Y-7462000D01*
X11698000Y-7432000D02*
X11668000Y-7462000D01*
X11668000Y-7538000D02*
X11698000Y-7568000D01*
X11698000Y-7538000D02*
X11668000Y-7568000D01*
X11708000Y-7025000D02*
X11738000Y-7055000D01*
X11738000Y-7025000D02*
X11708000Y-7055000D01*
X11748000Y-7097000D02*
X11778000Y-7127000D01*
X11778000Y-7097000D02*
X11748000Y-7127000D01*
X11774000Y-7324000D02*
X11804000Y-7354000D01*
X11804000Y-7324000D02*
X11774000Y-7354000D01*
X11774000Y-7433000D02*
X11804000Y-7463000D01*
X11804000Y-7433000D02*
X11774000Y-7463000D01*
X11774000Y-7538000D02*
X11804000Y-7568000D01*
X11804000Y-7538000D02*
X11774000Y-7568000D01*
X11807000Y-7921000D02*
X11837000Y-7951000D01*
X11837000Y-7921000D02*
X11807000Y-7951000D01*
X11807000Y-8117000D02*
X11837000Y-8147000D01*
X11837000Y-8117000D02*
X11807000Y-8147000D01*
X11808000Y-7097000D02*
X11838000Y-7127000D01*
X11838000Y-7097000D02*
X11808000Y-7127000D01*
X11868000Y-7097000D02*
X11898000Y-7127000D01*
X11898000Y-7097000D02*
X11868000Y-7127000D01*
X11928000Y-7097000D02*
X11958000Y-7127000D01*
X11958000Y-7097000D02*
X11928000Y-7127000D01*
X11940000Y-7661000D02*
X11970000Y-7691000D01*
X11970000Y-7661000D02*
X11940000Y-7691000D01*
X11955000Y-8116000D02*
X11985000Y-8146000D01*
X11985000Y-8116000D02*
X11955000Y-8146000D01*
X11956000Y-7924000D02*
X11986000Y-7954000D01*
X11986000Y-7924000D02*
X11956000Y-7954000D01*
X11988000Y-7097000D02*
X12018000Y-7127000D01*
X12018000Y-7097000D02*
X11988000Y-7127000D01*
X12050000Y-8518000D02*
X12080000Y-8548000D01*
X12080000Y-8518000D02*
X12050000Y-8548000D01*
X12130166Y-7465204D02*
X12160166Y-7495204D01*
X12160166Y-7465204D02*
X12130166Y-7495204D01*
X12188000Y-8011000D02*
X12218000Y-8041000D01*
X12218000Y-8011000D02*
X12188000Y-8041000D01*
X12211000Y-6866000D02*
X12241000Y-6896000D01*
X12241000Y-6866000D02*
X12211000Y-6896000D01*
X12293000Y-7288000D02*
X12323000Y-7318000D01*
X12323000Y-7288000D02*
X12293000Y-7318000D01*
X12293000Y-7398000D02*
X12323000Y-7428000D01*
X12323000Y-7398000D02*
X12293000Y-7428000D01*
X12315000Y-7718000D02*
X12345000Y-7748000D01*
X12345000Y-7718000D02*
X12315000Y-7748000D01*
X12350000Y-8539000D02*
X12380000Y-8569000D01*
X12380000Y-8539000D02*
X12350000Y-8569000D01*
X12457000Y-8439000D02*
X12487000Y-8469000D01*
X12487000Y-8439000D02*
X12457000Y-8469000D01*
X12638000Y-6557000D02*
X12668000Y-6587000D01*
X12668000Y-6557000D02*
X12638000Y-6587000D01*
X12643000Y-6840000D02*
X12673000Y-6870000D01*
X12673000Y-6840000D02*
X12643000Y-6870000D01*
X12890000Y-6830000D02*
X12920000Y-6860000D01*
X12920000Y-6830000D02*
X12890000Y-6860000D01*
X12892000Y-6565000D02*
X12922000Y-6595000D01*
X12922000Y-6565000D02*
X12892000Y-6595000D01*
X12969000Y-8519000D02*
X12999000Y-8549000D01*
X12999000Y-8519000D02*
X12969000Y-8549000D01*
X12089703Y-7462000D02*
G75*
G02*
X12054703Y-7462000I-17500J0D01*
G01*
X12054703Y-7462000D02*
G75*
G02*
X12089703Y-7462000I17500J0D01*
G01*
X11014000Y-7872000D02*
X11014000Y-7912000D01*
X10994000Y-7892000D02*
X11034000Y-7892000D01*
X11016000Y-7352000D02*
X11016000Y-7392000D01*
X10996000Y-7372000D02*
X11036000Y-7372000D01*
X11440000Y-7174000D02*
X11440000Y-7214000D01*
X11420000Y-7194000D02*
X11460000Y-7194000D01*
X9891213Y-6773213D02*
X9891213Y-6730787D01*
X9848787Y-6730787D01*
X9848787Y-6773213D01*
X9891213Y-6773213D01*
X9910000Y-6722000D02*
X9830000Y-6722000D01*
X9830000Y-6782000D02*
G75*
G02*
X9830000Y-6722000I0J30000D01*
G01*
X9830000Y-6782000D02*
X9910000Y-6782000D01*
X9910000Y-6782000D02*
G75*
G03*
X9910000Y-6722000I0J30000D01*
G01*
X9891213Y-7637213D02*
X9891213Y-7594787D01*
X9848787Y-7594787D01*
X9848787Y-7637213D01*
X9891213Y-7637213D01*
X9910000Y-7586000D02*
X9830000Y-7586000D01*
X9830000Y-7646000D02*
G75*
G02*
X9830000Y-7586000I0J30000D01*
G01*
X9830000Y-7646000D02*
X9910000Y-7646000D01*
X9910000Y-7646000D02*
G75*
G03*
X9910000Y-7586000I0J30000D01*
G01*
X10309213Y-6773213D02*
X10309213Y-6730787D01*
X10266787Y-6730787D01*
X10266787Y-6773213D01*
X10309213Y-6773213D01*
X10343000Y-6722000D02*
X10233000Y-6722000D01*
X10233000Y-6782000D02*
G75*
G02*
X10233000Y-6722000I0J30000D01*
G01*
X10233000Y-6782000D02*
X10343000Y-6782000D01*
X10343000Y-6782000D02*
G75*
G03*
X10343000Y-6722000I0J30000D01*
G01*
X10309213Y-7637213D02*
X10309213Y-7594787D01*
X10266787Y-7594787D01*
X10266787Y-7637213D01*
X10309213Y-7637213D01*
X10343000Y-7586000D02*
X10233000Y-7586000D01*
X10233000Y-7646000D02*
G75*
G02*
X10233000Y-7586000I0J30000D01*
G01*
X10233000Y-7646000D02*
X10343000Y-7646000D01*
X10343000Y-7646000D02*
G75*
G03*
X10343000Y-7586000I0J30000D01*
G01*
X11547525Y-8704000D02*
X11597525Y-8654000D01*
X11547525Y-8604000D01*
X11497525Y-8654000D01*
X11547525Y-8704000D01*
X11548525Y-6246000D02*
X11598525Y-6196000D01*
X11548525Y-6146000D01*
X11498525Y-6196000D01*
X11548525Y-6246000D01*
X11801525Y-8704000D02*
X11851525Y-8654000D01*
X11801525Y-8604000D01*
X11751525Y-8654000D01*
X11801525Y-8704000D01*
X11802525Y-6246000D02*
X11852525Y-6196000D01*
X11802525Y-6146000D01*
X11752525Y-6196000D01*
X11802525Y-6246000D01*
X13139000Y-6243000D02*
X13189000Y-6193000D01*
X13139000Y-6143000D01*
X13089000Y-6193000D01*
X13139000Y-6243000D01*
X13139000Y-6497000D02*
X13189000Y-6447000D01*
X13139000Y-6397000D01*
X13089000Y-6447000D01*
X13139000Y-6497000D01*
X13139000Y-6751000D02*
X13189000Y-6701000D01*
X13139000Y-6651000D01*
X13089000Y-6701000D01*
X13139000Y-6751000D01*
X13139000Y-7005000D02*
X13189000Y-6955000D01*
X13139000Y-6905000D01*
X13089000Y-6955000D01*
X13139000Y-7005000D01*
X13139000Y-7259000D02*
X13189000Y-7209000D01*
X13139000Y-7159000D01*
X13089000Y-7209000D01*
X13139000Y-7259000D01*
X13393000Y-6243000D02*
X13443000Y-6193000D01*
X13393000Y-6143000D01*
X13343000Y-6193000D01*
X13393000Y-6243000D01*
X13393000Y-6497000D02*
X13443000Y-6447000D01*
X13393000Y-6397000D01*
X13343000Y-6447000D01*
X13393000Y-6497000D01*
X13393000Y-6751000D02*
X13443000Y-6701000D01*
X13393000Y-6651000D01*
X13343000Y-6701000D01*
X13393000Y-6751000D01*
X13393000Y-7005000D02*
X13443000Y-6955000D01*
X13393000Y-6905000D01*
X13343000Y-6955000D01*
X13393000Y-7005000D01*
X13393000Y-7259000D02*
X13443000Y-7209000D01*
X13393000Y-7159000D01*
X13343000Y-7209000D01*
X13393000Y-7259000D01*
X13394000Y-7683000D02*
X13444000Y-7633000D01*
X13394000Y-7583000D01*
X13344000Y-7633000D01*
X13394000Y-7683000D01*
X13394000Y-7937000D02*
X13444000Y-7887000D01*
X13394000Y-7837000D01*
X13344000Y-7887000D01*
X13394000Y-7937000D01*
X13394000Y-8191000D02*
X13444000Y-8141000D01*
X13394000Y-8091000D01*
X13344000Y-8141000D01*
X13394000Y-8191000D01*
X13394000Y-8445000D02*
X13444000Y-8395000D01*
X13394000Y-8345000D01*
X13344000Y-8395000D01*
X13394000Y-8445000D01*
X13394000Y-8699000D02*
X13444000Y-8649000D01*
X13394000Y-8599000D01*
X13344000Y-8649000D01*
X13394000Y-8699000D01*
D11*
X9869277Y-9189984D02*
X9869277Y-8989984D01*
X9869277Y-8989984D02*
X9916896Y-8989984D01*
X9916896Y-8989984D02*
X9945467Y-8999508D01*
X9945467Y-8999508D02*
X9964515Y-9018555D01*
X9964515Y-9018555D02*
X9974039Y-9037603D01*
X9974039Y-9037603D02*
X9983563Y-9075698D01*
X9983563Y-9075698D02*
X9983563Y-9104270D01*
X9983563Y-9104270D02*
X9974039Y-9142365D01*
X9974039Y-9142365D02*
X9964515Y-9161412D01*
X9964515Y-9161412D02*
X9945467Y-9180460D01*
X9945467Y-9180460D02*
X9916896Y-9189984D01*
X9916896Y-9189984D02*
X9869277Y-9189984D01*
X10069277Y-9189984D02*
X10069277Y-9056650D01*
X10069277Y-9094746D02*
X10078801Y-9075698D01*
X10078801Y-9075698D02*
X10088324Y-9066174D01*
X10088324Y-9066174D02*
X10107372Y-9056650D01*
X10107372Y-9056650D02*
X10126420Y-9056650D01*
X10193086Y-9189984D02*
X10193086Y-9056650D01*
X10193086Y-8989984D02*
X10183563Y-8999508D01*
X10183563Y-8999508D02*
X10193086Y-9009031D01*
X10193086Y-9009031D02*
X10202610Y-8999508D01*
X10202610Y-8999508D02*
X10193086Y-8989984D01*
X10193086Y-8989984D02*
X10193086Y-9009031D01*
X10316896Y-9189984D02*
X10297848Y-9180460D01*
X10297848Y-9180460D02*
X10288324Y-9161412D01*
X10288324Y-9161412D02*
X10288324Y-8989984D01*
X10421658Y-9189984D02*
X10402610Y-9180460D01*
X10402610Y-9180460D02*
X10393086Y-9161412D01*
X10393086Y-9161412D02*
X10393086Y-8989984D01*
X10650229Y-9189984D02*
X10650229Y-8989984D01*
X10650229Y-8989984D02*
X10716896Y-9132841D01*
X10716896Y-9132841D02*
X10783563Y-8989984D01*
X10783563Y-8989984D02*
X10783563Y-9189984D01*
X10964515Y-9189984D02*
X10964515Y-9085222D01*
X10964515Y-9085222D02*
X10954991Y-9066174D01*
X10954991Y-9066174D02*
X10935944Y-9056650D01*
X10935944Y-9056650D02*
X10897848Y-9056650D01*
X10897848Y-9056650D02*
X10878801Y-9066174D01*
X10964515Y-9180460D02*
X10945467Y-9189984D01*
X10945467Y-9189984D02*
X10897848Y-9189984D01*
X10897848Y-9189984D02*
X10878801Y-9180460D01*
X10878801Y-9180460D02*
X10869277Y-9161412D01*
X10869277Y-9161412D02*
X10869277Y-9142365D01*
X10869277Y-9142365D02*
X10878801Y-9123317D01*
X10878801Y-9123317D02*
X10897848Y-9113793D01*
X10897848Y-9113793D02*
X10945467Y-9113793D01*
X10945467Y-9113793D02*
X10964515Y-9104270D01*
X11059753Y-9056650D02*
X11059753Y-9256650D01*
X11059753Y-9066174D02*
X11078801Y-9056650D01*
X11078801Y-9056650D02*
X11116896Y-9056650D01*
X11116896Y-9056650D02*
X11135944Y-9066174D01*
X11135944Y-9066174D02*
X11145467Y-9075698D01*
X11145467Y-9075698D02*
X11154991Y-9094746D01*
X11154991Y-9094746D02*
X11154991Y-9151889D01*
X11154991Y-9151889D02*
X11145467Y-9170936D01*
X11145467Y-9170936D02*
X11135944Y-9180460D01*
X11135944Y-9180460D02*
X11116896Y-9189984D01*
X11116896Y-9189984D02*
X11078801Y-9189984D01*
X11078801Y-9189984D02*
X11059753Y-9180460D01*
X11240705Y-9170936D02*
X11250229Y-9180460D01*
X11250229Y-9180460D02*
X11240705Y-9189984D01*
X11240705Y-9189984D02*
X11231182Y-9180460D01*
X11231182Y-9180460D02*
X11240705Y-9170936D01*
X11240705Y-9170936D02*
X11240705Y-9189984D01*
X11240705Y-9066174D02*
X11250229Y-9075698D01*
X11250229Y-9075698D02*
X11240705Y-9085222D01*
X11240705Y-9085222D02*
X11231182Y-9075698D01*
X11231182Y-9075698D02*
X11240705Y-9066174D01*
X11240705Y-9066174D02*
X11240705Y-9085222D01*
D12*
X9578500Y-9503500D02*
X9608500Y-9533500D01*
X9608500Y-9503500D02*
X9578500Y-9533500D01*
D11*
X9907372Y-9409984D02*
X9926420Y-9409984D01*
X9926420Y-9409984D02*
X9945467Y-9419508D01*
X9945467Y-9419508D02*
X9954991Y-9429031D01*
X9954991Y-9429031D02*
X9964515Y-9448079D01*
X9964515Y-9448079D02*
X9974039Y-9486174D01*
X9974039Y-9486174D02*
X9974039Y-9533793D01*
X9974039Y-9533793D02*
X9964515Y-9571889D01*
X9964515Y-9571889D02*
X9954991Y-9590936D01*
X9954991Y-9590936D02*
X9945467Y-9600460D01*
X9945467Y-9600460D02*
X9926420Y-9609984D01*
X9926420Y-9609984D02*
X9907372Y-9609984D01*
X9907372Y-9609984D02*
X9888324Y-9600460D01*
X9888324Y-9600460D02*
X9878801Y-9590936D01*
X9878801Y-9590936D02*
X9869277Y-9571889D01*
X9869277Y-9571889D02*
X9859753Y-9533793D01*
X9859753Y-9533793D02*
X9859753Y-9486174D01*
X9859753Y-9486174D02*
X9869277Y-9448079D01*
X9869277Y-9448079D02*
X9878801Y-9429031D01*
X9878801Y-9429031D02*
X9888324Y-9419508D01*
X9888324Y-9419508D02*
X9907372Y-9409984D01*
X10059753Y-9590936D02*
X10069277Y-9600460D01*
X10069277Y-9600460D02*
X10059753Y-9609984D01*
X10059753Y-9609984D02*
X10050229Y-9600460D01*
X10050229Y-9600460D02*
X10059753Y-9590936D01*
X10059753Y-9590936D02*
X10059753Y-9609984D01*
X10135944Y-9409984D02*
X10259753Y-9409984D01*
X10259753Y-9409984D02*
X10193086Y-9486174D01*
X10193086Y-9486174D02*
X10221658Y-9486174D01*
X10221658Y-9486174D02*
X10240705Y-9495698D01*
X10240705Y-9495698D02*
X10250229Y-9505222D01*
X10250229Y-9505222D02*
X10259753Y-9524270D01*
X10259753Y-9524270D02*
X10259753Y-9571889D01*
X10259753Y-9571889D02*
X10250229Y-9590936D01*
X10250229Y-9590936D02*
X10240705Y-9600460D01*
X10240705Y-9600460D02*
X10221658Y-9609984D01*
X10221658Y-9609984D02*
X10164515Y-9609984D01*
X10164515Y-9609984D02*
X10145467Y-9600460D01*
X10145467Y-9600460D02*
X10135944Y-9590936D01*
X10383563Y-9409984D02*
X10402610Y-9409984D01*
X10402610Y-9409984D02*
X10421658Y-9419508D01*
X10421658Y-9419508D02*
X10431182Y-9429031D01*
X10431182Y-9429031D02*
X10440705Y-9448079D01*
X10440705Y-9448079D02*
X10450229Y-9486174D01*
X10450229Y-9486174D02*
X10450229Y-9533793D01*
X10450229Y-9533793D02*
X10440705Y-9571889D01*
X10440705Y-9571889D02*
X10431182Y-9590936D01*
X10431182Y-9590936D02*
X10421658Y-9600460D01*
X10421658Y-9600460D02*
X10402610Y-9609984D01*
X10402610Y-9609984D02*
X10383563Y-9609984D01*
X10383563Y-9609984D02*
X10364515Y-9600460D01*
X10364515Y-9600460D02*
X10354991Y-9590936D01*
X10354991Y-9590936D02*
X10345467Y-9571889D01*
X10345467Y-9571889D02*
X10335944Y-9533793D01*
X10335944Y-9533793D02*
X10335944Y-9486174D01*
X10335944Y-9486174D02*
X10345467Y-9448079D01*
X10345467Y-9448079D02*
X10354991Y-9429031D01*
X10354991Y-9429031D02*
X10364515Y-9419508D01*
X10364515Y-9419508D02*
X10383563Y-9409984D01*
X10574039Y-9409984D02*
X10593086Y-9409984D01*
X10593086Y-9409984D02*
X10612134Y-9419508D01*
X10612134Y-9419508D02*
X10621658Y-9429031D01*
X10621658Y-9429031D02*
X10631182Y-9448079D01*
X10631182Y-9448079D02*
X10640705Y-9486174D01*
X10640705Y-9486174D02*
X10640705Y-9533793D01*
X10640705Y-9533793D02*
X10631182Y-9571889D01*
X10631182Y-9571889D02*
X10621658Y-9590936D01*
X10621658Y-9590936D02*
X10612134Y-9600460D01*
X10612134Y-9600460D02*
X10593086Y-9609984D01*
X10593086Y-9609984D02*
X10574039Y-9609984D01*
X10574039Y-9609984D02*
X10554991Y-9600460D01*
X10554991Y-9600460D02*
X10545467Y-9590936D01*
X10545467Y-9590936D02*
X10535944Y-9571889D01*
X10535944Y-9571889D02*
X10526420Y-9533793D01*
X10526420Y-9533793D02*
X10526420Y-9486174D01*
X10526420Y-9486174D02*
X10535944Y-9448079D01*
X10535944Y-9448079D02*
X10545467Y-9429031D01*
X10545467Y-9429031D02*
X10554991Y-9419508D01*
X10554991Y-9419508D02*
X10574039Y-9409984D01*
X10726420Y-9609984D02*
X10726420Y-9476650D01*
X10726420Y-9495698D02*
X10735944Y-9486174D01*
X10735944Y-9486174D02*
X10754991Y-9476650D01*
X10754991Y-9476650D02*
X10783563Y-9476650D01*
X10783563Y-9476650D02*
X10802610Y-9486174D01*
X10802610Y-9486174D02*
X10812134Y-9505222D01*
X10812134Y-9505222D02*
X10812134Y-9609984D01*
X10812134Y-9505222D02*
X10821658Y-9486174D01*
X10821658Y-9486174D02*
X10840705Y-9476650D01*
X10840705Y-9476650D02*
X10869277Y-9476650D01*
X10869277Y-9476650D02*
X10888325Y-9486174D01*
X10888325Y-9486174D02*
X10897848Y-9505222D01*
X10897848Y-9505222D02*
X10897848Y-9609984D01*
X10993086Y-9609984D02*
X10993086Y-9476650D01*
X10993086Y-9495698D02*
X11002610Y-9486174D01*
X11002610Y-9486174D02*
X11021658Y-9476650D01*
X11021658Y-9476650D02*
X11050229Y-9476650D01*
X11050229Y-9476650D02*
X11069277Y-9486174D01*
X11069277Y-9486174D02*
X11078801Y-9505222D01*
X11078801Y-9505222D02*
X11078801Y-9609984D01*
X11078801Y-9505222D02*
X11088325Y-9486174D01*
X11088325Y-9486174D02*
X11107372Y-9476650D01*
X11107372Y-9476650D02*
X11135944Y-9476650D01*
X11135944Y-9476650D02*
X11154991Y-9486174D01*
X11154991Y-9486174D02*
X11164515Y-9505222D01*
X11164515Y-9505222D02*
X11164515Y-9609984D01*
X11554991Y-9400460D02*
X11383563Y-9657603D01*
X11812134Y-9409984D02*
X11831182Y-9409984D01*
X11831182Y-9409984D02*
X11850229Y-9419508D01*
X11850229Y-9419508D02*
X11859753Y-9429031D01*
X11859753Y-9429031D02*
X11869277Y-9448079D01*
X11869277Y-9448079D02*
X11878801Y-9486174D01*
X11878801Y-9486174D02*
X11878801Y-9533793D01*
X11878801Y-9533793D02*
X11869277Y-9571889D01*
X11869277Y-9571889D02*
X11859753Y-9590936D01*
X11859753Y-9590936D02*
X11850229Y-9600460D01*
X11850229Y-9600460D02*
X11831182Y-9609984D01*
X11831182Y-9609984D02*
X11812134Y-9609984D01*
X11812134Y-9609984D02*
X11793086Y-9600460D01*
X11793086Y-9600460D02*
X11783563Y-9590936D01*
X11783563Y-9590936D02*
X11774039Y-9571889D01*
X11774039Y-9571889D02*
X11764515Y-9533793D01*
X11764515Y-9533793D02*
X11764515Y-9486174D01*
X11764515Y-9486174D02*
X11774039Y-9448079D01*
X11774039Y-9448079D02*
X11783563Y-9429031D01*
X11783563Y-9429031D02*
X11793086Y-9419508D01*
X11793086Y-9419508D02*
X11812134Y-9409984D01*
X11964515Y-9590936D02*
X11974039Y-9600460D01*
X11974039Y-9600460D02*
X11964515Y-9609984D01*
X11964515Y-9609984D02*
X11954991Y-9600460D01*
X11954991Y-9600460D02*
X11964515Y-9590936D01*
X11964515Y-9590936D02*
X11964515Y-9609984D01*
X12097848Y-9409984D02*
X12116896Y-9409984D01*
X12116896Y-9409984D02*
X12135944Y-9419508D01*
X12135944Y-9419508D02*
X12145467Y-9429031D01*
X12145467Y-9429031D02*
X12154991Y-9448079D01*
X12154991Y-9448079D02*
X12164515Y-9486174D01*
X12164515Y-9486174D02*
X12164515Y-9533793D01*
X12164515Y-9533793D02*
X12154991Y-9571889D01*
X12154991Y-9571889D02*
X12145467Y-9590936D01*
X12145467Y-9590936D02*
X12135944Y-9600460D01*
X12135944Y-9600460D02*
X12116896Y-9609984D01*
X12116896Y-9609984D02*
X12097848Y-9609984D01*
X12097848Y-9609984D02*
X12078801Y-9600460D01*
X12078801Y-9600460D02*
X12069277Y-9590936D01*
X12069277Y-9590936D02*
X12059753Y-9571889D01*
X12059753Y-9571889D02*
X12050229Y-9533793D01*
X12050229Y-9533793D02*
X12050229Y-9486174D01*
X12050229Y-9486174D02*
X12059753Y-9448079D01*
X12059753Y-9448079D02*
X12069277Y-9429031D01*
X12069277Y-9429031D02*
X12078801Y-9419508D01*
X12078801Y-9419508D02*
X12097848Y-9409984D01*
X12354991Y-9609984D02*
X12240706Y-9609984D01*
X12297848Y-9609984D02*
X12297848Y-9409984D01*
X12297848Y-9409984D02*
X12278801Y-9438555D01*
X12278801Y-9438555D02*
X12259753Y-9457603D01*
X12259753Y-9457603D02*
X12240706Y-9467127D01*
X12545467Y-9609984D02*
X12431182Y-9609984D01*
X12488325Y-9609984D02*
X12488325Y-9409984D01*
X12488325Y-9409984D02*
X12469277Y-9438555D01*
X12469277Y-9438555D02*
X12450229Y-9457603D01*
X12450229Y-9457603D02*
X12431182Y-9467127D01*
X12659753Y-9495698D02*
X12640706Y-9486174D01*
X12640706Y-9486174D02*
X12631182Y-9476650D01*
X12631182Y-9476650D02*
X12621658Y-9457603D01*
X12621658Y-9457603D02*
X12621658Y-9448079D01*
X12621658Y-9448079D02*
X12631182Y-9429031D01*
X12631182Y-9429031D02*
X12640706Y-9419508D01*
X12640706Y-9419508D02*
X12659753Y-9409984D01*
X12659753Y-9409984D02*
X12697848Y-9409984D01*
X12697848Y-9409984D02*
X12716896Y-9419508D01*
X12716896Y-9419508D02*
X12726420Y-9429031D01*
X12726420Y-9429031D02*
X12735944Y-9448079D01*
X12735944Y-9448079D02*
X12735944Y-9457603D01*
X12735944Y-9457603D02*
X12726420Y-9476650D01*
X12726420Y-9476650D02*
X12716896Y-9486174D01*
X12716896Y-9486174D02*
X12697848Y-9495698D01*
X12697848Y-9495698D02*
X12659753Y-9495698D01*
X12659753Y-9495698D02*
X12640706Y-9505222D01*
X12640706Y-9505222D02*
X12631182Y-9514746D01*
X12631182Y-9514746D02*
X12621658Y-9533793D01*
X12621658Y-9533793D02*
X12621658Y-9571889D01*
X12621658Y-9571889D02*
X12631182Y-9590936D01*
X12631182Y-9590936D02*
X12640706Y-9600460D01*
X12640706Y-9600460D02*
X12659753Y-9609984D01*
X12659753Y-9609984D02*
X12697848Y-9609984D01*
X12697848Y-9609984D02*
X12716896Y-9600460D01*
X12716896Y-9600460D02*
X12726420Y-9590936D01*
X12726420Y-9590936D02*
X12735944Y-9571889D01*
X12735944Y-9571889D02*
X12735944Y-9533793D01*
X12735944Y-9533793D02*
X12726420Y-9514746D01*
X12726420Y-9514746D02*
X12716896Y-9505222D01*
X12716896Y-9505222D02*
X12697848Y-9495698D01*
X12812134Y-9409984D02*
X12812134Y-9448079D01*
X12888325Y-9409984D02*
X12888325Y-9448079D01*
X13183563Y-9686174D02*
X13174039Y-9676650D01*
X13174039Y-9676650D02*
X13154991Y-9648079D01*
X13154991Y-9648079D02*
X13145468Y-9629031D01*
X13145468Y-9629031D02*
X13135944Y-9600460D01*
X13135944Y-9600460D02*
X13126420Y-9552841D01*
X13126420Y-9552841D02*
X13126420Y-9514746D01*
X13126420Y-9514746D02*
X13135944Y-9467127D01*
X13135944Y-9467127D02*
X13145468Y-9438555D01*
X13145468Y-9438555D02*
X13154991Y-9419508D01*
X13154991Y-9419508D02*
X13174039Y-9390936D01*
X13174039Y-9390936D02*
X13183563Y-9381412D01*
X13354991Y-9409984D02*
X13259753Y-9409984D01*
X13259753Y-9409984D02*
X13250229Y-9505222D01*
X13250229Y-9505222D02*
X13259753Y-9495698D01*
X13259753Y-9495698D02*
X13278801Y-9486174D01*
X13278801Y-9486174D02*
X13326420Y-9486174D01*
X13326420Y-9486174D02*
X13345468Y-9495698D01*
X13345468Y-9495698D02*
X13354991Y-9505222D01*
X13354991Y-9505222D02*
X13364515Y-9524270D01*
X13364515Y-9524270D02*
X13364515Y-9571889D01*
X13364515Y-9571889D02*
X13354991Y-9590936D01*
X13354991Y-9590936D02*
X13345468Y-9600460D01*
X13345468Y-9600460D02*
X13326420Y-9609984D01*
X13326420Y-9609984D02*
X13278801Y-9609984D01*
X13278801Y-9609984D02*
X13259753Y-9600460D01*
X13259753Y-9600460D02*
X13250229Y-9590936D01*
X13459753Y-9609984D02*
X13497848Y-9609984D01*
X13497848Y-9609984D02*
X13516896Y-9600460D01*
X13516896Y-9600460D02*
X13526420Y-9590936D01*
X13526420Y-9590936D02*
X13545468Y-9562365D01*
X13545468Y-9562365D02*
X13554991Y-9524270D01*
X13554991Y-9524270D02*
X13554991Y-9448079D01*
X13554991Y-9448079D02*
X13545468Y-9429031D01*
X13545468Y-9429031D02*
X13535944Y-9419508D01*
X13535944Y-9419508D02*
X13516896Y-9409984D01*
X13516896Y-9409984D02*
X13478801Y-9409984D01*
X13478801Y-9409984D02*
X13459753Y-9419508D01*
X13459753Y-9419508D02*
X13450229Y-9429031D01*
X13450229Y-9429031D02*
X13440706Y-9448079D01*
X13440706Y-9448079D02*
X13440706Y-9495698D01*
X13440706Y-9495698D02*
X13450229Y-9514746D01*
X13450229Y-9514746D02*
X13459753Y-9524270D01*
X13459753Y-9524270D02*
X13478801Y-9533793D01*
X13478801Y-9533793D02*
X13516896Y-9533793D01*
X13516896Y-9533793D02*
X13535944Y-9524270D01*
X13535944Y-9524270D02*
X13545468Y-9514746D01*
X13545468Y-9514746D02*
X13554991Y-9495698D01*
X13793087Y-9609984D02*
X13793087Y-9409984D01*
X13878801Y-9609984D02*
X13878801Y-9505222D01*
X13878801Y-9505222D02*
X13869277Y-9486174D01*
X13869277Y-9486174D02*
X13850230Y-9476650D01*
X13850230Y-9476650D02*
X13821658Y-9476650D01*
X13821658Y-9476650D02*
X13802610Y-9486174D01*
X13802610Y-9486174D02*
X13793087Y-9495698D01*
X14002610Y-9609984D02*
X13983563Y-9600460D01*
X13983563Y-9600460D02*
X13974039Y-9590936D01*
X13974039Y-9590936D02*
X13964515Y-9571889D01*
X13964515Y-9571889D02*
X13964515Y-9514746D01*
X13964515Y-9514746D02*
X13974039Y-9495698D01*
X13974039Y-9495698D02*
X13983563Y-9486174D01*
X13983563Y-9486174D02*
X14002610Y-9476650D01*
X14002610Y-9476650D02*
X14031182Y-9476650D01*
X14031182Y-9476650D02*
X14050230Y-9486174D01*
X14050230Y-9486174D02*
X14059753Y-9495698D01*
X14059753Y-9495698D02*
X14069277Y-9514746D01*
X14069277Y-9514746D02*
X14069277Y-9571889D01*
X14069277Y-9571889D02*
X14059753Y-9590936D01*
X14059753Y-9590936D02*
X14050230Y-9600460D01*
X14050230Y-9600460D02*
X14031182Y-9609984D01*
X14031182Y-9609984D02*
X14002610Y-9609984D01*
X14183563Y-9609984D02*
X14164515Y-9600460D01*
X14164515Y-9600460D02*
X14154991Y-9581412D01*
X14154991Y-9581412D02*
X14154991Y-9409984D01*
X14335944Y-9600460D02*
X14316896Y-9609984D01*
X14316896Y-9609984D02*
X14278801Y-9609984D01*
X14278801Y-9609984D02*
X14259753Y-9600460D01*
X14259753Y-9600460D02*
X14250230Y-9581412D01*
X14250230Y-9581412D02*
X14250230Y-9505222D01*
X14250230Y-9505222D02*
X14259753Y-9486174D01*
X14259753Y-9486174D02*
X14278801Y-9476650D01*
X14278801Y-9476650D02*
X14316896Y-9476650D01*
X14316896Y-9476650D02*
X14335944Y-9486174D01*
X14335944Y-9486174D02*
X14345468Y-9505222D01*
X14345468Y-9505222D02*
X14345468Y-9524270D01*
X14345468Y-9524270D02*
X14250230Y-9543317D01*
X14421658Y-9600460D02*
X14440706Y-9609984D01*
X14440706Y-9609984D02*
X14478801Y-9609984D01*
X14478801Y-9609984D02*
X14497849Y-9600460D01*
X14497849Y-9600460D02*
X14507372Y-9581412D01*
X14507372Y-9581412D02*
X14507372Y-9571889D01*
X14507372Y-9571889D02*
X14497849Y-9552841D01*
X14497849Y-9552841D02*
X14478801Y-9543317D01*
X14478801Y-9543317D02*
X14450230Y-9543317D01*
X14450230Y-9543317D02*
X14431182Y-9533793D01*
X14431182Y-9533793D02*
X14421658Y-9514746D01*
X14421658Y-9514746D02*
X14421658Y-9505222D01*
X14421658Y-9505222D02*
X14431182Y-9486174D01*
X14431182Y-9486174D02*
X14450230Y-9476650D01*
X14450230Y-9476650D02*
X14478801Y-9476650D01*
X14478801Y-9476650D02*
X14497849Y-9486174D01*
X14574039Y-9686174D02*
X14583563Y-9676650D01*
X14583563Y-9676650D02*
X14602611Y-9648079D01*
X14602611Y-9648079D02*
X14612134Y-9629031D01*
X14612134Y-9629031D02*
X14621658Y-9600460D01*
X14621658Y-9600460D02*
X14631182Y-9552841D01*
X14631182Y-9552841D02*
X14631182Y-9514746D01*
X14631182Y-9514746D02*
X14621658Y-9467127D01*
X14621658Y-9467127D02*
X14612134Y-9438555D01*
X14612134Y-9438555D02*
X14602611Y-9419508D01*
X14602611Y-9419508D02*
X14583563Y-9390936D01*
X14583563Y-9390936D02*
X14574039Y-9381412D01*
D12*
X9608500Y-9782500D02*
G75*
G02*
X9573500Y-9782500I-17500J0D01*
G01*
X9573500Y-9782500D02*
G75*
G02*
X9608500Y-9782500I17500J0D01*
G01*
D11*
X9907372Y-9673984D02*
X9926420Y-9673984D01*
X9926420Y-9673984D02*
X9945467Y-9683508D01*
X9945467Y-9683508D02*
X9954991Y-9693031D01*
X9954991Y-9693031D02*
X9964515Y-9712079D01*
X9964515Y-9712079D02*
X9974039Y-9750174D01*
X9974039Y-9750174D02*
X9974039Y-9797793D01*
X9974039Y-9797793D02*
X9964515Y-9835889D01*
X9964515Y-9835889D02*
X9954991Y-9854936D01*
X9954991Y-9854936D02*
X9945467Y-9864460D01*
X9945467Y-9864460D02*
X9926420Y-9873984D01*
X9926420Y-9873984D02*
X9907372Y-9873984D01*
X9907372Y-9873984D02*
X9888324Y-9864460D01*
X9888324Y-9864460D02*
X9878801Y-9854936D01*
X9878801Y-9854936D02*
X9869277Y-9835889D01*
X9869277Y-9835889D02*
X9859753Y-9797793D01*
X9859753Y-9797793D02*
X9859753Y-9750174D01*
X9859753Y-9750174D02*
X9869277Y-9712079D01*
X9869277Y-9712079D02*
X9878801Y-9693031D01*
X9878801Y-9693031D02*
X9888324Y-9683508D01*
X9888324Y-9683508D02*
X9907372Y-9673984D01*
X10059753Y-9854936D02*
X10069277Y-9864460D01*
X10069277Y-9864460D02*
X10059753Y-9873984D01*
X10059753Y-9873984D02*
X10050229Y-9864460D01*
X10050229Y-9864460D02*
X10059753Y-9854936D01*
X10059753Y-9854936D02*
X10059753Y-9873984D01*
X10135944Y-9673984D02*
X10259753Y-9673984D01*
X10259753Y-9673984D02*
X10193086Y-9750174D01*
X10193086Y-9750174D02*
X10221658Y-9750174D01*
X10221658Y-9750174D02*
X10240705Y-9759698D01*
X10240705Y-9759698D02*
X10250229Y-9769222D01*
X10250229Y-9769222D02*
X10259753Y-9788270D01*
X10259753Y-9788270D02*
X10259753Y-9835889D01*
X10259753Y-9835889D02*
X10250229Y-9854936D01*
X10250229Y-9854936D02*
X10240705Y-9864460D01*
X10240705Y-9864460D02*
X10221658Y-9873984D01*
X10221658Y-9873984D02*
X10164515Y-9873984D01*
X10164515Y-9873984D02*
X10145467Y-9864460D01*
X10145467Y-9864460D02*
X10135944Y-9854936D01*
X10440705Y-9673984D02*
X10345467Y-9673984D01*
X10345467Y-9673984D02*
X10335944Y-9769222D01*
X10335944Y-9769222D02*
X10345467Y-9759698D01*
X10345467Y-9759698D02*
X10364515Y-9750174D01*
X10364515Y-9750174D02*
X10412134Y-9750174D01*
X10412134Y-9750174D02*
X10431182Y-9759698D01*
X10431182Y-9759698D02*
X10440705Y-9769222D01*
X10440705Y-9769222D02*
X10450229Y-9788270D01*
X10450229Y-9788270D02*
X10450229Y-9835889D01*
X10450229Y-9835889D02*
X10440705Y-9854936D01*
X10440705Y-9854936D02*
X10431182Y-9864460D01*
X10431182Y-9864460D02*
X10412134Y-9873984D01*
X10412134Y-9873984D02*
X10364515Y-9873984D01*
X10364515Y-9873984D02*
X10345467Y-9864460D01*
X10345467Y-9864460D02*
X10335944Y-9854936D01*
X10574039Y-9673984D02*
X10593086Y-9673984D01*
X10593086Y-9673984D02*
X10612134Y-9683508D01*
X10612134Y-9683508D02*
X10621658Y-9693031D01*
X10621658Y-9693031D02*
X10631182Y-9712079D01*
X10631182Y-9712079D02*
X10640705Y-9750174D01*
X10640705Y-9750174D02*
X10640705Y-9797793D01*
X10640705Y-9797793D02*
X10631182Y-9835889D01*
X10631182Y-9835889D02*
X10621658Y-9854936D01*
X10621658Y-9854936D02*
X10612134Y-9864460D01*
X10612134Y-9864460D02*
X10593086Y-9873984D01*
X10593086Y-9873984D02*
X10574039Y-9873984D01*
X10574039Y-9873984D02*
X10554991Y-9864460D01*
X10554991Y-9864460D02*
X10545467Y-9854936D01*
X10545467Y-9854936D02*
X10535944Y-9835889D01*
X10535944Y-9835889D02*
X10526420Y-9797793D01*
X10526420Y-9797793D02*
X10526420Y-9750174D01*
X10526420Y-9750174D02*
X10535944Y-9712079D01*
X10535944Y-9712079D02*
X10545467Y-9693031D01*
X10545467Y-9693031D02*
X10554991Y-9683508D01*
X10554991Y-9683508D02*
X10574039Y-9673984D01*
X10726420Y-9873984D02*
X10726420Y-9740650D01*
X10726420Y-9759698D02*
X10735944Y-9750174D01*
X10735944Y-9750174D02*
X10754991Y-9740650D01*
X10754991Y-9740650D02*
X10783563Y-9740650D01*
X10783563Y-9740650D02*
X10802610Y-9750174D01*
X10802610Y-9750174D02*
X10812134Y-9769222D01*
X10812134Y-9769222D02*
X10812134Y-9873984D01*
X10812134Y-9769222D02*
X10821658Y-9750174D01*
X10821658Y-9750174D02*
X10840705Y-9740650D01*
X10840705Y-9740650D02*
X10869277Y-9740650D01*
X10869277Y-9740650D02*
X10888325Y-9750174D01*
X10888325Y-9750174D02*
X10897848Y-9769222D01*
X10897848Y-9769222D02*
X10897848Y-9873984D01*
X10993086Y-9873984D02*
X10993086Y-9740650D01*
X10993086Y-9759698D02*
X11002610Y-9750174D01*
X11002610Y-9750174D02*
X11021658Y-9740650D01*
X11021658Y-9740650D02*
X11050229Y-9740650D01*
X11050229Y-9740650D02*
X11069277Y-9750174D01*
X11069277Y-9750174D02*
X11078801Y-9769222D01*
X11078801Y-9769222D02*
X11078801Y-9873984D01*
X11078801Y-9769222D02*
X11088325Y-9750174D01*
X11088325Y-9750174D02*
X11107372Y-9740650D01*
X11107372Y-9740650D02*
X11135944Y-9740650D01*
X11135944Y-9740650D02*
X11154991Y-9750174D01*
X11154991Y-9750174D02*
X11164515Y-9769222D01*
X11164515Y-9769222D02*
X11164515Y-9873984D01*
X11554991Y-9664460D02*
X11383563Y-9921603D01*
X11812134Y-9673984D02*
X11831182Y-9673984D01*
X11831182Y-9673984D02*
X11850229Y-9683508D01*
X11850229Y-9683508D02*
X11859753Y-9693031D01*
X11859753Y-9693031D02*
X11869277Y-9712079D01*
X11869277Y-9712079D02*
X11878801Y-9750174D01*
X11878801Y-9750174D02*
X11878801Y-9797793D01*
X11878801Y-9797793D02*
X11869277Y-9835889D01*
X11869277Y-9835889D02*
X11859753Y-9854936D01*
X11859753Y-9854936D02*
X11850229Y-9864460D01*
X11850229Y-9864460D02*
X11831182Y-9873984D01*
X11831182Y-9873984D02*
X11812134Y-9873984D01*
X11812134Y-9873984D02*
X11793086Y-9864460D01*
X11793086Y-9864460D02*
X11783563Y-9854936D01*
X11783563Y-9854936D02*
X11774039Y-9835889D01*
X11774039Y-9835889D02*
X11764515Y-9797793D01*
X11764515Y-9797793D02*
X11764515Y-9750174D01*
X11764515Y-9750174D02*
X11774039Y-9712079D01*
X11774039Y-9712079D02*
X11783563Y-9693031D01*
X11783563Y-9693031D02*
X11793086Y-9683508D01*
X11793086Y-9683508D02*
X11812134Y-9673984D01*
X11964515Y-9854936D02*
X11974039Y-9864460D01*
X11974039Y-9864460D02*
X11964515Y-9873984D01*
X11964515Y-9873984D02*
X11954991Y-9864460D01*
X11954991Y-9864460D02*
X11964515Y-9854936D01*
X11964515Y-9854936D02*
X11964515Y-9873984D01*
X12097848Y-9673984D02*
X12116896Y-9673984D01*
X12116896Y-9673984D02*
X12135944Y-9683508D01*
X12135944Y-9683508D02*
X12145467Y-9693031D01*
X12145467Y-9693031D02*
X12154991Y-9712079D01*
X12154991Y-9712079D02*
X12164515Y-9750174D01*
X12164515Y-9750174D02*
X12164515Y-9797793D01*
X12164515Y-9797793D02*
X12154991Y-9835889D01*
X12154991Y-9835889D02*
X12145467Y-9854936D01*
X12145467Y-9854936D02*
X12135944Y-9864460D01*
X12135944Y-9864460D02*
X12116896Y-9873984D01*
X12116896Y-9873984D02*
X12097848Y-9873984D01*
X12097848Y-9873984D02*
X12078801Y-9864460D01*
X12078801Y-9864460D02*
X12069277Y-9854936D01*
X12069277Y-9854936D02*
X12059753Y-9835889D01*
X12059753Y-9835889D02*
X12050229Y-9797793D01*
X12050229Y-9797793D02*
X12050229Y-9750174D01*
X12050229Y-9750174D02*
X12059753Y-9712079D01*
X12059753Y-9712079D02*
X12069277Y-9693031D01*
X12069277Y-9693031D02*
X12078801Y-9683508D01*
X12078801Y-9683508D02*
X12097848Y-9673984D01*
X12354991Y-9873984D02*
X12240706Y-9873984D01*
X12297848Y-9873984D02*
X12297848Y-9673984D01*
X12297848Y-9673984D02*
X12278801Y-9702555D01*
X12278801Y-9702555D02*
X12259753Y-9721603D01*
X12259753Y-9721603D02*
X12240706Y-9731127D01*
X12421658Y-9673984D02*
X12545467Y-9673984D01*
X12545467Y-9673984D02*
X12478801Y-9750174D01*
X12478801Y-9750174D02*
X12507372Y-9750174D01*
X12507372Y-9750174D02*
X12526420Y-9759698D01*
X12526420Y-9759698D02*
X12535944Y-9769222D01*
X12535944Y-9769222D02*
X12545467Y-9788270D01*
X12545467Y-9788270D02*
X12545467Y-9835889D01*
X12545467Y-9835889D02*
X12535944Y-9854936D01*
X12535944Y-9854936D02*
X12526420Y-9864460D01*
X12526420Y-9864460D02*
X12507372Y-9873984D01*
X12507372Y-9873984D02*
X12450229Y-9873984D01*
X12450229Y-9873984D02*
X12431182Y-9864460D01*
X12431182Y-9864460D02*
X12421658Y-9854936D01*
X12659753Y-9759698D02*
X12640706Y-9750174D01*
X12640706Y-9750174D02*
X12631182Y-9740650D01*
X12631182Y-9740650D02*
X12621658Y-9721603D01*
X12621658Y-9721603D02*
X12621658Y-9712079D01*
X12621658Y-9712079D02*
X12631182Y-9693031D01*
X12631182Y-9693031D02*
X12640706Y-9683508D01*
X12640706Y-9683508D02*
X12659753Y-9673984D01*
X12659753Y-9673984D02*
X12697848Y-9673984D01*
X12697848Y-9673984D02*
X12716896Y-9683508D01*
X12716896Y-9683508D02*
X12726420Y-9693031D01*
X12726420Y-9693031D02*
X12735944Y-9712079D01*
X12735944Y-9712079D02*
X12735944Y-9721603D01*
X12735944Y-9721603D02*
X12726420Y-9740650D01*
X12726420Y-9740650D02*
X12716896Y-9750174D01*
X12716896Y-9750174D02*
X12697848Y-9759698D01*
X12697848Y-9759698D02*
X12659753Y-9759698D01*
X12659753Y-9759698D02*
X12640706Y-9769222D01*
X12640706Y-9769222D02*
X12631182Y-9778746D01*
X12631182Y-9778746D02*
X12621658Y-9797793D01*
X12621658Y-9797793D02*
X12621658Y-9835889D01*
X12621658Y-9835889D02*
X12631182Y-9854936D01*
X12631182Y-9854936D02*
X12640706Y-9864460D01*
X12640706Y-9864460D02*
X12659753Y-9873984D01*
X12659753Y-9873984D02*
X12697848Y-9873984D01*
X12697848Y-9873984D02*
X12716896Y-9864460D01*
X12716896Y-9864460D02*
X12726420Y-9854936D01*
X12726420Y-9854936D02*
X12735944Y-9835889D01*
X12735944Y-9835889D02*
X12735944Y-9797793D01*
X12735944Y-9797793D02*
X12726420Y-9778746D01*
X12726420Y-9778746D02*
X12716896Y-9769222D01*
X12716896Y-9769222D02*
X12697848Y-9759698D01*
X12812134Y-9673984D02*
X12812134Y-9712079D01*
X12888325Y-9673984D02*
X12888325Y-9712079D01*
X13183563Y-9950174D02*
X13174039Y-9940650D01*
X13174039Y-9940650D02*
X13154991Y-9912079D01*
X13154991Y-9912079D02*
X13145468Y-9893031D01*
X13145468Y-9893031D02*
X13135944Y-9864460D01*
X13135944Y-9864460D02*
X13126420Y-9816841D01*
X13126420Y-9816841D02*
X13126420Y-9778746D01*
X13126420Y-9778746D02*
X13135944Y-9731127D01*
X13135944Y-9731127D02*
X13145468Y-9702555D01*
X13145468Y-9702555D02*
X13154991Y-9683508D01*
X13154991Y-9683508D02*
X13174039Y-9654936D01*
X13174039Y-9654936D02*
X13183563Y-9645412D01*
X13364515Y-9873984D02*
X13250229Y-9873984D01*
X13307372Y-9873984D02*
X13307372Y-9673984D01*
X13307372Y-9673984D02*
X13288325Y-9702555D01*
X13288325Y-9702555D02*
X13269277Y-9721603D01*
X13269277Y-9721603D02*
X13250229Y-9731127D01*
X13602610Y-9873984D02*
X13602610Y-9673984D01*
X13688325Y-9873984D02*
X13688325Y-9769222D01*
X13688325Y-9769222D02*
X13678801Y-9750174D01*
X13678801Y-9750174D02*
X13659753Y-9740650D01*
X13659753Y-9740650D02*
X13631182Y-9740650D01*
X13631182Y-9740650D02*
X13612134Y-9750174D01*
X13612134Y-9750174D02*
X13602610Y-9759698D01*
X13812134Y-9873984D02*
X13793087Y-9864460D01*
X13793087Y-9864460D02*
X13783563Y-9854936D01*
X13783563Y-9854936D02*
X13774039Y-9835889D01*
X13774039Y-9835889D02*
X13774039Y-9778746D01*
X13774039Y-9778746D02*
X13783563Y-9759698D01*
X13783563Y-9759698D02*
X13793087Y-9750174D01*
X13793087Y-9750174D02*
X13812134Y-9740650D01*
X13812134Y-9740650D02*
X13840706Y-9740650D01*
X13840706Y-9740650D02*
X13859753Y-9750174D01*
X13859753Y-9750174D02*
X13869277Y-9759698D01*
X13869277Y-9759698D02*
X13878801Y-9778746D01*
X13878801Y-9778746D02*
X13878801Y-9835889D01*
X13878801Y-9835889D02*
X13869277Y-9854936D01*
X13869277Y-9854936D02*
X13859753Y-9864460D01*
X13859753Y-9864460D02*
X13840706Y-9873984D01*
X13840706Y-9873984D02*
X13812134Y-9873984D01*
X13993087Y-9873984D02*
X13974039Y-9864460D01*
X13974039Y-9864460D02*
X13964515Y-9845412D01*
X13964515Y-9845412D02*
X13964515Y-9673984D01*
X14145468Y-9864460D02*
X14126420Y-9873984D01*
X14126420Y-9873984D02*
X14088325Y-9873984D01*
X14088325Y-9873984D02*
X14069277Y-9864460D01*
X14069277Y-9864460D02*
X14059753Y-9845412D01*
X14059753Y-9845412D02*
X14059753Y-9769222D01*
X14059753Y-9769222D02*
X14069277Y-9750174D01*
X14069277Y-9750174D02*
X14088325Y-9740650D01*
X14088325Y-9740650D02*
X14126420Y-9740650D01*
X14126420Y-9740650D02*
X14145468Y-9750174D01*
X14145468Y-9750174D02*
X14154991Y-9769222D01*
X14154991Y-9769222D02*
X14154991Y-9788270D01*
X14154991Y-9788270D02*
X14059753Y-9807317D01*
X14221658Y-9950174D02*
X14231182Y-9940650D01*
X14231182Y-9940650D02*
X14250230Y-9912079D01*
X14250230Y-9912079D02*
X14259753Y-9893031D01*
X14259753Y-9893031D02*
X14269277Y-9864460D01*
X14269277Y-9864460D02*
X14278801Y-9816841D01*
X14278801Y-9816841D02*
X14278801Y-9778746D01*
X14278801Y-9778746D02*
X14269277Y-9731127D01*
X14269277Y-9731127D02*
X14259753Y-9702555D01*
X14259753Y-9702555D02*
X14250230Y-9683508D01*
X14250230Y-9683508D02*
X14231182Y-9654936D01*
X14231182Y-9654936D02*
X14221658Y-9645412D01*
D12*
X9588500Y-10026500D02*
X9588500Y-10066500D01*
X9568500Y-10046500D02*
X9608500Y-10046500D01*
D11*
X9907372Y-9937984D02*
X9926420Y-9937984D01*
X9926420Y-9937984D02*
X9945467Y-9947508D01*
X9945467Y-9947508D02*
X9954991Y-9957031D01*
X9954991Y-9957031D02*
X9964515Y-9976079D01*
X9964515Y-9976079D02*
X9974039Y-10014174D01*
X9974039Y-10014174D02*
X9974039Y-10061793D01*
X9974039Y-10061793D02*
X9964515Y-10099889D01*
X9964515Y-10099889D02*
X9954991Y-10118936D01*
X9954991Y-10118936D02*
X9945467Y-10128460D01*
X9945467Y-10128460D02*
X9926420Y-10137984D01*
X9926420Y-10137984D02*
X9907372Y-10137984D01*
X9907372Y-10137984D02*
X9888324Y-10128460D01*
X9888324Y-10128460D02*
X9878801Y-10118936D01*
X9878801Y-10118936D02*
X9869277Y-10099889D01*
X9869277Y-10099889D02*
X9859753Y-10061793D01*
X9859753Y-10061793D02*
X9859753Y-10014174D01*
X9859753Y-10014174D02*
X9869277Y-9976079D01*
X9869277Y-9976079D02*
X9878801Y-9957031D01*
X9878801Y-9957031D02*
X9888324Y-9947508D01*
X9888324Y-9947508D02*
X9907372Y-9937984D01*
X10059753Y-10118936D02*
X10069277Y-10128460D01*
X10069277Y-10128460D02*
X10059753Y-10137984D01*
X10059753Y-10137984D02*
X10050229Y-10128460D01*
X10050229Y-10128460D02*
X10059753Y-10118936D01*
X10059753Y-10118936D02*
X10059753Y-10137984D01*
X10240705Y-10004650D02*
X10240705Y-10137984D01*
X10193086Y-9928460D02*
X10145467Y-10071317D01*
X10145467Y-10071317D02*
X10269277Y-10071317D01*
X10383563Y-9937984D02*
X10402610Y-9937984D01*
X10402610Y-9937984D02*
X10421658Y-9947508D01*
X10421658Y-9947508D02*
X10431182Y-9957031D01*
X10431182Y-9957031D02*
X10440705Y-9976079D01*
X10440705Y-9976079D02*
X10450229Y-10014174D01*
X10450229Y-10014174D02*
X10450229Y-10061793D01*
X10450229Y-10061793D02*
X10440705Y-10099889D01*
X10440705Y-10099889D02*
X10431182Y-10118936D01*
X10431182Y-10118936D02*
X10421658Y-10128460D01*
X10421658Y-10128460D02*
X10402610Y-10137984D01*
X10402610Y-10137984D02*
X10383563Y-10137984D01*
X10383563Y-10137984D02*
X10364515Y-10128460D01*
X10364515Y-10128460D02*
X10354991Y-10118936D01*
X10354991Y-10118936D02*
X10345467Y-10099889D01*
X10345467Y-10099889D02*
X10335944Y-10061793D01*
X10335944Y-10061793D02*
X10335944Y-10014174D01*
X10335944Y-10014174D02*
X10345467Y-9976079D01*
X10345467Y-9976079D02*
X10354991Y-9957031D01*
X10354991Y-9957031D02*
X10364515Y-9947508D01*
X10364515Y-9947508D02*
X10383563Y-9937984D01*
X10574039Y-9937984D02*
X10593086Y-9937984D01*
X10593086Y-9937984D02*
X10612134Y-9947508D01*
X10612134Y-9947508D02*
X10621658Y-9957031D01*
X10621658Y-9957031D02*
X10631182Y-9976079D01*
X10631182Y-9976079D02*
X10640705Y-10014174D01*
X10640705Y-10014174D02*
X10640705Y-10061793D01*
X10640705Y-10061793D02*
X10631182Y-10099889D01*
X10631182Y-10099889D02*
X10621658Y-10118936D01*
X10621658Y-10118936D02*
X10612134Y-10128460D01*
X10612134Y-10128460D02*
X10593086Y-10137984D01*
X10593086Y-10137984D02*
X10574039Y-10137984D01*
X10574039Y-10137984D02*
X10554991Y-10128460D01*
X10554991Y-10128460D02*
X10545467Y-10118936D01*
X10545467Y-10118936D02*
X10535944Y-10099889D01*
X10535944Y-10099889D02*
X10526420Y-10061793D01*
X10526420Y-10061793D02*
X10526420Y-10014174D01*
X10526420Y-10014174D02*
X10535944Y-9976079D01*
X10535944Y-9976079D02*
X10545467Y-9957031D01*
X10545467Y-9957031D02*
X10554991Y-9947508D01*
X10554991Y-9947508D02*
X10574039Y-9937984D01*
X10726420Y-10137984D02*
X10726420Y-10004650D01*
X10726420Y-10023698D02*
X10735944Y-10014174D01*
X10735944Y-10014174D02*
X10754991Y-10004650D01*
X10754991Y-10004650D02*
X10783563Y-10004650D01*
X10783563Y-10004650D02*
X10802610Y-10014174D01*
X10802610Y-10014174D02*
X10812134Y-10033222D01*
X10812134Y-10033222D02*
X10812134Y-10137984D01*
X10812134Y-10033222D02*
X10821658Y-10014174D01*
X10821658Y-10014174D02*
X10840705Y-10004650D01*
X10840705Y-10004650D02*
X10869277Y-10004650D01*
X10869277Y-10004650D02*
X10888325Y-10014174D01*
X10888325Y-10014174D02*
X10897848Y-10033222D01*
X10897848Y-10033222D02*
X10897848Y-10137984D01*
X10993086Y-10137984D02*
X10993086Y-10004650D01*
X10993086Y-10023698D02*
X11002610Y-10014174D01*
X11002610Y-10014174D02*
X11021658Y-10004650D01*
X11021658Y-10004650D02*
X11050229Y-10004650D01*
X11050229Y-10004650D02*
X11069277Y-10014174D01*
X11069277Y-10014174D02*
X11078801Y-10033222D01*
X11078801Y-10033222D02*
X11078801Y-10137984D01*
X11078801Y-10033222D02*
X11088325Y-10014174D01*
X11088325Y-10014174D02*
X11107372Y-10004650D01*
X11107372Y-10004650D02*
X11135944Y-10004650D01*
X11135944Y-10004650D02*
X11154991Y-10014174D01*
X11154991Y-10014174D02*
X11164515Y-10033222D01*
X11164515Y-10033222D02*
X11164515Y-10137984D01*
X11554991Y-9928460D02*
X11383563Y-10185603D01*
X11812134Y-9937984D02*
X11831182Y-9937984D01*
X11831182Y-9937984D02*
X11850229Y-9947508D01*
X11850229Y-9947508D02*
X11859753Y-9957031D01*
X11859753Y-9957031D02*
X11869277Y-9976079D01*
X11869277Y-9976079D02*
X11878801Y-10014174D01*
X11878801Y-10014174D02*
X11878801Y-10061793D01*
X11878801Y-10061793D02*
X11869277Y-10099889D01*
X11869277Y-10099889D02*
X11859753Y-10118936D01*
X11859753Y-10118936D02*
X11850229Y-10128460D01*
X11850229Y-10128460D02*
X11831182Y-10137984D01*
X11831182Y-10137984D02*
X11812134Y-10137984D01*
X11812134Y-10137984D02*
X11793086Y-10128460D01*
X11793086Y-10128460D02*
X11783563Y-10118936D01*
X11783563Y-10118936D02*
X11774039Y-10099889D01*
X11774039Y-10099889D02*
X11764515Y-10061793D01*
X11764515Y-10061793D02*
X11764515Y-10014174D01*
X11764515Y-10014174D02*
X11774039Y-9976079D01*
X11774039Y-9976079D02*
X11783563Y-9957031D01*
X11783563Y-9957031D02*
X11793086Y-9947508D01*
X11793086Y-9947508D02*
X11812134Y-9937984D01*
X11964515Y-10118936D02*
X11974039Y-10128460D01*
X11974039Y-10128460D02*
X11964515Y-10137984D01*
X11964515Y-10137984D02*
X11954991Y-10128460D01*
X11954991Y-10128460D02*
X11964515Y-10118936D01*
X11964515Y-10118936D02*
X11964515Y-10137984D01*
X12097848Y-9937984D02*
X12116896Y-9937984D01*
X12116896Y-9937984D02*
X12135944Y-9947508D01*
X12135944Y-9947508D02*
X12145467Y-9957031D01*
X12145467Y-9957031D02*
X12154991Y-9976079D01*
X12154991Y-9976079D02*
X12164515Y-10014174D01*
X12164515Y-10014174D02*
X12164515Y-10061793D01*
X12164515Y-10061793D02*
X12154991Y-10099889D01*
X12154991Y-10099889D02*
X12145467Y-10118936D01*
X12145467Y-10118936D02*
X12135944Y-10128460D01*
X12135944Y-10128460D02*
X12116896Y-10137984D01*
X12116896Y-10137984D02*
X12097848Y-10137984D01*
X12097848Y-10137984D02*
X12078801Y-10128460D01*
X12078801Y-10128460D02*
X12069277Y-10118936D01*
X12069277Y-10118936D02*
X12059753Y-10099889D01*
X12059753Y-10099889D02*
X12050229Y-10061793D01*
X12050229Y-10061793D02*
X12050229Y-10014174D01*
X12050229Y-10014174D02*
X12059753Y-9976079D01*
X12059753Y-9976079D02*
X12069277Y-9957031D01*
X12069277Y-9957031D02*
X12078801Y-9947508D01*
X12078801Y-9947508D02*
X12097848Y-9937984D01*
X12354991Y-10137984D02*
X12240706Y-10137984D01*
X12297848Y-10137984D02*
X12297848Y-9937984D01*
X12297848Y-9937984D02*
X12278801Y-9966555D01*
X12278801Y-9966555D02*
X12259753Y-9985603D01*
X12259753Y-9985603D02*
X12240706Y-9995127D01*
X12535944Y-9937984D02*
X12440706Y-9937984D01*
X12440706Y-9937984D02*
X12431182Y-10033222D01*
X12431182Y-10033222D02*
X12440706Y-10023698D01*
X12440706Y-10023698D02*
X12459753Y-10014174D01*
X12459753Y-10014174D02*
X12507372Y-10014174D01*
X12507372Y-10014174D02*
X12526420Y-10023698D01*
X12526420Y-10023698D02*
X12535944Y-10033222D01*
X12535944Y-10033222D02*
X12545467Y-10052270D01*
X12545467Y-10052270D02*
X12545467Y-10099889D01*
X12545467Y-10099889D02*
X12535944Y-10118936D01*
X12535944Y-10118936D02*
X12526420Y-10128460D01*
X12526420Y-10128460D02*
X12507372Y-10137984D01*
X12507372Y-10137984D02*
X12459753Y-10137984D01*
X12459753Y-10137984D02*
X12440706Y-10128460D01*
X12440706Y-10128460D02*
X12431182Y-10118936D01*
X12612134Y-9937984D02*
X12745467Y-9937984D01*
X12745467Y-9937984D02*
X12659753Y-10137984D01*
X12812134Y-9937984D02*
X12812134Y-9976079D01*
X12888325Y-9937984D02*
X12888325Y-9976079D01*
X13183563Y-10214174D02*
X13174039Y-10204650D01*
X13174039Y-10204650D02*
X13154991Y-10176079D01*
X13154991Y-10176079D02*
X13145468Y-10157031D01*
X13145468Y-10157031D02*
X13135944Y-10128460D01*
X13135944Y-10128460D02*
X13126420Y-10080841D01*
X13126420Y-10080841D02*
X13126420Y-10042746D01*
X13126420Y-10042746D02*
X13135944Y-9995127D01*
X13135944Y-9995127D02*
X13145468Y-9966555D01*
X13145468Y-9966555D02*
X13154991Y-9947508D01*
X13154991Y-9947508D02*
X13174039Y-9918936D01*
X13174039Y-9918936D02*
X13183563Y-9909412D01*
X13240706Y-9937984D02*
X13364515Y-9937984D01*
X13364515Y-9937984D02*
X13297848Y-10014174D01*
X13297848Y-10014174D02*
X13326420Y-10014174D01*
X13326420Y-10014174D02*
X13345468Y-10023698D01*
X13345468Y-10023698D02*
X13354991Y-10033222D01*
X13354991Y-10033222D02*
X13364515Y-10052270D01*
X13364515Y-10052270D02*
X13364515Y-10099889D01*
X13364515Y-10099889D02*
X13354991Y-10118936D01*
X13354991Y-10118936D02*
X13345468Y-10128460D01*
X13345468Y-10128460D02*
X13326420Y-10137984D01*
X13326420Y-10137984D02*
X13269277Y-10137984D01*
X13269277Y-10137984D02*
X13250229Y-10128460D01*
X13250229Y-10128460D02*
X13240706Y-10118936D01*
X13602610Y-10137984D02*
X13602610Y-9937984D01*
X13688325Y-10137984D02*
X13688325Y-10033222D01*
X13688325Y-10033222D02*
X13678801Y-10014174D01*
X13678801Y-10014174D02*
X13659753Y-10004650D01*
X13659753Y-10004650D02*
X13631182Y-10004650D01*
X13631182Y-10004650D02*
X13612134Y-10014174D01*
X13612134Y-10014174D02*
X13602610Y-10023698D01*
X13812134Y-10137984D02*
X13793087Y-10128460D01*
X13793087Y-10128460D02*
X13783563Y-10118936D01*
X13783563Y-10118936D02*
X13774039Y-10099889D01*
X13774039Y-10099889D02*
X13774039Y-10042746D01*
X13774039Y-10042746D02*
X13783563Y-10023698D01*
X13783563Y-10023698D02*
X13793087Y-10014174D01*
X13793087Y-10014174D02*
X13812134Y-10004650D01*
X13812134Y-10004650D02*
X13840706Y-10004650D01*
X13840706Y-10004650D02*
X13859753Y-10014174D01*
X13859753Y-10014174D02*
X13869277Y-10023698D01*
X13869277Y-10023698D02*
X13878801Y-10042746D01*
X13878801Y-10042746D02*
X13878801Y-10099889D01*
X13878801Y-10099889D02*
X13869277Y-10118936D01*
X13869277Y-10118936D02*
X13859753Y-10128460D01*
X13859753Y-10128460D02*
X13840706Y-10137984D01*
X13840706Y-10137984D02*
X13812134Y-10137984D01*
X13993087Y-10137984D02*
X13974039Y-10128460D01*
X13974039Y-10128460D02*
X13964515Y-10109412D01*
X13964515Y-10109412D02*
X13964515Y-9937984D01*
X14145468Y-10128460D02*
X14126420Y-10137984D01*
X14126420Y-10137984D02*
X14088325Y-10137984D01*
X14088325Y-10137984D02*
X14069277Y-10128460D01*
X14069277Y-10128460D02*
X14059753Y-10109412D01*
X14059753Y-10109412D02*
X14059753Y-10033222D01*
X14059753Y-10033222D02*
X14069277Y-10014174D01*
X14069277Y-10014174D02*
X14088325Y-10004650D01*
X14088325Y-10004650D02*
X14126420Y-10004650D01*
X14126420Y-10004650D02*
X14145468Y-10014174D01*
X14145468Y-10014174D02*
X14154991Y-10033222D01*
X14154991Y-10033222D02*
X14154991Y-10052270D01*
X14154991Y-10052270D02*
X14059753Y-10071317D01*
X14231182Y-10128460D02*
X14250230Y-10137984D01*
X14250230Y-10137984D02*
X14288325Y-10137984D01*
X14288325Y-10137984D02*
X14307372Y-10128460D01*
X14307372Y-10128460D02*
X14316896Y-10109412D01*
X14316896Y-10109412D02*
X14316896Y-10099889D01*
X14316896Y-10099889D02*
X14307372Y-10080841D01*
X14307372Y-10080841D02*
X14288325Y-10071317D01*
X14288325Y-10071317D02*
X14259753Y-10071317D01*
X14259753Y-10071317D02*
X14240706Y-10061793D01*
X14240706Y-10061793D02*
X14231182Y-10042746D01*
X14231182Y-10042746D02*
X14231182Y-10033222D01*
X14231182Y-10033222D02*
X14240706Y-10014174D01*
X14240706Y-10014174D02*
X14259753Y-10004650D01*
X14259753Y-10004650D02*
X14288325Y-10004650D01*
X14288325Y-10004650D02*
X14307372Y-10014174D01*
X14383563Y-10214174D02*
X14393087Y-10204650D01*
X14393087Y-10204650D02*
X14412134Y-10176079D01*
X14412134Y-10176079D02*
X14421658Y-10157031D01*
X14421658Y-10157031D02*
X14431182Y-10128460D01*
X14431182Y-10128460D02*
X14440706Y-10080841D01*
X14440706Y-10080841D02*
X14440706Y-10042746D01*
X14440706Y-10042746D02*
X14431182Y-9995127D01*
X14431182Y-9995127D02*
X14421658Y-9966555D01*
X14421658Y-9966555D02*
X14412134Y-9947508D01*
X14412134Y-9947508D02*
X14393087Y-9918936D01*
X14393087Y-9918936D02*
X14383563Y-9909412D01*
D12*
X9599713Y-10331713D02*
X9599713Y-10289287D01*
X9557287Y-10289287D01*
X9557287Y-10331713D01*
X9599713Y-10331713D01*
D11*
X9907372Y-10201984D02*
X9926420Y-10201984D01*
X9926420Y-10201984D02*
X9945467Y-10211508D01*
X9945467Y-10211508D02*
X9954991Y-10221031D01*
X9954991Y-10221031D02*
X9964515Y-10240079D01*
X9964515Y-10240079D02*
X9974039Y-10278174D01*
X9974039Y-10278174D02*
X9974039Y-10325793D01*
X9974039Y-10325793D02*
X9964515Y-10363889D01*
X9964515Y-10363889D02*
X9954991Y-10382936D01*
X9954991Y-10382936D02*
X9945467Y-10392460D01*
X9945467Y-10392460D02*
X9926420Y-10401984D01*
X9926420Y-10401984D02*
X9907372Y-10401984D01*
X9907372Y-10401984D02*
X9888324Y-10392460D01*
X9888324Y-10392460D02*
X9878801Y-10382936D01*
X9878801Y-10382936D02*
X9869277Y-10363889D01*
X9869277Y-10363889D02*
X9859753Y-10325793D01*
X9859753Y-10325793D02*
X9859753Y-10278174D01*
X9859753Y-10278174D02*
X9869277Y-10240079D01*
X9869277Y-10240079D02*
X9878801Y-10221031D01*
X9878801Y-10221031D02*
X9888324Y-10211508D01*
X9888324Y-10211508D02*
X9907372Y-10201984D01*
X10059753Y-10382936D02*
X10069277Y-10392460D01*
X10069277Y-10392460D02*
X10059753Y-10401984D01*
X10059753Y-10401984D02*
X10050229Y-10392460D01*
X10050229Y-10392460D02*
X10059753Y-10382936D01*
X10059753Y-10382936D02*
X10059753Y-10401984D01*
X10240705Y-10201984D02*
X10202610Y-10201984D01*
X10202610Y-10201984D02*
X10183563Y-10211508D01*
X10183563Y-10211508D02*
X10174039Y-10221031D01*
X10174039Y-10221031D02*
X10154991Y-10249603D01*
X10154991Y-10249603D02*
X10145467Y-10287698D01*
X10145467Y-10287698D02*
X10145467Y-10363889D01*
X10145467Y-10363889D02*
X10154991Y-10382936D01*
X10154991Y-10382936D02*
X10164515Y-10392460D01*
X10164515Y-10392460D02*
X10183563Y-10401984D01*
X10183563Y-10401984D02*
X10221658Y-10401984D01*
X10221658Y-10401984D02*
X10240705Y-10392460D01*
X10240705Y-10392460D02*
X10250229Y-10382936D01*
X10250229Y-10382936D02*
X10259753Y-10363889D01*
X10259753Y-10363889D02*
X10259753Y-10316270D01*
X10259753Y-10316270D02*
X10250229Y-10297222D01*
X10250229Y-10297222D02*
X10240705Y-10287698D01*
X10240705Y-10287698D02*
X10221658Y-10278174D01*
X10221658Y-10278174D02*
X10183563Y-10278174D01*
X10183563Y-10278174D02*
X10164515Y-10287698D01*
X10164515Y-10287698D02*
X10154991Y-10297222D01*
X10154991Y-10297222D02*
X10145467Y-10316270D01*
X10383563Y-10201984D02*
X10402610Y-10201984D01*
X10402610Y-10201984D02*
X10421658Y-10211508D01*
X10421658Y-10211508D02*
X10431182Y-10221031D01*
X10431182Y-10221031D02*
X10440705Y-10240079D01*
X10440705Y-10240079D02*
X10450229Y-10278174D01*
X10450229Y-10278174D02*
X10450229Y-10325793D01*
X10450229Y-10325793D02*
X10440705Y-10363889D01*
X10440705Y-10363889D02*
X10431182Y-10382936D01*
X10431182Y-10382936D02*
X10421658Y-10392460D01*
X10421658Y-10392460D02*
X10402610Y-10401984D01*
X10402610Y-10401984D02*
X10383563Y-10401984D01*
X10383563Y-10401984D02*
X10364515Y-10392460D01*
X10364515Y-10392460D02*
X10354991Y-10382936D01*
X10354991Y-10382936D02*
X10345467Y-10363889D01*
X10345467Y-10363889D02*
X10335944Y-10325793D01*
X10335944Y-10325793D02*
X10335944Y-10278174D01*
X10335944Y-10278174D02*
X10345467Y-10240079D01*
X10345467Y-10240079D02*
X10354991Y-10221031D01*
X10354991Y-10221031D02*
X10364515Y-10211508D01*
X10364515Y-10211508D02*
X10383563Y-10201984D01*
X10574039Y-10201984D02*
X10593086Y-10201984D01*
X10593086Y-10201984D02*
X10612134Y-10211508D01*
X10612134Y-10211508D02*
X10621658Y-10221031D01*
X10621658Y-10221031D02*
X10631182Y-10240079D01*
X10631182Y-10240079D02*
X10640705Y-10278174D01*
X10640705Y-10278174D02*
X10640705Y-10325793D01*
X10640705Y-10325793D02*
X10631182Y-10363889D01*
X10631182Y-10363889D02*
X10621658Y-10382936D01*
X10621658Y-10382936D02*
X10612134Y-10392460D01*
X10612134Y-10392460D02*
X10593086Y-10401984D01*
X10593086Y-10401984D02*
X10574039Y-10401984D01*
X10574039Y-10401984D02*
X10554991Y-10392460D01*
X10554991Y-10392460D02*
X10545467Y-10382936D01*
X10545467Y-10382936D02*
X10535944Y-10363889D01*
X10535944Y-10363889D02*
X10526420Y-10325793D01*
X10526420Y-10325793D02*
X10526420Y-10278174D01*
X10526420Y-10278174D02*
X10535944Y-10240079D01*
X10535944Y-10240079D02*
X10545467Y-10221031D01*
X10545467Y-10221031D02*
X10554991Y-10211508D01*
X10554991Y-10211508D02*
X10574039Y-10201984D01*
X10726420Y-10401984D02*
X10726420Y-10268650D01*
X10726420Y-10287698D02*
X10735944Y-10278174D01*
X10735944Y-10278174D02*
X10754991Y-10268650D01*
X10754991Y-10268650D02*
X10783563Y-10268650D01*
X10783563Y-10268650D02*
X10802610Y-10278174D01*
X10802610Y-10278174D02*
X10812134Y-10297222D01*
X10812134Y-10297222D02*
X10812134Y-10401984D01*
X10812134Y-10297222D02*
X10821658Y-10278174D01*
X10821658Y-10278174D02*
X10840705Y-10268650D01*
X10840705Y-10268650D02*
X10869277Y-10268650D01*
X10869277Y-10268650D02*
X10888325Y-10278174D01*
X10888325Y-10278174D02*
X10897848Y-10297222D01*
X10897848Y-10297222D02*
X10897848Y-10401984D01*
X10993086Y-10401984D02*
X10993086Y-10268650D01*
X10993086Y-10287698D02*
X11002610Y-10278174D01*
X11002610Y-10278174D02*
X11021658Y-10268650D01*
X11021658Y-10268650D02*
X11050229Y-10268650D01*
X11050229Y-10268650D02*
X11069277Y-10278174D01*
X11069277Y-10278174D02*
X11078801Y-10297222D01*
X11078801Y-10297222D02*
X11078801Y-10401984D01*
X11078801Y-10297222D02*
X11088325Y-10278174D01*
X11088325Y-10278174D02*
X11107372Y-10268650D01*
X11107372Y-10268650D02*
X11135944Y-10268650D01*
X11135944Y-10268650D02*
X11154991Y-10278174D01*
X11154991Y-10278174D02*
X11164515Y-10297222D01*
X11164515Y-10297222D02*
X11164515Y-10401984D01*
X11554991Y-10192460D02*
X11383563Y-10449603D01*
X11812134Y-10201984D02*
X11831182Y-10201984D01*
X11831182Y-10201984D02*
X11850229Y-10211508D01*
X11850229Y-10211508D02*
X11859753Y-10221031D01*
X11859753Y-10221031D02*
X11869277Y-10240079D01*
X11869277Y-10240079D02*
X11878801Y-10278174D01*
X11878801Y-10278174D02*
X11878801Y-10325793D01*
X11878801Y-10325793D02*
X11869277Y-10363889D01*
X11869277Y-10363889D02*
X11859753Y-10382936D01*
X11859753Y-10382936D02*
X11850229Y-10392460D01*
X11850229Y-10392460D02*
X11831182Y-10401984D01*
X11831182Y-10401984D02*
X11812134Y-10401984D01*
X11812134Y-10401984D02*
X11793086Y-10392460D01*
X11793086Y-10392460D02*
X11783563Y-10382936D01*
X11783563Y-10382936D02*
X11774039Y-10363889D01*
X11774039Y-10363889D02*
X11764515Y-10325793D01*
X11764515Y-10325793D02*
X11764515Y-10278174D01*
X11764515Y-10278174D02*
X11774039Y-10240079D01*
X11774039Y-10240079D02*
X11783563Y-10221031D01*
X11783563Y-10221031D02*
X11793086Y-10211508D01*
X11793086Y-10211508D02*
X11812134Y-10201984D01*
X11964515Y-10382936D02*
X11974039Y-10392460D01*
X11974039Y-10392460D02*
X11964515Y-10401984D01*
X11964515Y-10401984D02*
X11954991Y-10392460D01*
X11954991Y-10392460D02*
X11964515Y-10382936D01*
X11964515Y-10382936D02*
X11964515Y-10401984D01*
X12097848Y-10201984D02*
X12116896Y-10201984D01*
X12116896Y-10201984D02*
X12135944Y-10211508D01*
X12135944Y-10211508D02*
X12145467Y-10221031D01*
X12145467Y-10221031D02*
X12154991Y-10240079D01*
X12154991Y-10240079D02*
X12164515Y-10278174D01*
X12164515Y-10278174D02*
X12164515Y-10325793D01*
X12164515Y-10325793D02*
X12154991Y-10363889D01*
X12154991Y-10363889D02*
X12145467Y-10382936D01*
X12145467Y-10382936D02*
X12135944Y-10392460D01*
X12135944Y-10392460D02*
X12116896Y-10401984D01*
X12116896Y-10401984D02*
X12097848Y-10401984D01*
X12097848Y-10401984D02*
X12078801Y-10392460D01*
X12078801Y-10392460D02*
X12069277Y-10382936D01*
X12069277Y-10382936D02*
X12059753Y-10363889D01*
X12059753Y-10363889D02*
X12050229Y-10325793D01*
X12050229Y-10325793D02*
X12050229Y-10278174D01*
X12050229Y-10278174D02*
X12059753Y-10240079D01*
X12059753Y-10240079D02*
X12069277Y-10221031D01*
X12069277Y-10221031D02*
X12078801Y-10211508D01*
X12078801Y-10211508D02*
X12097848Y-10201984D01*
X12240706Y-10221031D02*
X12250229Y-10211508D01*
X12250229Y-10211508D02*
X12269277Y-10201984D01*
X12269277Y-10201984D02*
X12316896Y-10201984D01*
X12316896Y-10201984D02*
X12335944Y-10211508D01*
X12335944Y-10211508D02*
X12345467Y-10221031D01*
X12345467Y-10221031D02*
X12354991Y-10240079D01*
X12354991Y-10240079D02*
X12354991Y-10259127D01*
X12354991Y-10259127D02*
X12345467Y-10287698D01*
X12345467Y-10287698D02*
X12231182Y-10401984D01*
X12231182Y-10401984D02*
X12354991Y-10401984D01*
X12421658Y-10201984D02*
X12545467Y-10201984D01*
X12545467Y-10201984D02*
X12478801Y-10278174D01*
X12478801Y-10278174D02*
X12507372Y-10278174D01*
X12507372Y-10278174D02*
X12526420Y-10287698D01*
X12526420Y-10287698D02*
X12535944Y-10297222D01*
X12535944Y-10297222D02*
X12545467Y-10316270D01*
X12545467Y-10316270D02*
X12545467Y-10363889D01*
X12545467Y-10363889D02*
X12535944Y-10382936D01*
X12535944Y-10382936D02*
X12526420Y-10392460D01*
X12526420Y-10392460D02*
X12507372Y-10401984D01*
X12507372Y-10401984D02*
X12450229Y-10401984D01*
X12450229Y-10401984D02*
X12431182Y-10392460D01*
X12431182Y-10392460D02*
X12421658Y-10382936D01*
X12716896Y-10201984D02*
X12678801Y-10201984D01*
X12678801Y-10201984D02*
X12659753Y-10211508D01*
X12659753Y-10211508D02*
X12650229Y-10221031D01*
X12650229Y-10221031D02*
X12631182Y-10249603D01*
X12631182Y-10249603D02*
X12621658Y-10287698D01*
X12621658Y-10287698D02*
X12621658Y-10363889D01*
X12621658Y-10363889D02*
X12631182Y-10382936D01*
X12631182Y-10382936D02*
X12640706Y-10392460D01*
X12640706Y-10392460D02*
X12659753Y-10401984D01*
X12659753Y-10401984D02*
X12697848Y-10401984D01*
X12697848Y-10401984D02*
X12716896Y-10392460D01*
X12716896Y-10392460D02*
X12726420Y-10382936D01*
X12726420Y-10382936D02*
X12735944Y-10363889D01*
X12735944Y-10363889D02*
X12735944Y-10316270D01*
X12735944Y-10316270D02*
X12726420Y-10297222D01*
X12726420Y-10297222D02*
X12716896Y-10287698D01*
X12716896Y-10287698D02*
X12697848Y-10278174D01*
X12697848Y-10278174D02*
X12659753Y-10278174D01*
X12659753Y-10278174D02*
X12640706Y-10287698D01*
X12640706Y-10287698D02*
X12631182Y-10297222D01*
X12631182Y-10297222D02*
X12621658Y-10316270D01*
X12812134Y-10201984D02*
X12812134Y-10240079D01*
X12888325Y-10201984D02*
X12888325Y-10240079D01*
X13183563Y-10478174D02*
X13174039Y-10468650D01*
X13174039Y-10468650D02*
X13154991Y-10440079D01*
X13154991Y-10440079D02*
X13145468Y-10421031D01*
X13145468Y-10421031D02*
X13135944Y-10392460D01*
X13135944Y-10392460D02*
X13126420Y-10344841D01*
X13126420Y-10344841D02*
X13126420Y-10306746D01*
X13126420Y-10306746D02*
X13135944Y-10259127D01*
X13135944Y-10259127D02*
X13145468Y-10230555D01*
X13145468Y-10230555D02*
X13154991Y-10211508D01*
X13154991Y-10211508D02*
X13174039Y-10182936D01*
X13174039Y-10182936D02*
X13183563Y-10173412D01*
X13297848Y-10201984D02*
X13316896Y-10201984D01*
X13316896Y-10201984D02*
X13335944Y-10211508D01*
X13335944Y-10211508D02*
X13345468Y-10221031D01*
X13345468Y-10221031D02*
X13354991Y-10240079D01*
X13354991Y-10240079D02*
X13364515Y-10278174D01*
X13364515Y-10278174D02*
X13364515Y-10325793D01*
X13364515Y-10325793D02*
X13354991Y-10363889D01*
X13354991Y-10363889D02*
X13345468Y-10382936D01*
X13345468Y-10382936D02*
X13335944Y-10392460D01*
X13335944Y-10392460D02*
X13316896Y-10401984D01*
X13316896Y-10401984D02*
X13297848Y-10401984D01*
X13297848Y-10401984D02*
X13278801Y-10392460D01*
X13278801Y-10392460D02*
X13269277Y-10382936D01*
X13269277Y-10382936D02*
X13259753Y-10363889D01*
X13259753Y-10363889D02*
X13250229Y-10325793D01*
X13250229Y-10325793D02*
X13250229Y-10278174D01*
X13250229Y-10278174D02*
X13259753Y-10240079D01*
X13259753Y-10240079D02*
X13269277Y-10221031D01*
X13269277Y-10221031D02*
X13278801Y-10211508D01*
X13278801Y-10211508D02*
X13297848Y-10201984D01*
X13602610Y-10401984D02*
X13602610Y-10201984D01*
X13688325Y-10401984D02*
X13688325Y-10297222D01*
X13688325Y-10297222D02*
X13678801Y-10278174D01*
X13678801Y-10278174D02*
X13659753Y-10268650D01*
X13659753Y-10268650D02*
X13631182Y-10268650D01*
X13631182Y-10268650D02*
X13612134Y-10278174D01*
X13612134Y-10278174D02*
X13602610Y-10287698D01*
X13812134Y-10401984D02*
X13793087Y-10392460D01*
X13793087Y-10392460D02*
X13783563Y-10382936D01*
X13783563Y-10382936D02*
X13774039Y-10363889D01*
X13774039Y-10363889D02*
X13774039Y-10306746D01*
X13774039Y-10306746D02*
X13783563Y-10287698D01*
X13783563Y-10287698D02*
X13793087Y-10278174D01*
X13793087Y-10278174D02*
X13812134Y-10268650D01*
X13812134Y-10268650D02*
X13840706Y-10268650D01*
X13840706Y-10268650D02*
X13859753Y-10278174D01*
X13859753Y-10278174D02*
X13869277Y-10287698D01*
X13869277Y-10287698D02*
X13878801Y-10306746D01*
X13878801Y-10306746D02*
X13878801Y-10363889D01*
X13878801Y-10363889D02*
X13869277Y-10382936D01*
X13869277Y-10382936D02*
X13859753Y-10392460D01*
X13859753Y-10392460D02*
X13840706Y-10401984D01*
X13840706Y-10401984D02*
X13812134Y-10401984D01*
X13993087Y-10401984D02*
X13974039Y-10392460D01*
X13974039Y-10392460D02*
X13964515Y-10373412D01*
X13964515Y-10373412D02*
X13964515Y-10201984D01*
X14145468Y-10392460D02*
X14126420Y-10401984D01*
X14126420Y-10401984D02*
X14088325Y-10401984D01*
X14088325Y-10401984D02*
X14069277Y-10392460D01*
X14069277Y-10392460D02*
X14059753Y-10373412D01*
X14059753Y-10373412D02*
X14059753Y-10297222D01*
X14059753Y-10297222D02*
X14069277Y-10278174D01*
X14069277Y-10278174D02*
X14088325Y-10268650D01*
X14088325Y-10268650D02*
X14126420Y-10268650D01*
X14126420Y-10268650D02*
X14145468Y-10278174D01*
X14145468Y-10278174D02*
X14154991Y-10297222D01*
X14154991Y-10297222D02*
X14154991Y-10316270D01*
X14154991Y-10316270D02*
X14059753Y-10335317D01*
X14231182Y-10392460D02*
X14250230Y-10401984D01*
X14250230Y-10401984D02*
X14288325Y-10401984D01*
X14288325Y-10401984D02*
X14307372Y-10392460D01*
X14307372Y-10392460D02*
X14316896Y-10373412D01*
X14316896Y-10373412D02*
X14316896Y-10363889D01*
X14316896Y-10363889D02*
X14307372Y-10344841D01*
X14307372Y-10344841D02*
X14288325Y-10335317D01*
X14288325Y-10335317D02*
X14259753Y-10335317D01*
X14259753Y-10335317D02*
X14240706Y-10325793D01*
X14240706Y-10325793D02*
X14231182Y-10306746D01*
X14231182Y-10306746D02*
X14231182Y-10297222D01*
X14231182Y-10297222D02*
X14240706Y-10278174D01*
X14240706Y-10278174D02*
X14259753Y-10268650D01*
X14259753Y-10268650D02*
X14288325Y-10268650D01*
X14288325Y-10268650D02*
X14307372Y-10278174D01*
X14554992Y-10325793D02*
X14707373Y-10325793D01*
X14631182Y-10401984D02*
X14631182Y-10249603D01*
X15040706Y-10268650D02*
X15040706Y-10401984D01*
X14993087Y-10192460D02*
X14945468Y-10335317D01*
X14945468Y-10335317D02*
X15069277Y-10335317D01*
X15288325Y-10392460D02*
X15307373Y-10401984D01*
X15307373Y-10401984D02*
X15345468Y-10401984D01*
X15345468Y-10401984D02*
X15364515Y-10392460D01*
X15364515Y-10392460D02*
X15374039Y-10373412D01*
X15374039Y-10373412D02*
X15374039Y-10363889D01*
X15374039Y-10363889D02*
X15364515Y-10344841D01*
X15364515Y-10344841D02*
X15345468Y-10335317D01*
X15345468Y-10335317D02*
X15316896Y-10335317D01*
X15316896Y-10335317D02*
X15297849Y-10325793D01*
X15297849Y-10325793D02*
X15288325Y-10306746D01*
X15288325Y-10306746D02*
X15288325Y-10297222D01*
X15288325Y-10297222D02*
X15297849Y-10278174D01*
X15297849Y-10278174D02*
X15316896Y-10268650D01*
X15316896Y-10268650D02*
X15345468Y-10268650D01*
X15345468Y-10268650D02*
X15364515Y-10278174D01*
X15488325Y-10401984D02*
X15469277Y-10392460D01*
X15469277Y-10392460D02*
X15459754Y-10373412D01*
X15459754Y-10373412D02*
X15459754Y-10201984D01*
X15593087Y-10401984D02*
X15574039Y-10392460D01*
X15574039Y-10392460D02*
X15564515Y-10382936D01*
X15564515Y-10382936D02*
X15554992Y-10363889D01*
X15554992Y-10363889D02*
X15554992Y-10306746D01*
X15554992Y-10306746D02*
X15564515Y-10287698D01*
X15564515Y-10287698D02*
X15574039Y-10278174D01*
X15574039Y-10278174D02*
X15593087Y-10268650D01*
X15593087Y-10268650D02*
X15621658Y-10268650D01*
X15621658Y-10268650D02*
X15640706Y-10278174D01*
X15640706Y-10278174D02*
X15650230Y-10287698D01*
X15650230Y-10287698D02*
X15659754Y-10306746D01*
X15659754Y-10306746D02*
X15659754Y-10363889D01*
X15659754Y-10363889D02*
X15650230Y-10382936D01*
X15650230Y-10382936D02*
X15640706Y-10392460D01*
X15640706Y-10392460D02*
X15621658Y-10401984D01*
X15621658Y-10401984D02*
X15593087Y-10401984D01*
X15716896Y-10268650D02*
X15793087Y-10268650D01*
X15745468Y-10201984D02*
X15745468Y-10373412D01*
X15745468Y-10373412D02*
X15754992Y-10392460D01*
X15754992Y-10392460D02*
X15774039Y-10401984D01*
X15774039Y-10401984D02*
X15793087Y-10401984D01*
X15850230Y-10392460D02*
X15869277Y-10401984D01*
X15869277Y-10401984D02*
X15907373Y-10401984D01*
X15907373Y-10401984D02*
X15926420Y-10392460D01*
X15926420Y-10392460D02*
X15935944Y-10373412D01*
X15935944Y-10373412D02*
X15935944Y-10363889D01*
X15935944Y-10363889D02*
X15926420Y-10344841D01*
X15926420Y-10344841D02*
X15907373Y-10335317D01*
X15907373Y-10335317D02*
X15878801Y-10335317D01*
X15878801Y-10335317D02*
X15859754Y-10325793D01*
X15859754Y-10325793D02*
X15850230Y-10306746D01*
X15850230Y-10306746D02*
X15850230Y-10297222D01*
X15850230Y-10297222D02*
X15859754Y-10278174D01*
X15859754Y-10278174D02*
X15878801Y-10268650D01*
X15878801Y-10268650D02*
X15907373Y-10268650D01*
X15907373Y-10268650D02*
X15926420Y-10278174D01*
X16002611Y-10478174D02*
X16012135Y-10468650D01*
X16012135Y-10468650D02*
X16031182Y-10440079D01*
X16031182Y-10440079D02*
X16040706Y-10421031D01*
X16040706Y-10421031D02*
X16050230Y-10392460D01*
X16050230Y-10392460D02*
X16059754Y-10344841D01*
X16059754Y-10344841D02*
X16059754Y-10306746D01*
X16059754Y-10306746D02*
X16050230Y-10259127D01*
X16050230Y-10259127D02*
X16040706Y-10230555D01*
X16040706Y-10230555D02*
X16031182Y-10211508D01*
X16031182Y-10211508D02*
X16012135Y-10182936D01*
X16012135Y-10182936D02*
X16002611Y-10173412D01*
D12*
X9558500Y-10624500D02*
X9608500Y-10574500D01*
X9558500Y-10524500D01*
X9508500Y-10574500D01*
X9558500Y-10624500D01*
D11*
X9974039Y-10665984D02*
X9859753Y-10665984D01*
X9916896Y-10665984D02*
X9916896Y-10465984D01*
X9916896Y-10465984D02*
X9897848Y-10494555D01*
X9897848Y-10494555D02*
X9878801Y-10513603D01*
X9878801Y-10513603D02*
X9859753Y-10523127D01*
X10059753Y-10646936D02*
X10069277Y-10656460D01*
X10069277Y-10656460D02*
X10059753Y-10665984D01*
X10059753Y-10665984D02*
X10050229Y-10656460D01*
X10050229Y-10656460D02*
X10059753Y-10646936D01*
X10059753Y-10646936D02*
X10059753Y-10665984D01*
X10193086Y-10465984D02*
X10212134Y-10465984D01*
X10212134Y-10465984D02*
X10231182Y-10475508D01*
X10231182Y-10475508D02*
X10240705Y-10485031D01*
X10240705Y-10485031D02*
X10250229Y-10504079D01*
X10250229Y-10504079D02*
X10259753Y-10542174D01*
X10259753Y-10542174D02*
X10259753Y-10589793D01*
X10259753Y-10589793D02*
X10250229Y-10627889D01*
X10250229Y-10627889D02*
X10240705Y-10646936D01*
X10240705Y-10646936D02*
X10231182Y-10656460D01*
X10231182Y-10656460D02*
X10212134Y-10665984D01*
X10212134Y-10665984D02*
X10193086Y-10665984D01*
X10193086Y-10665984D02*
X10174039Y-10656460D01*
X10174039Y-10656460D02*
X10164515Y-10646936D01*
X10164515Y-10646936D02*
X10154991Y-10627889D01*
X10154991Y-10627889D02*
X10145467Y-10589793D01*
X10145467Y-10589793D02*
X10145467Y-10542174D01*
X10145467Y-10542174D02*
X10154991Y-10504079D01*
X10154991Y-10504079D02*
X10164515Y-10485031D01*
X10164515Y-10485031D02*
X10174039Y-10475508D01*
X10174039Y-10475508D02*
X10193086Y-10465984D01*
X10383563Y-10465984D02*
X10402610Y-10465984D01*
X10402610Y-10465984D02*
X10421658Y-10475508D01*
X10421658Y-10475508D02*
X10431182Y-10485031D01*
X10431182Y-10485031D02*
X10440705Y-10504079D01*
X10440705Y-10504079D02*
X10450229Y-10542174D01*
X10450229Y-10542174D02*
X10450229Y-10589793D01*
X10450229Y-10589793D02*
X10440705Y-10627889D01*
X10440705Y-10627889D02*
X10431182Y-10646936D01*
X10431182Y-10646936D02*
X10421658Y-10656460D01*
X10421658Y-10656460D02*
X10402610Y-10665984D01*
X10402610Y-10665984D02*
X10383563Y-10665984D01*
X10383563Y-10665984D02*
X10364515Y-10656460D01*
X10364515Y-10656460D02*
X10354991Y-10646936D01*
X10354991Y-10646936D02*
X10345467Y-10627889D01*
X10345467Y-10627889D02*
X10335944Y-10589793D01*
X10335944Y-10589793D02*
X10335944Y-10542174D01*
X10335944Y-10542174D02*
X10345467Y-10504079D01*
X10345467Y-10504079D02*
X10354991Y-10485031D01*
X10354991Y-10485031D02*
X10364515Y-10475508D01*
X10364515Y-10475508D02*
X10383563Y-10465984D01*
X10574039Y-10465984D02*
X10593086Y-10465984D01*
X10593086Y-10465984D02*
X10612134Y-10475508D01*
X10612134Y-10475508D02*
X10621658Y-10485031D01*
X10621658Y-10485031D02*
X10631182Y-10504079D01*
X10631182Y-10504079D02*
X10640705Y-10542174D01*
X10640705Y-10542174D02*
X10640705Y-10589793D01*
X10640705Y-10589793D02*
X10631182Y-10627889D01*
X10631182Y-10627889D02*
X10621658Y-10646936D01*
X10621658Y-10646936D02*
X10612134Y-10656460D01*
X10612134Y-10656460D02*
X10593086Y-10665984D01*
X10593086Y-10665984D02*
X10574039Y-10665984D01*
X10574039Y-10665984D02*
X10554991Y-10656460D01*
X10554991Y-10656460D02*
X10545467Y-10646936D01*
X10545467Y-10646936D02*
X10535944Y-10627889D01*
X10535944Y-10627889D02*
X10526420Y-10589793D01*
X10526420Y-10589793D02*
X10526420Y-10542174D01*
X10526420Y-10542174D02*
X10535944Y-10504079D01*
X10535944Y-10504079D02*
X10545467Y-10485031D01*
X10545467Y-10485031D02*
X10554991Y-10475508D01*
X10554991Y-10475508D02*
X10574039Y-10465984D01*
X10726420Y-10665984D02*
X10726420Y-10532650D01*
X10726420Y-10551698D02*
X10735944Y-10542174D01*
X10735944Y-10542174D02*
X10754991Y-10532650D01*
X10754991Y-10532650D02*
X10783563Y-10532650D01*
X10783563Y-10532650D02*
X10802610Y-10542174D01*
X10802610Y-10542174D02*
X10812134Y-10561222D01*
X10812134Y-10561222D02*
X10812134Y-10665984D01*
X10812134Y-10561222D02*
X10821658Y-10542174D01*
X10821658Y-10542174D02*
X10840705Y-10532650D01*
X10840705Y-10532650D02*
X10869277Y-10532650D01*
X10869277Y-10532650D02*
X10888325Y-10542174D01*
X10888325Y-10542174D02*
X10897848Y-10561222D01*
X10897848Y-10561222D02*
X10897848Y-10665984D01*
X10993086Y-10665984D02*
X10993086Y-10532650D01*
X10993086Y-10551698D02*
X11002610Y-10542174D01*
X11002610Y-10542174D02*
X11021658Y-10532650D01*
X11021658Y-10532650D02*
X11050229Y-10532650D01*
X11050229Y-10532650D02*
X11069277Y-10542174D01*
X11069277Y-10542174D02*
X11078801Y-10561222D01*
X11078801Y-10561222D02*
X11078801Y-10665984D01*
X11078801Y-10561222D02*
X11088325Y-10542174D01*
X11088325Y-10542174D02*
X11107372Y-10532650D01*
X11107372Y-10532650D02*
X11135944Y-10532650D01*
X11135944Y-10532650D02*
X11154991Y-10542174D01*
X11154991Y-10542174D02*
X11164515Y-10561222D01*
X11164515Y-10561222D02*
X11164515Y-10665984D01*
X11554991Y-10456460D02*
X11383563Y-10713603D01*
X11812134Y-10465984D02*
X11831182Y-10465984D01*
X11831182Y-10465984D02*
X11850229Y-10475508D01*
X11850229Y-10475508D02*
X11859753Y-10485031D01*
X11859753Y-10485031D02*
X11869277Y-10504079D01*
X11869277Y-10504079D02*
X11878801Y-10542174D01*
X11878801Y-10542174D02*
X11878801Y-10589793D01*
X11878801Y-10589793D02*
X11869277Y-10627889D01*
X11869277Y-10627889D02*
X11859753Y-10646936D01*
X11859753Y-10646936D02*
X11850229Y-10656460D01*
X11850229Y-10656460D02*
X11831182Y-10665984D01*
X11831182Y-10665984D02*
X11812134Y-10665984D01*
X11812134Y-10665984D02*
X11793086Y-10656460D01*
X11793086Y-10656460D02*
X11783563Y-10646936D01*
X11783563Y-10646936D02*
X11774039Y-10627889D01*
X11774039Y-10627889D02*
X11764515Y-10589793D01*
X11764515Y-10589793D02*
X11764515Y-10542174D01*
X11764515Y-10542174D02*
X11774039Y-10504079D01*
X11774039Y-10504079D02*
X11783563Y-10485031D01*
X11783563Y-10485031D02*
X11793086Y-10475508D01*
X11793086Y-10475508D02*
X11812134Y-10465984D01*
X11964515Y-10646936D02*
X11974039Y-10656460D01*
X11974039Y-10656460D02*
X11964515Y-10665984D01*
X11964515Y-10665984D02*
X11954991Y-10656460D01*
X11954991Y-10656460D02*
X11964515Y-10646936D01*
X11964515Y-10646936D02*
X11964515Y-10665984D01*
X12097848Y-10465984D02*
X12116896Y-10465984D01*
X12116896Y-10465984D02*
X12135944Y-10475508D01*
X12135944Y-10475508D02*
X12145467Y-10485031D01*
X12145467Y-10485031D02*
X12154991Y-10504079D01*
X12154991Y-10504079D02*
X12164515Y-10542174D01*
X12164515Y-10542174D02*
X12164515Y-10589793D01*
X12164515Y-10589793D02*
X12154991Y-10627889D01*
X12154991Y-10627889D02*
X12145467Y-10646936D01*
X12145467Y-10646936D02*
X12135944Y-10656460D01*
X12135944Y-10656460D02*
X12116896Y-10665984D01*
X12116896Y-10665984D02*
X12097848Y-10665984D01*
X12097848Y-10665984D02*
X12078801Y-10656460D01*
X12078801Y-10656460D02*
X12069277Y-10646936D01*
X12069277Y-10646936D02*
X12059753Y-10627889D01*
X12059753Y-10627889D02*
X12050229Y-10589793D01*
X12050229Y-10589793D02*
X12050229Y-10542174D01*
X12050229Y-10542174D02*
X12059753Y-10504079D01*
X12059753Y-10504079D02*
X12069277Y-10485031D01*
X12069277Y-10485031D02*
X12078801Y-10475508D01*
X12078801Y-10475508D02*
X12097848Y-10465984D01*
X12231182Y-10465984D02*
X12354991Y-10465984D01*
X12354991Y-10465984D02*
X12288325Y-10542174D01*
X12288325Y-10542174D02*
X12316896Y-10542174D01*
X12316896Y-10542174D02*
X12335944Y-10551698D01*
X12335944Y-10551698D02*
X12345467Y-10561222D01*
X12345467Y-10561222D02*
X12354991Y-10580270D01*
X12354991Y-10580270D02*
X12354991Y-10627889D01*
X12354991Y-10627889D02*
X12345467Y-10646936D01*
X12345467Y-10646936D02*
X12335944Y-10656460D01*
X12335944Y-10656460D02*
X12316896Y-10665984D01*
X12316896Y-10665984D02*
X12259753Y-10665984D01*
X12259753Y-10665984D02*
X12240706Y-10656460D01*
X12240706Y-10656460D02*
X12231182Y-10646936D01*
X12450229Y-10665984D02*
X12488325Y-10665984D01*
X12488325Y-10665984D02*
X12507372Y-10656460D01*
X12507372Y-10656460D02*
X12516896Y-10646936D01*
X12516896Y-10646936D02*
X12535944Y-10618365D01*
X12535944Y-10618365D02*
X12545467Y-10580270D01*
X12545467Y-10580270D02*
X12545467Y-10504079D01*
X12545467Y-10504079D02*
X12535944Y-10485031D01*
X12535944Y-10485031D02*
X12526420Y-10475508D01*
X12526420Y-10475508D02*
X12507372Y-10465984D01*
X12507372Y-10465984D02*
X12469277Y-10465984D01*
X12469277Y-10465984D02*
X12450229Y-10475508D01*
X12450229Y-10475508D02*
X12440706Y-10485031D01*
X12440706Y-10485031D02*
X12431182Y-10504079D01*
X12431182Y-10504079D02*
X12431182Y-10551698D01*
X12431182Y-10551698D02*
X12440706Y-10570746D01*
X12440706Y-10570746D02*
X12450229Y-10580270D01*
X12450229Y-10580270D02*
X12469277Y-10589793D01*
X12469277Y-10589793D02*
X12507372Y-10589793D01*
X12507372Y-10589793D02*
X12526420Y-10580270D01*
X12526420Y-10580270D02*
X12535944Y-10570746D01*
X12535944Y-10570746D02*
X12545467Y-10551698D01*
X12716896Y-10532650D02*
X12716896Y-10665984D01*
X12669277Y-10456460D02*
X12621658Y-10599317D01*
X12621658Y-10599317D02*
X12745467Y-10599317D01*
X12812134Y-10465984D02*
X12812134Y-10504079D01*
X12888325Y-10465984D02*
X12888325Y-10504079D01*
X13183563Y-10742174D02*
X13174039Y-10732650D01*
X13174039Y-10732650D02*
X13154991Y-10704079D01*
X13154991Y-10704079D02*
X13145468Y-10685031D01*
X13145468Y-10685031D02*
X13135944Y-10656460D01*
X13135944Y-10656460D02*
X13126420Y-10608841D01*
X13126420Y-10608841D02*
X13126420Y-10570746D01*
X13126420Y-10570746D02*
X13135944Y-10523127D01*
X13135944Y-10523127D02*
X13145468Y-10494555D01*
X13145468Y-10494555D02*
X13154991Y-10475508D01*
X13154991Y-10475508D02*
X13174039Y-10446936D01*
X13174039Y-10446936D02*
X13183563Y-10437412D01*
X13364515Y-10665984D02*
X13250229Y-10665984D01*
X13307372Y-10665984D02*
X13307372Y-10465984D01*
X13307372Y-10465984D02*
X13288325Y-10494555D01*
X13288325Y-10494555D02*
X13269277Y-10513603D01*
X13269277Y-10513603D02*
X13250229Y-10523127D01*
X13459753Y-10665984D02*
X13497848Y-10665984D01*
X13497848Y-10665984D02*
X13516896Y-10656460D01*
X13516896Y-10656460D02*
X13526420Y-10646936D01*
X13526420Y-10646936D02*
X13545468Y-10618365D01*
X13545468Y-10618365D02*
X13554991Y-10580270D01*
X13554991Y-10580270D02*
X13554991Y-10504079D01*
X13554991Y-10504079D02*
X13545468Y-10485031D01*
X13545468Y-10485031D02*
X13535944Y-10475508D01*
X13535944Y-10475508D02*
X13516896Y-10465984D01*
X13516896Y-10465984D02*
X13478801Y-10465984D01*
X13478801Y-10465984D02*
X13459753Y-10475508D01*
X13459753Y-10475508D02*
X13450229Y-10485031D01*
X13450229Y-10485031D02*
X13440706Y-10504079D01*
X13440706Y-10504079D02*
X13440706Y-10551698D01*
X13440706Y-10551698D02*
X13450229Y-10570746D01*
X13450229Y-10570746D02*
X13459753Y-10580270D01*
X13459753Y-10580270D02*
X13478801Y-10589793D01*
X13478801Y-10589793D02*
X13516896Y-10589793D01*
X13516896Y-10589793D02*
X13535944Y-10580270D01*
X13535944Y-10580270D02*
X13545468Y-10570746D01*
X13545468Y-10570746D02*
X13554991Y-10551698D01*
X13793087Y-10665984D02*
X13793087Y-10465984D01*
X13878801Y-10665984D02*
X13878801Y-10561222D01*
X13878801Y-10561222D02*
X13869277Y-10542174D01*
X13869277Y-10542174D02*
X13850230Y-10532650D01*
X13850230Y-10532650D02*
X13821658Y-10532650D01*
X13821658Y-10532650D02*
X13802610Y-10542174D01*
X13802610Y-10542174D02*
X13793087Y-10551698D01*
X14002610Y-10665984D02*
X13983563Y-10656460D01*
X13983563Y-10656460D02*
X13974039Y-10646936D01*
X13974039Y-10646936D02*
X13964515Y-10627889D01*
X13964515Y-10627889D02*
X13964515Y-10570746D01*
X13964515Y-10570746D02*
X13974039Y-10551698D01*
X13974039Y-10551698D02*
X13983563Y-10542174D01*
X13983563Y-10542174D02*
X14002610Y-10532650D01*
X14002610Y-10532650D02*
X14031182Y-10532650D01*
X14031182Y-10532650D02*
X14050230Y-10542174D01*
X14050230Y-10542174D02*
X14059753Y-10551698D01*
X14059753Y-10551698D02*
X14069277Y-10570746D01*
X14069277Y-10570746D02*
X14069277Y-10627889D01*
X14069277Y-10627889D02*
X14059753Y-10646936D01*
X14059753Y-10646936D02*
X14050230Y-10656460D01*
X14050230Y-10656460D02*
X14031182Y-10665984D01*
X14031182Y-10665984D02*
X14002610Y-10665984D01*
X14183563Y-10665984D02*
X14164515Y-10656460D01*
X14164515Y-10656460D02*
X14154991Y-10637412D01*
X14154991Y-10637412D02*
X14154991Y-10465984D01*
X14335944Y-10656460D02*
X14316896Y-10665984D01*
X14316896Y-10665984D02*
X14278801Y-10665984D01*
X14278801Y-10665984D02*
X14259753Y-10656460D01*
X14259753Y-10656460D02*
X14250230Y-10637412D01*
X14250230Y-10637412D02*
X14250230Y-10561222D01*
X14250230Y-10561222D02*
X14259753Y-10542174D01*
X14259753Y-10542174D02*
X14278801Y-10532650D01*
X14278801Y-10532650D02*
X14316896Y-10532650D01*
X14316896Y-10532650D02*
X14335944Y-10542174D01*
X14335944Y-10542174D02*
X14345468Y-10561222D01*
X14345468Y-10561222D02*
X14345468Y-10580270D01*
X14345468Y-10580270D02*
X14250230Y-10599317D01*
X14421658Y-10656460D02*
X14440706Y-10665984D01*
X14440706Y-10665984D02*
X14478801Y-10665984D01*
X14478801Y-10665984D02*
X14497849Y-10656460D01*
X14497849Y-10656460D02*
X14507372Y-10637412D01*
X14507372Y-10637412D02*
X14507372Y-10627889D01*
X14507372Y-10627889D02*
X14497849Y-10608841D01*
X14497849Y-10608841D02*
X14478801Y-10599317D01*
X14478801Y-10599317D02*
X14450230Y-10599317D01*
X14450230Y-10599317D02*
X14431182Y-10589793D01*
X14431182Y-10589793D02*
X14421658Y-10570746D01*
X14421658Y-10570746D02*
X14421658Y-10561222D01*
X14421658Y-10561222D02*
X14431182Y-10542174D01*
X14431182Y-10542174D02*
X14450230Y-10532650D01*
X14450230Y-10532650D02*
X14478801Y-10532650D01*
X14478801Y-10532650D02*
X14497849Y-10542174D01*
X14574039Y-10742174D02*
X14583563Y-10732650D01*
X14583563Y-10732650D02*
X14602611Y-10704079D01*
X14602611Y-10704079D02*
X14612134Y-10685031D01*
X14612134Y-10685031D02*
X14621658Y-10656460D01*
X14621658Y-10656460D02*
X14631182Y-10608841D01*
X14631182Y-10608841D02*
X14631182Y-10570746D01*
X14631182Y-10570746D02*
X14621658Y-10523127D01*
X14621658Y-10523127D02*
X14612134Y-10494555D01*
X14612134Y-10494555D02*
X14602611Y-10475508D01*
X14602611Y-10475508D02*
X14583563Y-10446936D01*
X14583563Y-10446936D02*
X14574039Y-10437412D01*
M02*
