G04 #@! TF.GenerationSoftware,KiCad,Pcbnew,8.0.5*
G04 #@! TF.CreationDate,2024-09-22T09:32:30+02:00*
G04 #@! TF.ProjectId,nPM1300-breakout,6e504d31-3330-4302-9d62-7265616b6f75,rev?*
G04 #@! TF.SameCoordinates,Original*
G04 #@! TF.FileFunction,Paste,Top*
G04 #@! TF.FilePolarity,Positive*
%FSLAX46Y46*%
G04 Gerber Fmt 4.6, Leading zero omitted, Abs format (unit mm)*
G04 Created by KiCad (PCBNEW 8.0.5) date 2024-09-22 09:32:30*
%MOMM*%
%LPD*%
G01*
G04 APERTURE LIST*
G04 Aperture macros list*
%AMRoundRect*
0 Rectangle with rounded corners*
0 $1 Rounding radius*
0 $2 $3 $4 $5 $6 $7 $8 $9 X,Y pos of 4 corners*
0 Add a 4 corners polygon primitive as box body*
4,1,4,$2,$3,$4,$5,$6,$7,$8,$9,$2,$3,0*
0 Add four circle primitives for the rounded corners*
1,1,$1+$1,$2,$3*
1,1,$1+$1,$4,$5*
1,1,$1+$1,$6,$7*
1,1,$1+$1,$8,$9*
0 Add four rect primitives between the rounded corners*
20,1,$1+$1,$2,$3,$4,$5,0*
20,1,$1+$1,$4,$5,$6,$7,0*
20,1,$1+$1,$6,$7,$8,$9,0*
20,1,$1+$1,$8,$9,$2,$3,0*%
G04 Aperture macros list end*
%ADD10RoundRect,0.237500X0.237500X-0.250000X0.237500X0.250000X-0.237500X0.250000X-0.237500X-0.250000X0*%
%ADD11RoundRect,0.237500X0.287500X0.237500X-0.287500X0.237500X-0.287500X-0.237500X0.287500X-0.237500X0*%
%ADD12RoundRect,0.237500X-0.237500X0.300000X-0.237500X-0.300000X0.237500X-0.300000X0.237500X0.300000X0*%
%ADD13RoundRect,0.250000X-0.350000X0.275000X-0.350000X-0.275000X0.350000X-0.275000X0.350000X0.275000X0*%
%ADD14RoundRect,0.237500X0.300000X0.237500X-0.300000X0.237500X-0.300000X-0.237500X0.300000X-0.237500X0*%
%ADD15R,0.800000X0.300000*%
%ADD16R,0.300000X0.800000*%
%ADD17R,3.600000X3.600000*%
%ADD18RoundRect,0.237500X0.237500X-0.300000X0.237500X0.300000X-0.237500X0.300000X-0.237500X-0.300000X0*%
%ADD19RoundRect,0.237500X-0.300000X-0.237500X0.300000X-0.237500X0.300000X0.237500X-0.300000X0.237500X0*%
%ADD20RoundRect,0.237500X-0.250000X-0.237500X0.250000X-0.237500X0.250000X0.237500X-0.250000X0.237500X0*%
%ADD21R,1.600000X0.800000*%
%ADD22R,3.000000X2.100000*%
%ADD23R,1.150000X0.600000*%
%ADD24R,1.150000X0.300000*%
G04 APERTURE END LIST*
D10*
X117470000Y-80275000D03*
X117470000Y-78450000D03*
D11*
X99667500Y-65180000D03*
X97917500Y-65180000D03*
D12*
X120710000Y-75607500D03*
X120710000Y-77332500D03*
D11*
X99670000Y-63350000D03*
X97920000Y-63350000D03*
D13*
X112120000Y-73310000D03*
X112120000Y-75610000D03*
D14*
X118915000Y-69420000D03*
X117190000Y-69420000D03*
D15*
X114380000Y-72720000D03*
X114380000Y-73220000D03*
X114380000Y-73720000D03*
X114380000Y-74220000D03*
X114380000Y-74720000D03*
X114380000Y-75220000D03*
X114380000Y-75720000D03*
X114380000Y-76220000D03*
D16*
X115080000Y-76920000D03*
X115580000Y-76920000D03*
X116080000Y-76920000D03*
X116580000Y-76920000D03*
X117080000Y-76920000D03*
X117580000Y-76920000D03*
X118080000Y-76920000D03*
X118580000Y-76920000D03*
D15*
X119280000Y-76220000D03*
X119280000Y-75720000D03*
X119280000Y-75220000D03*
X119280000Y-74720000D03*
X119280000Y-74220000D03*
X119280000Y-73720000D03*
X119280000Y-73220000D03*
X119280000Y-72720000D03*
D16*
X118580000Y-72020000D03*
X118080000Y-72020000D03*
X117580000Y-72020000D03*
X117080000Y-72020000D03*
X116580000Y-72020000D03*
X116080000Y-72020000D03*
X115580000Y-72020000D03*
X115080000Y-72020000D03*
D17*
X116830000Y-74470000D03*
D18*
X115060000Y-70515000D03*
X115060000Y-68790000D03*
D19*
X110957500Y-71740000D03*
X112682500Y-71740000D03*
D20*
X120810000Y-78900000D03*
X122635000Y-78900000D03*
D10*
X118980000Y-80275000D03*
X118980000Y-78450000D03*
D21*
X101390000Y-82270000D03*
X101390000Y-83520000D03*
D22*
X98490000Y-79720000D03*
X98490000Y-86070000D03*
D18*
X111780000Y-78952500D03*
X111780000Y-77227500D03*
D12*
X122230000Y-75610000D03*
X122230000Y-77335000D03*
D11*
X99670000Y-61560000D03*
X97920000Y-61560000D03*
D12*
X120910000Y-71327500D03*
X120910000Y-73052500D03*
D14*
X115642500Y-78770000D03*
X113917500Y-78770000D03*
D23*
X103455000Y-68640000D03*
X103455000Y-69440000D03*
D24*
X103455000Y-70590000D03*
X103455000Y-71590000D03*
X103455000Y-72090000D03*
X103455000Y-73090000D03*
D23*
X103455000Y-75040000D03*
X103455000Y-74240000D03*
D24*
X103455000Y-73590000D03*
X103455000Y-72590000D03*
X103455000Y-71090000D03*
X103455000Y-70090000D03*
D14*
X112892500Y-70210000D03*
X111167500Y-70210000D03*
M02*
