M48
; DRILL file {KiCad 8.0.5} date 2024-09-22T09:32:33+0200
; FORMAT={-:-/ absolute / metric / decimal}
; #@! TF.CreationDate,2024-09-22T09:32:33+02:00
; #@! TF.GenerationSoftware,Kicad,Pcbnew,8.0.5
; #@! TF.FileFunction,Plated,1,2,PTH
FMAT,2
METRIC
; #@! TA.AperFunction,Plated,PTH,ViaDrill
T1C0.300
; #@! TA.AperFunction,Plated,PTH,ViaDrill
T2C0.350
; #@! TA.AperFunction,Plated,PTH,ViaDrill
T3C0.400
; #@! TA.AperFunction,Plated,PTH,ComponentDrill
T4C0.600
; #@! TA.AperFunction,Plated,PTH,ComponentDrill
T5C1.000
%
G90
G05
T1
X101.0Y-61.56
X101.0Y-63.35
X101.0Y-65.21
X102.83Y-83.53
X103.66Y-62.09
X104.7Y-75.58
X104.82Y-68.15
X105.24Y-63.4
X106.9Y-81.32
X108.08Y-82.1
X109.41Y-63.46
X111.02Y-72.77
X111.04Y-76.33
X112.48Y-81.32
X112.85Y-78.32
X113.05Y-82.1
X113.37Y-72.73
X113.75Y-77.27
X114.25Y-77.774
X114.88Y-77.78
X114.94Y-67.78
X115.48Y-77.78
X115.75Y-73.39
X115.75Y-74.47
X115.75Y-75.52
X116.03Y-69.57
X116.07Y-68.4
X116.08Y-77.78
X116.83Y-73.39
X116.83Y-74.47
X116.83Y-75.53
X117.23Y-70.4
X117.63Y-71.12
X117.89Y-73.39
X117.89Y-74.48
X117.89Y-75.53
X118.22Y-79.36
X118.22Y-81.32
X118.23Y-71.12
X118.83Y-71.12
X119.43Y-71.12
X119.55Y-76.76
X119.7Y-81.31
X119.71Y-79.39
X120.03Y-71.12
X120.65Y-85.33
X121.452Y-74.802
X122.03Y-80.26
X122.26Y-68.81
X123.08Y-73.03
X123.08Y-74.13
X123.3Y-77.33
X123.65Y-85.54
X124.72Y-84.54
X126.53Y-65.72
X126.58Y-68.55
X129.05Y-68.45
X129.07Y-65.8
X129.84Y-85.34
T2
X120.722Y-74.62
T3
X110.14Y-78.92
X110.16Y-73.72
X114.4Y-71.94
T5
X115.475Y-86.54
X115.485Y-61.96
X118.015Y-86.54
X118.025Y-61.96
X131.39Y-61.93
X131.39Y-64.47
X131.39Y-67.01
X131.39Y-69.55
X131.39Y-72.09
X133.93Y-61.93
X133.93Y-64.47
X133.93Y-67.01
X133.93Y-69.55
X133.93Y-72.09
X133.94Y-76.33
X133.94Y-78.87
X133.94Y-81.41
X133.94Y-83.95
X133.94Y-86.49
T4
X99.1Y-67.52G85X98.3Y-67.52
G05
X99.1Y-76.16G85X98.3Y-76.16
G05
X103.43Y-67.52G85X102.33Y-67.52
G05
X103.43Y-76.16G85X102.33Y-76.16
G05
M30
